{"glyphs":{"0":{"ha":746,"x_min":130,"x_max":830,"o":"m 581 906 q 412 805 457 904 q 352 637 368 705 l 274 299 q 258 138 258 233 l 258 131 q 379 31 259 31 q 523 109 463 31 q 609 299 583 188 l 687 637 q 701 753 701 700 q 693 827 701 793 q 583 906 673 906 l 581 906 m 593 954 q 793 865 737 954 q 830 732 830 805 q 821 652 830 694 l 736 284 q 598 72 707 160 q 368 -16 490 -16 q 163 72 214 -16 q 130 199 130 128 q 140 284 130 239 l 225 652 q 353 865 254 777 q 593 954 452 954 z "},"1":{"ha":678,"x_min":227,"x_max":629,"o":"m 237 0 q 227 9 227 0 q 227 14 227 11 q 266 42 231 30 q 312 96 302 54 l 480 825 l 346 825 l 353 857 q 399 891 358 877 q 503 921 439 905 q 573 939 539 930 q 629 954 607 947 l 431 96 q 428 77 428 85 q 451 42 428 51 q 478 17 478 31 q 477 14 478 15 q 460 0 474 0 l 237 0 z "},"2":{"ha":746,"x_min":117,"x_max":818,"o":"m 117 0 l 129 54 q 184 151 142 110 q 321 273 229 194 q 428 363 374 315 q 532 457 481 410 q 645 593 603 524 q 684 682 675 641 q 688 718 688 701 q 684 753 688 736 q 604 844 664 818 q 528 858 570 858 q 461 850 496 858 q 310 756 378 830 q 272 702 285 729 l 294 798 q 315 829 304 814 q 409 908 353 873 q 538 954 466 943 q 593 958 566 958 q 750 913 680 958 q 818 781 818 869 q 810 719 818 752 l 810 716 q 722 546 789 626 q 571 391 654 465 q 404 250 488 317 q 268 119 320 182 l 512 119 q 681 146 597 119 l 653 28 q 567 2 611 5 q 485 0 523 0 l 117 0 z "},"3":{"ha":746,"x_min":128,"x_max":763,"o":"m 488 43 q 297 -18 405 -8 q 264 -20 280 -20 q 128 28 179 -20 l 153 145 q 264 49 174 72 q 330 39 297 39 q 435 64 384 39 q 551 167 511 99 q 582 240 573 203 q 587 287 587 264 q 587 301 587 294 q 526 417 581 368 q 358 469 471 467 l 361 488 q 474 529 410 503 q 583 608 539 555 q 629 695 618 652 q 632 720 631 707 q 633 732 633 726 q 608 812 633 779 q 511 863 576 857 l 497 863 q 369 812 438 863 q 309 733 328 781 l 334 846 q 468 930 404 907 q 587 954 532 954 q 760 832 737 951 q 763 801 763 817 q 758 763 763 782 q 631 595 739 679 q 579 559 604 574 q 690 438 665 513 q 702 362 702 401 q 695 304 702 334 q 690 282 693 293 q 488 43 646 141 z "},"4":{"ha":746,"x_min":118,"x_max":774,"o":"m 501 273 l 118 273 l 136 349 l 652 926 l 770 926 l 642 366 l 774 366 l 753 273 l 620 273 l 579 96 q 577 81 577 88 q 613 42 577 52 q 654 16 654 31 l 654 14 q 637 0 650 0 l 358 0 q 347 9 347 0 q 347 14 347 11 q 400 42 351 30 q 460 96 450 54 l 501 273 m 523 366 l 628 821 l 224 366 l 523 366 z "},"5":{"ha":746,"x_min":91,"x_max":813,"o":"m 343 810 l 272 503 q 334 534 302 517 q 400 562 366 550 q 538 587 467 587 q 558 586 548 587 q 707 490 655 578 q 739 363 739 431 q 730 288 739 327 l 730 284 q 586 76 701 170 q 336 -16 473 -16 l 330 -16 q 201 -1 245 -14 q 114 34 157 12 q 91 62 91 43 q 92 69 91 66 q 96 98 94 85 q 123 153 106 139 q 145 165 138 165 q 149 163 148 165 q 206 92 170 131 q 321 54 241 54 l 326 54 q 458 94 394 54 q 564 197 523 135 q 602 288 591 240 q 610 356 610 321 q 545 486 610 444 q 450 515 496 515 q 407 509 428 515 q 289 454 339 490 q 250 434 266 437 q 229 431 239 431 q 220 432 224 431 q 201 433 210 432 q 195 442 195 433 q 197 453 195 447 l 299 895 q 308 923 304 920 q 336 926 311 926 l 662 926 q 740 923 699 926 q 813 899 782 921 l 787 784 q 635 810 721 810 l 343 810 z "},"6":{"ha":746,"x_min":117,"x_max":771,"o":"m 502 598 q 340 507 418 593 q 235 302 262 420 q 224 214 224 255 q 248 104 224 152 q 363 28 286 28 l 372 28 q 532 119 454 33 q 637 324 610 206 q 648 414 648 372 q 625 522 648 475 q 509 598 587 598 l 502 598 m 347 603 q 504 640 421 640 q 547 637 525 640 q 710 561 654 625 q 771 391 771 488 q 762 313 771 354 q 612 78 730 177 q 370 -18 498 -18 l 361 -18 q 160 81 225 -14 q 117 224 117 144 q 127 307 117 264 l 128 313 q 305 674 179 525 q 620 936 431 824 l 642 949 q 680 957 659 957 l 682 957 q 725 956 705 956 q 751 951 751 956 l 751 950 q 739 941 751 947 q 522 789 611 864 q 347 603 432 715 z "},"7":{"ha":746,"x_min":110,"x_max":840,"o":"m 282 101 q 222 0 248 54 l 110 1 q 113 17 111 9 q 142 81 121 50 q 192 153 168 120 q 466 498 312 309 q 722 810 621 687 l 460 810 q 296 784 374 810 l 323 899 q 407 923 364 921 q 486 926 449 926 l 812 926 q 839 923 836 926 q 840 919 840 922 q 836 895 840 912 q 795 810 823 849 q 539 455 667 633 q 282 101 411 278 z "},"8":{"ha":746,"x_min":94,"x_max":842,"o":"m 494 498 q 340 445 411 498 q 241 267 269 391 q 229 174 229 214 q 251 89 229 119 q 387 35 290 35 q 545 87 482 35 q 638 267 608 138 q 650 356 650 317 q 622 447 650 416 q 494 498 576 498 m 621 955 q 809 888 758 953 q 842 785 842 845 q 835 726 842 758 l 833 718 q 612 525 793 562 q 741 438 699 502 q 770 331 770 394 q 764 266 770 300 l 761 254 q 625 57 730 122 q 364 -13 515 -12 l 359 -13 q 143 58 212 -13 q 94 189 94 108 q 104 265 94 224 q 204 436 128 371 q 382 526 280 502 q 255 670 255 558 q 262 727 255 696 l 262 730 q 386 900 289 842 q 611 955 479 955 l 621 955 m 593 912 q 454 858 505 912 q 386 728 404 804 q 378 661 378 692 q 389 597 378 626 q 507 544 409 544 q 651 597 605 544 q 714 728 696 651 q 722 786 722 759 q 706 858 722 826 q 593 912 680 912 z "},"9":{"ha":746,"x_min":191,"x_max":845,"o":"m 460 341 q 621 432 543 345 q 726 636 699 518 q 737 724 737 683 q 713 834 737 786 q 599 910 675 910 l 591 910 q 429 820 507 906 q 325 618 352 734 l 324 615 q 313 526 313 568 q 337 417 313 465 q 451 341 374 341 l 460 341 m 614 336 q 458 298 541 298 q 414 301 436 298 q 252 378 307 313 q 191 546 191 450 q 200 626 191 584 l 201 630 q 349 861 232 763 q 591 957 463 957 l 600 957 q 802 858 736 953 q 845 713 845 795 q 835 630 845 674 l 834 626 q 657 264 783 414 q 342 3 531 115 q 331 -3 336 0 q 320 -9 326 -6 q 281 -18 302 -18 q 279 -17 280 -18 l 237 -17 q 209 -12 209 -17 l 209 -11 q 222 -2 210 -7 q 439 149 349 75 q 614 336 529 224 z "}," ":{"ha":373,"x_min":0,"x_max":0,"o":""},"!":{"ha":338,"x_min":109,"x_max":458,"o":"m 258 254 q 237 238 254 238 l 223 238 q 210 248 210 238 q 211 254 210 251 l 313 902 l 314 909 q 374 952 324 952 l 416 952 q 458 922 458 952 q 456 908 458 916 l 455 902 l 258 254 m 212 156 q 275 114 275 156 q 273 97 275 106 l 260 41 q 172 -17 246 -17 q 109 25 109 -17 q 111 41 109 33 l 123 97 q 212 156 137 156 z "},"\"":{"ha":566,"x_min":267,"x_max":660,"o":"m 302 657 q 288 649 300 649 l 277 649 q 267 655 267 649 l 267 657 l 300 956 l 301 958 q 342 979 306 979 l 374 979 q 407 963 407 979 q 406 959 407 961 l 406 956 l 302 657 m 555 657 q 541 649 553 649 l 530 649 q 520 655 520 649 l 520 657 l 553 956 l 554 958 q 595 979 559 979 l 627 979 q 660 962 660 979 q 659 958 660 960 l 659 956 l 555 657 z "},"#":{"ha":765,"x_min":122,"x_max":863,"o":"m 262 12 l 319 258 l 130 258 q 122 264 122 258 l 122 265 l 136 323 q 146 330 137 330 l 336 330 l 379 516 l 190 516 q 182 522 182 516 l 182 523 l 195 581 q 206 587 197 587 l 395 587 l 452 833 q 462 845 455 845 l 519 845 q 524 839 524 845 q 524 833 524 837 l 467 587 l 593 587 l 650 833 q 661 845 653 845 l 718 845 q 723 839 723 845 q 722 833 723 837 l 665 587 l 854 587 q 863 582 863 587 l 863 581 l 849 523 q 838 516 848 516 l 649 516 l 606 330 l 794 330 q 803 324 803 330 l 803 323 l 789 265 q 778 258 788 258 l 589 258 l 532 12 q 522 0 530 0 l 465 0 q 460 7 460 0 q 460 12 460 9 l 517 258 l 391 258 l 334 12 q 324 0 331 0 l 267 0 q 262 6 262 0 q 262 12 262 9 m 450 516 l 407 330 l 534 330 l 577 516 l 450 516 z "},"$":{"ha":694,"x_min":83,"x_max":806,"o":"m 552 1020 l 583 1020 q 596 1010 596 1020 q 595 1004 596 1007 l 576 920 q 806 850 713 920 l 760 716 q 747 704 755 704 q 743 705 745 704 q 730 722 734 705 q 673 820 716 779 q 572 863 631 861 q 567 863 569 863 q 563 863 565 863 l 484 522 q 554 510 517 516 q 623 494 590 505 q 705 440 681 475 q 729 382 724 413 q 732 347 732 366 q 726 290 732 321 q 563 64 694 154 q 420 -5 494 16 q 359 -20 391 -14 l 330 -144 q 311 -160 327 -160 l 280 -160 q 267 -150 267 -160 q 268 -144 267 -147 l 295 -26 l 276 -26 q 105 -1 180 -26 l 83 166 l 88 182 q 104 193 93 193 l 106 193 q 118 175 113 192 q 181 64 136 96 q 309 32 226 32 l 397 416 q 330 430 363 422 q 269 454 297 438 q 203 533 218 481 q 194 591 194 561 q 201 646 194 618 q 329 842 228 765 q 513 916 407 901 l 533 1004 q 552 1020 536 1020 m 457 406 l 372 35 q 548 130 479 50 q 605 247 589 179 l 606 253 q 610 287 610 271 q 577 362 610 334 q 525 390 556 380 q 457 406 497 398 m 424 532 l 499 857 q 452 842 474 851 q 396 808 419 828 q 357 764 376 791 q 330 715 340 741 q 316 677 321 695 q 313 646 313 661 q 313 631 313 638 q 343 565 317 589 q 392 540 364 547 q 424 532 395 538 z "},"%":{"ha":694,"x_min":14,"x_max":909,"o":"m 612 408 q 523 355 547 407 q 492 269 500 304 l 462 137 q 453 54 453 102 q 454 50 453 52 q 517 -2 454 -2 q 592 39 560 -2 q 637 137 623 79 l 667 269 q 674 328 674 300 q 670 367 674 349 q 612 408 659 408 m 617 433 q 722 387 692 433 q 741 317 741 355 q 736 276 741 298 l 703 129 q 631 19 688 64 q 511 -26 575 -26 q 404 19 430 -26 q 386 85 386 48 q 391 129 386 106 l 425 276 q 492 387 440 340 q 617 433 543 433 m 393 896 q 304 843 328 895 q 273 756 281 791 l 243 625 q 234 541 234 590 q 235 537 234 539 q 298 486 235 486 q 373 526 341 486 q 418 625 404 567 l 448 756 q 455 816 455 789 q 451 854 455 837 q 393 896 441 896 m 398 920 q 504 874 474 920 q 523 805 523 844 q 518 764 523 786 l 484 616 q 413 506 469 552 q 292 460 356 460 q 185 507 212 460 q 168 573 168 536 q 173 616 168 593 l 207 764 q 273 874 222 829 q 398 920 324 920 m 849 949 l 909 949 l 73 0 l 14 0 l 849 949 z "},"&":{"ha":876,"x_min":109,"x_max":943,"o":"m 642 205 l 700 105 q 787 28 723 62 q 807 12 804 20 q 808 8 808 9 q 807 5 808 7 q 805 2 805 3 q 795 -1 801 -1 l 629 -1 q 587 45 606 -1 q 555 107 572 79 q 416 9 485 40 q 269 -22 347 -22 q 134 33 176 -22 q 109 115 109 68 q 114 163 109 138 q 119 179 116 171 q 201 324 142 260 q 378 456 259 387 q 340 566 350 511 q 336 608 336 587 q 342 666 336 636 q 347 684 345 675 q 439 829 371 774 q 594 883 507 883 q 715 840 680 883 q 738 772 738 812 q 733 732 738 753 l 730 720 q 655 593 709 649 q 494 479 597 535 l 621 241 l 730 382 q 742 405 738 393 q 744 412 743 409 q 745 422 745 418 l 745 425 q 741 439 745 433 q 737 450 738 444 q 738 455 737 453 l 739 457 q 741 462 739 458 q 758 475 749 475 l 933 475 q 942 471 940 475 q 943 470 943 471 q 942 468 943 469 l 942 467 q 940 462 941 465 q 913 445 935 454 q 888 435 902 440 q 862 422 875 429 q 757 336 804 389 q 642 205 709 283 m 476 515 q 585 597 547 551 q 645 713 624 643 l 647 723 q 653 768 653 747 q 648 802 653 787 q 578 838 637 838 q 499 808 532 838 q 449 720 465 775 q 445 706 447 713 q 439 650 439 678 q 476 515 439 583 m 536 145 l 393 417 q 238 229 269 340 q 234 214 235 222 q 228 165 228 189 q 245 96 228 127 q 338 42 273 42 q 443 72 393 42 q 536 145 493 102 z "},"'":{"ha":289,"x_min":267,"x_max":407,"o":"m 302 657 q 288 649 300 649 l 277 649 q 267 655 267 649 l 267 657 l 300 956 l 301 958 q 342 979 306 979 l 374 979 q 407 963 407 979 q 406 959 407 961 l 406 956 l 302 657 z "},"(":{"ha":463,"x_min":123,"x_max":635,"o":"m 213 513 q 267 692 235 607 q 355 843 298 778 q 413 904 385 877 q 479 953 440 932 q 623 995 557 995 q 635 983 635 995 q 633 975 635 979 q 629 960 630 961 q 585 945 624 954 q 493 894 546 937 q 394 757 435 846 q 300 434 355 669 l 278 337 q 222 13 223 100 q 258 -123 222 -75 q 296 -159 278 -146 q 347 -182 315 -172 q 363 -190 363 -188 q 361 -203 363 -191 l 361 -207 q 354 -221 358 -217 q 338 -225 349 -225 q 245 -200 290 -225 q 162 -112 197 -174 q 123 16 128 -50 q 123 40 123 27 q 153 256 123 123 l 213 513 z "},")":{"ha":463,"x_min":45,"x_max":557,"o":"m 527 513 l 467 256 q 386 16 431 100 q 288 -112 351 -50 q 166 -200 226 -174 q 60 -225 108 -225 q 47 -221 50 -225 q 45 -214 45 -218 q 46 -206 45 -210 l 47 -203 q 52 -190 50 -191 q 72 -182 53 -188 q 133 -159 106 -172 q 187 -123 159 -145 q 286 13 246 -75 q 381 337 327 104 l 404 434 q 458 757 457 667 l 458 760 q 422 894 458 846 q 354 945 389 937 q 317 960 319 954 l 317 961 q 319 975 317 965 q 339 995 324 995 q 463 953 404 995 q 508 904 492 932 q 537 843 523 877 q 557 728 557 792 q 556 692 557 711 q 527 513 549 607 z "},"*":{"ha":694,"x_min":208,"x_max":711,"o":"m 316 572 l 438 490 l 475 653 q 500 678 481 678 l 535 678 q 549 664 549 678 q 547 653 549 659 l 510 490 l 670 572 q 688 577 680 577 q 700 569 696 577 l 711 538 q 711 534 711 536 q 711 530 711 532 q 692 510 709 519 l 531 429 l 654 347 q 665 330 665 338 q 664 327 665 329 q 661 319 663 323 l 635 288 q 619 279 628 279 q 604 285 612 279 l 481 366 l 444 203 q 420 178 438 178 l 385 178 q 370 193 370 178 q 372 203 370 198 l 410 366 l 250 285 q 231 279 239 279 q 220 288 222 279 l 210 319 q 208 324 208 321 q 209 328 208 326 q 228 347 211 338 l 389 429 l 266 510 q 254 525 254 517 q 255 528 254 527 q 260 538 256 533 l 285 569 q 300 577 291 577 q 316 572 307 577 z "},"+":{"ha":694,"x_min":205,"x_max":715,"o":"m 243 464 l 432 464 l 475 653 q 500 678 481 678 l 535 678 q 549 664 549 678 q 547 653 549 659 l 504 464 l 693 464 q 715 451 715 464 q 714 446 715 449 l 706 410 q 677 393 702 393 l 488 393 l 444 203 q 420 178 438 178 l 385 178 q 370 193 370 178 q 372 203 370 198 l 416 393 l 227 393 q 205 406 205 393 q 205 410 205 408 l 214 446 q 243 464 218 464 z "},",":{"ha":326,"x_min":27,"x_max":269,"o":"m 206 156 q 269 114 269 156 q 267 97 269 106 l 254 41 q 240 8 251 27 q 222 -24 229 -11 q 89 -153 177 -100 q 45 -168 60 -168 q 30 -162 35 -168 q 27 -155 27 -159 l 27 -152 q 35 -140 28 -146 q 68 -118 50 -127 q 167 -17 140 -79 l 166 -17 q 103 25 103 -17 q 105 41 103 33 l 118 97 q 206 156 132 156 z "},"-":{"ha":694,"x_min":205,"x_max":715,"o":"m 243 464 l 693 464 q 715 451 715 464 q 714 446 715 449 l 706 410 q 677 393 702 393 l 227 393 q 205 406 205 393 q 205 410 205 408 l 214 446 q 243 464 218 464 z "},".":{"ha":326,"x_min":107,"x_max":273,"o":"m 210 156 q 273 114 273 156 q 271 97 273 106 l 258 41 q 170 -17 245 -17 q 107 25 107 -17 q 109 41 107 33 l 122 97 q 210 156 136 156 z "},"/":{"ha":694,"x_min":-11,"x_max":897,"o":"m -11 -47 l 802 1000 l 897 1000 l 85 -47 l -11 -47 z "},":":{"ha":347,"x_min":107,"x_max":386,"o":"m 323 643 q 386 601 386 643 q 384 584 386 593 l 371 528 q 283 469 357 469 q 220 511 220 469 q 222 528 220 519 l 235 584 q 323 643 248 643 m 210 156 q 273 114 273 156 q 271 97 273 106 l 258 41 q 170 -17 245 -17 q 107 25 107 -17 q 109 41 107 33 l 122 97 q 210 156 136 156 z "},";":{"ha":347,"x_min":31,"x_max":386,"o":"m 323 643 q 386 601 386 643 q 384 584 386 593 l 371 528 q 283 469 357 469 q 220 511 220 469 q 222 528 220 519 l 235 584 q 323 643 248 643 m 210 156 q 273 114 273 156 q 271 97 273 106 l 258 41 q 244 8 255 27 q 226 -24 233 -11 q 93 -153 182 -100 q 49 -169 64 -169 q 34 -162 39 -169 q 31 -155 31 -159 l 31 -152 q 39 -140 33 -146 q 73 -118 54 -127 q 171 -17 144 -79 l 170 -17 q 107 26 107 -16 q 109 41 107 33 l 122 97 q 210 156 136 156 z "},"<":{"ha":694,"x_min":218,"x_max":821,"o":"m 222 412 q 218 422 218 416 q 219 427 218 425 q 239 451 222 437 l 752 860 q 779 873 768 873 q 793 866 787 873 l 818 833 q 821 823 821 828 q 820 818 821 821 q 802 793 818 806 l 344 428 l 633 63 q 641 43 641 52 q 640 38 641 41 q 631 24 638 31 l 591 -9 q 574 -16 583 -16 q 553 -3 564 -16 l 222 412 z "},"=":{"ha":694,"x_min":184,"x_max":740,"o":"m 222 364 l 672 364 q 694 351 694 364 q 693 346 694 349 l 685 311 q 656 292 681 292 l 206 292 q 184 306 184 292 q 185 311 184 308 l 193 346 q 222 364 197 364 m 269 564 l 718 564 q 740 551 740 564 q 739 546 740 549 l 731 511 q 702 492 727 492 l 252 492 q 231 506 231 492 q 231 511 231 508 l 239 546 q 269 564 243 564 z "},">":{"ha":694,"x_min":129,"x_max":732,"o":"m 728 445 q 732 434 732 440 q 731 430 732 432 q 712 406 729 419 l 199 -3 q 171 -16 182 -16 q 158 -9 163 -16 l 133 24 q 129 35 129 28 q 130 39 129 37 q 149 63 132 50 l 608 429 l 318 793 q 309 814 309 804 l 309 818 q 320 833 311 825 l 360 866 q 376 873 368 873 q 398 860 387 873 l 728 445 z "},"?":{"ha":532,"x_min":193,"x_max":672,"o":"m 353 299 q 334 243 345 263 q 309 225 322 225 q 296 245 298 225 q 295 258 295 252 q 300 300 295 275 l 349 508 q 489 616 446 568 q 548 734 532 667 q 555 792 555 767 q 543 846 555 825 q 460 883 522 883 q 374 849 407 883 q 313 725 340 814 q 294 701 308 709 q 258 692 280 692 q 225 701 235 692 q 220 717 220 707 q 222 730 220 723 q 313 873 242 821 q 486 926 385 926 q 639 875 590 926 q 672 786 672 840 q 665 735 672 762 q 510 553 640 624 q 477 536 496 546 q 414 487 429 509 q 383 416 397 466 l 353 299 m 292 151 q 353 110 353 151 q 351 94 353 103 l 339 40 q 253 -16 326 -16 q 193 24 193 -16 q 195 40 193 31 l 207 94 q 292 151 220 151 z "},"@":{"ha":1437,"x_min":75,"x_max":1494,"o":"m 1275 121 q 1176 38 1230 76 q 1065 -21 1122 0 q 941 -47 999 -47 q 859 -33 897 -47 q 812 32 812 -15 q 815 59 812 45 l 816 62 l 591 -9 q 551 -17 566 -17 l 524 -17 q 394 62 429 -12 q 378 140 378 96 q 385 203 378 170 q 451 355 403 279 q 555 482 499 431 q 644 545 587 512 q 686 563 663 555 q 814 604 750 583 q 942 644 878 624 q 966 648 956 648 l 970 648 q 1064 627 1012 646 q 1069 624 1068 625 q 1101 610 1082 618 q 1115 608 1108 608 q 1137 614 1126 608 q 1166 634 1157 626 q 1177 639 1171 639 q 1183 637 1180 639 q 1193 627 1193 633 q 1193 625 1193 626 l 1192 624 l 966 135 q 949 87 954 108 q 946 61 946 73 q 981 15 946 24 q 1006 12 993 12 q 1064 24 1031 12 q 1160 76 1114 41 q 1299 237 1234 132 q 1394 474 1364 345 q 1411 608 1411 547 q 1329 818 1411 741 q 1005 929 1211 929 q 684 852 851 929 q 387 618 517 777 q 211 262 257 462 q 192 109 192 182 q 208 -20 192 41 q 345 -217 241 -146 q 615 -288 448 -288 q 893 -238 756 -288 q 1122 -119 1017 -193 q 1129 -117 1126 -117 q 1137 -121 1133 -117 q 1140 -129 1140 -125 q 1139 -133 1140 -131 q 1133 -146 1138 -139 q 1110 -171 1122 -162 q 852 -303 989 -263 q 572 -344 716 -344 q 166 -173 300 -344 q 75 106 75 -55 q 94 263 75 180 q 429 772 163 564 q 1010 978 694 978 q 1398 841 1264 978 q 1494 596 1494 741 q 1479 476 1494 540 q 1275 121 1434 280 m 827 98 l 1023 522 q 971 569 1006 547 q 901 593 936 591 l 899 593 q 869 587 885 593 q 812 569 841 578 q 755 551 784 560 q 720 534 736 545 q 613 425 657 489 q 545 299 569 361 q 526 239 532 267 q 519 184 519 209 q 525 140 519 160 q 601 58 542 77 q 650 51 624 51 q 667 52 658 51 q 707 60 683 53 q 762 78 723 65 q 827 98 801 90 z "},"A":{"ha":1080,"x_min":37,"x_max":1051,"o":"m 791 968 q 830 772 807 888 q 878 533 853 656 q 926 294 903 410 q 966 99 949 178 q 995 54 970 74 q 1022 37 1008 43 q 1044 24 1036 30 q 1050 14 1049 19 q 1051 12 1051 13 q 1050 9 1051 10 q 1048 4 1050 7 q 1039 0 1045 0 l 810 0 q 798 4 804 0 q 793 14 793 9 q 792 18 792 16 q 804 31 793 24 q 821 44 811 37 q 838 62 831 51 q 843 75 842 68 q 844 88 844 81 q 844 100 844 94 l 797 332 l 401 332 q 326 215 363 273 q 251 100 289 157 q 239 75 241 86 q 235 66 237 71 q 235 57 235 61 l 235 53 q 238 38 235 44 q 242 26 241 33 q 241 19 241 21 q 239 14 241 17 q 220 0 231 0 l 45 0 q 37 4 39 0 q 37 5 37 5 q 37 7 37 6 q 39 14 37 9 q 66 32 45 23 q 91 42 77 37 q 118 56 104 48 q 165 99 147 74 l 749 968 l 791 968 m 786 387 l 704 800 q 570 593 637 696 q 437 387 503 490 l 786 387 z "},"B":{"ha":841,"x_min":79,"x_max":930,"o":"m 697 952 q 830 929 764 952 q 920 838 897 905 q 930 777 930 810 q 921 706 930 744 q 849 576 903 633 q 743 505 810 533 q 859 397 831 474 q 869 330 869 367 q 859 252 869 294 q 780 109 839 172 q 652 27 728 54 q 516 0 575 0 l 91 0 q 79 9 79 0 q 80 14 79 12 q 121 43 84 31 q 168 99 157 56 l 341 853 q 344 872 344 863 q 320 908 344 899 q 292 934 292 919 q 293 938 292 936 q 311 952 296 952 l 697 952 m 374 466 l 278 50 l 431 50 q 535 64 481 50 q 633 115 589 79 q 723 260 703 170 q 729 311 729 287 q 698 405 729 365 q 542 466 648 466 l 374 466 m 388 525 l 575 525 q 717 581 657 534 q 798 712 779 630 q 804 759 804 737 q 774 844 804 808 q 634 899 730 899 l 474 899 l 388 525 z "},"C":{"ha":949,"x_min":139,"x_max":1115,"o":"m 569 -25 q 231 108 361 -25 q 139 346 139 201 q 155 475 139 406 q 396 842 208 704 q 802 980 585 980 q 963 963 880 980 q 1115 895 1047 945 l 1065 752 q 1049 740 1060 740 l 1047 740 q 1034 759 1039 741 q 953 884 1011 853 q 787 916 895 916 q 493 810 635 916 q 298 475 351 705 q 288 387 288 431 q 342 190 288 286 q 585 44 420 52 q 616 43 602 43 q 766 70 703 43 q 903 195 838 101 q 926 214 917 213 l 929 214 q 939 203 939 214 l 939 202 l 937 186 l 840 21 q 699 -16 768 -6 q 569 -25 629 -25 z "},"D":{"ha":1075,"x_min":75,"x_max":1151,"o":"m 1141 536 q 1133 493 1137 514 q 1044 291 1107 380 q 864 115 970 184 q 466 -5 685 -2 l 412 -5 q 338 -4 372 -5 l 259 -4 q 174 -2 203 -4 l 157 -2 q 86 -6 130 -2 q 75 3 75 -6 q 75 9 75 6 q 116 38 79 26 q 163 94 153 50 l 338 856 q 341 876 341 867 q 317 911 341 902 q 290 937 290 922 q 290 941 290 939 q 308 955 294 955 q 366 954 336 954 q 424 955 394 954 q 538 958 483 957 l 578 958 q 786 953 682 958 q 998 903 909 945 q 1124 776 1082 861 q 1151 642 1151 722 q 1141 536 1151 593 m 476 890 l 286 68 q 444 52 367 52 q 503 54 474 52 q 699 104 608 62 q 884 258 806 155 q 990 499 956 353 l 996 522 q 1008 629 1008 581 q 999 706 1008 671 q 930 825 979 780 q 736 901 858 890 q 650 905 694 905 q 476 890 567 905 z "},"E":{"ha":848,"x_min":108,"x_max":968,"o":"m 311 64 l 600 64 q 718 112 663 64 q 802 188 773 161 q 824 203 817 203 q 836 193 836 203 q 835 189 836 191 q 830 174 833 180 l 741 0 l 117 0 q 108 9 108 0 q 109 14 108 11 q 149 43 113 31 q 196 99 186 55 l 370 852 q 372 872 372 863 q 349 909 372 899 q 321 934 321 919 q 321 938 321 936 q 339 952 325 952 l 968 952 l 928 778 q 911 764 925 764 q 892 791 904 764 q 850 863 869 838 q 791 889 831 889 l 501 889 l 416 521 l 571 521 q 636 556 614 521 q 675 591 658 591 q 686 582 686 591 q 686 576 686 579 l 646 404 q 629 390 643 390 q 604 425 612 390 q 553 459 596 459 l 401 459 l 311 64 z "},"F":{"ha":772,"x_min":108,"x_max":968,"o":"m 118 0 q 108 9 108 0 q 109 14 108 12 q 127 31 111 22 q 154 47 138 38 q 182 71 170 56 q 196 99 193 84 l 370 852 q 372 872 372 863 q 349 909 372 899 q 321 934 321 919 q 321 938 321 936 q 339 952 325 952 l 968 952 l 928 778 q 911 764 925 764 q 892 791 904 764 q 850 863 869 838 q 791 889 831 889 l 501 889 l 416 521 l 571 521 q 627 546 600 521 q 654 576 643 561 q 675 591 665 591 q 686 582 686 591 q 686 576 686 579 l 646 404 q 629 390 643 390 q 613 407 617 390 q 597 441 608 425 q 557 460 583 460 l 402 460 l 319 99 q 317 82 317 90 q 319 66 317 73 q 335 46 325 54 q 355 32 346 38 q 366 16 366 24 l 366 14 q 364 8 365 10 q 349 0 357 0 l 118 0 z "},"G":{"ha":1060,"x_min":139,"x_max":1120,"o":"m 569 -25 q 231 108 361 -25 q 139 346 139 201 q 155 475 139 406 q 396 842 208 704 q 802 980 585 980 q 963 963 880 980 q 1115 895 1047 945 l 1065 752 q 1049 740 1060 740 l 1047 740 q 1034 759 1039 741 q 953 884 1011 853 q 787 916 895 916 q 493 810 635 916 q 298 475 351 705 q 288 387 288 431 q 342 190 288 286 q 585 44 420 52 q 616 43 602 43 q 751 64 694 43 q 880 163 820 88 l 909 290 q 910 297 910 294 q 895 323 910 313 q 847 347 879 332 q 819 373 819 360 l 819 376 q 836 390 822 390 l 1108 390 q 1120 380 1120 390 q 1119 376 1120 378 q 1078 346 1115 358 q 1031 290 1042 334 l 970 26 q 762 -3 865 22 q 662 -20 711 -16 q 569 -25 613 -25 z "},"H":{"ha":1111,"x_min":108,"x_max":1276,"o":"m 492 852 l 418 535 l 991 535 l 1065 852 q 1067 872 1067 863 q 1044 908 1067 899 q 1016 934 1016 919 q 1017 938 1016 936 q 1034 952 1020 952 l 1264 952 q 1276 943 1276 952 q 1275 938 1276 941 q 1234 908 1271 920 q 1187 852 1197 896 l 1013 99 q 1010 79 1010 88 q 1035 43 1010 52 q 1063 18 1063 33 q 1062 14 1063 16 q 1044 0 1059 0 l 814 0 q 803 9 803 0 q 804 14 803 12 q 844 43 808 31 q 891 99 881 55 l 977 473 l 404 473 l 318 99 q 315 79 315 88 q 339 43 315 52 q 367 18 367 33 q 366 14 367 16 q 349 0 363 0 l 119 0 q 108 9 108 0 q 109 14 108 12 q 149 43 113 31 q 196 99 186 55 l 370 852 q 372 872 372 863 q 349 908 372 899 q 321 934 321 919 q 321 938 321 936 q 339 952 325 952 l 569 952 q 580 943 580 952 q 579 938 580 941 q 538 908 575 920 q 492 852 502 896 z "},"I":{"ha":468,"x_min":108,"x_max":580,"o":"m 492 852 l 318 100 q 315 79 315 89 q 339 43 315 52 q 367 18 367 33 q 366 14 367 16 q 349 0 363 0 l 119 0 q 108 9 108 0 q 109 14 108 12 q 149 43 113 31 q 196 99 186 55 l 370 852 q 372 872 372 863 q 349 909 372 899 q 321 934 321 919 q 321 938 321 936 q 339 952 325 952 l 568 952 q 580 943 580 952 q 579 938 580 941 q 538 908 575 920 q 492 852 502 897 z "},"J":{"ha":463,"x_min":12,"x_max":577,"o":"m 320 122 q 256 -77 289 -12 q 168 -188 223 -142 q 12 -271 93 -250 l 20 -237 q 79 -195 50 -220 q 130 -128 108 -170 q 157 -50 145 -100 q 196 118 169 0 l 366 853 q 368 873 368 864 q 345 909 368 899 q 317 935 317 920 q 318 939 317 937 q 335 952 321 952 l 565 952 q 577 943 577 952 q 576 939 577 941 q 535 909 572 921 q 488 853 498 897 l 320 122 z "},"K":{"ha":1008,"x_min":108,"x_max":1103,"o":"m 412 506 l 844 842 q 954 927 908 891 q 1008 951 983 951 q 1031 945 1020 951 l 1095 910 q 1103 898 1103 905 q 1102 894 1103 896 q 1098 885 1101 890 l 1040 786 l 998 806 q 951 817 974 817 q 884 790 916 817 l 549 524 l 950 53 q 975 32 961 39 q 987 17 987 25 l 987 14 q 970 0 984 0 l 741 0 q 729 9 729 0 q 730 14 729 12 q 740 26 731 20 q 758 45 754 37 l 758 47 q 741 75 758 56 l 404 470 l 318 99 q 315 79 315 88 q 339 43 315 52 q 367 18 367 33 q 366 14 367 16 q 349 0 363 0 l 119 0 q 108 9 108 0 q 109 14 108 12 q 149 43 113 31 q 196 99 186 55 l 370 852 q 372 872 372 863 q 349 908 372 899 q 321 934 321 919 q 321 938 321 936 q 339 952 325 952 l 569 952 q 580 943 580 952 q 579 938 580 941 q 538 908 575 920 q 492 852 502 896 l 412 506 z "},"L":{"ha":848,"x_min":108,"x_max":836,"o":"m 311 64 l 600 64 q 718 112 663 64 q 802 188 773 161 q 824 203 817 203 q 836 193 836 203 q 835 189 836 191 q 830 174 833 180 l 741 0 l 119 0 q 108 9 108 0 q 109 14 108 12 q 149 43 113 31 q 196 99 186 55 l 370 852 q 372 872 372 863 q 349 908 372 899 q 321 934 321 919 q 321 938 321 936 q 339 952 325 952 l 569 952 q 580 943 580 952 q 579 938 580 941 q 538 908 575 920 q 492 852 502 896 l 311 64 z "},"M":{"ha":1294,"x_min":94,"x_max":1436,"o":"m 1348 852 l 1174 99 q 1171 79 1171 88 q 1196 43 1171 52 q 1223 18 1223 33 q 1223 14 1223 16 q 1205 0 1219 0 l 975 0 q 964 9 964 0 q 964 14 964 12 q 1005 43 968 31 q 1052 99 1042 55 l 1219 825 l 633 -20 l 606 -20 l 407 793 l 247 99 q 244 79 244 88 q 268 43 244 52 q 296 18 296 33 q 295 14 296 16 q 277 0 292 0 l 105 0 q 94 9 94 0 q 94 14 94 12 q 135 43 98 31 q 182 99 172 55 l 355 852 q 358 872 358 863 q 334 908 358 899 q 307 934 307 919 q 307 938 307 936 q 325 952 311 952 l 505 952 l 701 191 l 1236 952 l 1425 952 q 1436 943 1436 952 q 1436 938 1436 941 q 1395 908 1432 920 q 1348 852 1358 896 z "},"N":{"ha":1115,"x_min":94,"x_max":1279,"o":"m 960 138 l 1125 852 q 1128 872 1128 863 q 1105 908 1128 899 q 1077 934 1077 919 q 1078 938 1077 936 q 1095 952 1081 952 l 1267 952 q 1279 943 1279 952 q 1278 938 1279 941 q 1238 908 1274 920 q 1191 852 1201 896 l 987 -29 l 873 0 l 410 806 l 247 99 q 244 79 244 88 q 268 43 244 52 q 296 18 296 33 q 295 14 296 16 q 277 0 292 0 l 105 0 q 94 9 94 0 q 94 14 94 12 q 135 43 98 31 q 182 99 172 55 l 355 852 q 358 872 358 863 q 334 908 358 899 q 307 934 307 919 q 307 938 307 936 q 325 952 311 952 l 499 952 l 960 138 z "},"O":{"ha":1092,"x_min":123,"x_max":1198,"o":"m 761 921 q 439 790 552 920 q 284 476 326 659 q 269 349 269 409 q 316 163 269 245 q 555 31 389 33 l 559 31 q 857 170 721 31 q 1030 472 991 307 l 1031 476 q 1046 609 1046 545 q 1014 783 1046 701 q 761 921 959 921 m 774 981 l 781 981 q 1120 846 1000 981 q 1198 631 1198 758 q 1183 515 1198 577 q 1174 478 1179 497 q 928 116 1105 245 q 541 -24 751 -12 q 510 -24 526 -24 q 206 106 321 -24 q 123 334 123 199 q 137 454 123 391 q 144 478 140 466 q 377 844 205 709 q 774 981 550 978 z "},"P":{"ha":839,"x_min":94,"x_max":970,"o":"m 304 99 q 301 79 301 88 q 325 43 301 52 q 353 18 353 33 q 352 14 353 16 q 335 0 349 0 l 105 0 q 94 9 94 0 q 94 14 94 12 q 134 43 98 31 q 180 99 170 55 l 355 852 q 358 872 358 863 q 334 908 358 899 q 307 934 307 919 q 307 938 307 936 q 325 952 311 952 l 725 952 q 865 927 795 952 q 960 831 935 903 q 970 767 970 802 q 961 693 970 732 q 885 555 942 616 q 763 478 836 503 q 634 452 690 452 l 385 452 l 304 99 m 488 896 l 396 500 l 553 500 q 651 513 600 500 q 745 562 703 527 q 831 700 812 614 q 838 748 838 725 q 807 838 838 800 q 659 896 760 896 l 488 896 z "},"Q":{"ha":1092,"x_min":123,"x_max":1198,"o":"m 761 921 q 439 790 552 920 q 284 476 326 659 q 269 349 269 409 q 316 163 269 245 q 555 31 389 33 l 559 31 q 857 170 721 31 q 1030 472 991 307 l 1031 476 q 1046 609 1046 545 q 1014 783 1046 701 q 761 921 959 921 m 463 -22 q 186 132 284 -4 q 123 336 123 219 q 137 454 123 391 q 144 478 140 466 q 377 844 205 709 q 774 981 550 978 l 781 981 q 1120 846 1000 981 q 1198 631 1198 758 q 1183 515 1198 577 q 1174 478 1179 497 q 943 127 1109 255 q 578 -21 777 -1 q 654 -56 620 -38 q 856 -125 787 -125 q 926 -112 879 -125 l 918 -146 q 806 -217 844 -184 q 720 -198 760 -211 q 606 -152 677 -184 q 435 -96 481 -96 q 406 -102 424 -96 q 322 -146 385 -110 l 332 -103 q 463 -22 417 -47 z "},"R":{"ha":928,"x_min":94,"x_max":970,"o":"m 868 49 q 913 31 883 33 q 930 19 930 28 q 929 16 930 18 l 928 14 q 911 0 923 0 l 730 0 q 696 53 724 0 q 632 179 668 106 q 558 329 596 252 q 494 452 520 406 l 385 452 l 304 99 q 301 79 301 88 q 325 43 301 52 q 353 18 353 33 q 352 14 353 16 q 335 0 349 0 l 105 0 q 94 9 94 0 q 94 14 94 12 q 135 43 98 31 q 182 99 172 55 l 355 852 q 358 872 358 863 q 334 908 358 899 q 307 934 307 919 q 307 938 307 936 q 325 952 311 952 l 725 952 q 865 927 795 952 q 960 831 935 903 q 970 767 970 802 q 961 693 970 732 q 885 555 942 616 q 774 482 840 507 q 652 453 707 456 l 868 49 m 488 896 l 396 500 l 553 500 q 651 513 600 500 q 745 562 703 527 q 831 700 812 614 q 838 748 838 725 q 807 838 838 800 q 659 896 760 896 l 488 896 z "},"S":{"ha":729,"x_min":86,"x_max":857,"o":"m 372 37 q 484 66 427 41 q 582 140 540 92 q 642 263 625 191 l 644 271 q 648 307 648 290 q 612 388 648 357 q 557 418 591 407 q 416 446 490 437 q 284 486 343 454 q 213 570 230 515 q 204 631 204 600 q 211 690 204 660 q 348 899 240 818 q 597 983 458 983 l 617 983 q 857 907 766 976 l 807 765 q 791 753 803 753 l 789 753 q 777 772 780 753 q 716 876 762 833 q 606 922 670 919 l 595 922 q 479 899 533 922 q 420 863 444 883 q 378 817 397 844 q 349 764 361 794 q 334 723 339 743 q 330 688 330 705 q 331 674 330 681 q 364 604 335 629 q 415 577 386 585 q 455 568 431 572 q 503 559 478 564 q 582 547 541 553 q 662 528 624 541 q 749 471 724 507 q 775 410 768 443 q 779 372 779 392 q 771 311 779 343 q 597 70 738 166 q 446 -4 525 20 q 313 -26 381 -23 q 283 -26 298 -26 q 109 0 189 -26 l 86 179 l 86 186 q 94 199 88 193 q 111 208 102 208 q 123 189 118 206 q 203 62 144 94 q 334 36 251 36 q 372 37 352 36 z "},"T":{"ha":851,"x_min":208,"x_max":1037,"o":"m 1004 778 q 986 764 1000 764 q 966 791 980 764 q 924 863 943 838 q 865 889 905 889 l 694 889 l 512 99 q 509 79 509 88 q 533 43 509 52 q 560 17 560 32 l 560 14 q 543 0 557 0 l 313 0 q 302 9 302 0 q 302 14 302 11 q 343 43 306 31 q 390 99 380 55 l 572 889 l 399 889 q 327 863 359 889 q 251 791 296 838 q 220 764 226 764 q 208 773 208 764 q 209 778 208 775 l 238 903 q 260 948 246 940 q 327 956 275 956 l 967 956 q 1033 949 1023 956 q 1037 934 1037 945 q 1033 903 1037 922 l 1004 778 z "},"U":{"ha":1054,"x_min":227,"x_max":1207,"o":"m 251 399 l 355 853 q 358 873 358 864 q 334 909 358 899 q 307 934 307 919 q 307 938 307 936 q 325 952 311 952 l 555 952 q 566 943 566 952 q 565 938 566 941 q 525 909 561 920 q 479 854 490 898 l 395 489 q 359 305 371 385 q 355 241 355 271 q 363 170 355 202 q 430 87 378 115 q 583 58 481 58 q 858 199 762 58 q 970 489 926 298 l 1054 852 q 1057 872 1057 863 q 1033 908 1057 899 q 1005 934 1005 919 q 1006 938 1005 936 q 1023 952 1009 952 l 1196 952 q 1207 943 1207 952 q 1206 938 1207 941 q 1166 908 1202 920 q 1120 852 1130 896 l 1015 399 q 954 214 991 298 q 855 73 916 130 q 563 -26 746 -26 q 371 -5 447 -26 q 258 74 294 17 q 227 214 227 125 q 251 399 227 292 z "},"V":{"ha":1003,"x_min":256,"x_max":1174,"o":"m 464 857 l 581 120 l 1035 751 q 1050 783 1048 768 q 1052 793 1052 788 q 1050 804 1052 799 q 1022 857 1042 825 l 998 896 l 1097 960 q 1109 964 1103 964 q 1122 958 1116 964 l 1165 901 q 1174 872 1174 888 q 1172 856 1174 865 q 1160 824 1168 841 q 1085 711 1132 776 l 593 22 q 580 4 586 10 q 568 0 574 0 l 466 0 q 456 5 459 0 q 453 21 455 7 q 450 41 451 35 l 358 753 q 342 853 348 825 q 313 899 336 878 q 285 915 298 909 q 263 928 271 922 q 257 938 258 932 q 256 942 256 940 l 256 944 q 259 948 257 946 q 268 952 262 952 l 498 952 q 509 948 504 952 q 515 938 514 943 q 515 936 515 937 q 515 935 515 935 q 505 921 513 928 q 486 908 496 915 q 469 890 476 901 q 463 876 465 884 q 463 868 463 872 q 464 857 463 863 z "},"W":{"ha":1389,"x_min":228,"x_max":1574,"o":"m 435 857 l 553 120 l 796 458 l 758 753 q 749 812 753 787 q 742 853 745 836 q 713 899 736 878 q 685 915 699 909 q 663 928 671 922 q 656 938 659 932 q 657 943 656 941 q 659 948 658 946 q 668 952 662 952 l 898 952 q 909 948 904 952 q 915 938 914 943 q 916 936 916 937 q 915 935 916 935 q 905 921 913 928 q 886 908 896 915 q 869 890 876 901 q 863 876 865 884 q 863 868 863 872 q 864 857 863 863 l 903 608 l 1006 751 q 1021 783 1019 768 q 1023 794 1023 789 q 1021 804 1023 800 q 994 857 1013 825 l 968 896 l 1068 960 q 1080 964 1074 964 q 1094 958 1087 964 l 1137 901 q 1145 872 1145 888 q 1143 856 1145 865 q 1131 824 1140 841 q 1057 711 1103 776 l 918 517 l 981 120 l 1435 751 q 1450 783 1447 768 q 1452 794 1452 789 q 1450 804 1452 800 q 1421 857 1441 825 l 1397 896 l 1496 960 q 1508 964 1502 964 q 1522 958 1516 964 l 1565 901 q 1574 872 1574 888 q 1572 856 1574 865 q 1560 824 1569 841 q 1485 711 1532 776 l 994 22 q 979 4 986 9 q 968 0 975 0 l 866 0 q 857 5 859 0 q 853 21 854 7 q 850 41 851 35 l 809 363 l 565 22 q 551 4 557 9 q 539 0 546 0 l 437 0 q 428 5 430 0 q 424 21 426 7 q 422 41 422 35 l 313 853 q 284 899 310 877 q 256 915 270 909 q 235 928 243 922 q 228 938 230 932 q 229 943 228 941 q 231 948 229 946 q 239 952 233 952 l 469 952 q 481 948 475 952 q 486 938 486 943 q 487 936 487 937 q 486 935 487 935 q 476 921 485 928 q 457 908 467 915 q 441 890 448 901 q 435 876 437 884 q 434 868 434 872 q 435 857 434 863 z "},"X":{"ha":926,"x_min":25,"x_max":1116,"o":"m 237 53 l 237 26 q 227 9 235 18 q 208 0 218 0 l 33 0 q 25 4 25 0 l 26 7 q 52 28 28 18 l 91 42 q 181 99 147 64 l 534 473 l 376 853 q 302 916 359 892 q 278 926 287 921 q 267 943 267 935 l 267 945 l 267 948 q 275 952 269 952 l 505 952 q 522 943 516 952 q 526 932 526 936 l 526 930 q 519 921 525 926 q 505 908 513 915 q 493 890 496 901 l 492 887 q 491 878 491 882 q 496 857 491 867 l 619 564 l 859 817 q 962 919 920 882 q 1031 956 1003 956 q 1044 954 1038 956 l 1107 933 q 1116 923 1116 929 l 1116 922 q 1112 909 1114 914 l 1056 794 l 1015 804 q 958 814 980 812 l 956 814 q 905 782 934 814 l 644 503 l 814 99 q 887 37 827 64 q 910 24 902 30 q 924 9 924 15 l 924 7 q 915 0 922 0 l 685 0 q 672 4 679 0 q 663 16 663 10 q 663 18 663 18 q 679 39 665 26 q 696 62 693 53 l 698 66 q 699 77 699 71 q 696 96 699 85 l 560 413 l 268 100 q 237 53 241 72 z "},"Y":{"ha":926,"x_min":250,"x_max":1040,"o":"m 505 459 l 359 853 q 318 899 349 876 q 286 915 301 909 q 260 928 270 922 q 251 938 254 932 q 250 943 250 941 l 250 945 l 251 948 q 258 952 252 952 l 488 952 q 500 948 495 952 q 509 938 507 943 q 510 933 510 936 l 510 931 q 503 921 509 926 q 488 908 496 915 q 477 890 480 901 l 476 887 q 475 878 475 882 q 480 857 475 867 l 625 494 l 862 762 q 897 814 889 792 q 899 821 899 817 q 901 836 901 828 q 895 873 901 852 l 883 920 l 989 962 q 999 964 995 964 q 1013 953 1008 964 l 1038 884 q 1040 869 1040 877 q 1039 859 1040 864 q 1005 812 1034 836 q 906 715 960 774 l 665 452 q 637 400 649 433 q 619 337 626 367 l 564 99 q 562 79 562 88 q 585 43 562 52 q 613 18 613 33 q 612 14 613 16 q 595 0 609 0 l 365 0 q 353 9 353 0 q 354 14 353 12 q 395 43 358 31 q 441 99 431 55 l 508 389 q 512 421 512 406 q 505 459 512 441 z "},"Z":{"ha":926,"x_min":24,"x_max":1107,"o":"m 42 41 l 897 890 l 485 889 q 413 863 444 889 q 337 791 382 838 q 305 764 312 764 q 294 773 294 764 q 294 778 294 775 l 323 903 q 346 948 332 940 q 412 956 361 956 l 1039 956 q 1104 944 1095 956 q 1107 937 1107 941 q 1106 932 1107 935 q 1090 903 1103 920 l 231 66 l 760 67 q 832 93 801 67 q 908 165 863 118 q 939 192 933 192 q 951 182 951 192 q 950 178 951 180 l 922 52 q 900 6 912 13 q 833 0 888 0 l 106 0 q 31 6 50 0 q 24 14 24 8 q 24 17 24 16 q 42 41 26 26 z "},"[":{"ha":463,"x_min":86,"x_max":566,"o":"m 270 -249 q 279 -259 279 -249 q 277 -267 279 -262 q 265 -285 273 -285 l 98 -285 q 86 -276 86 -285 q 87 -271 86 -274 l 374 974 q 393 994 378 994 l 560 994 q 566 986 566 994 q 564 975 566 981 q 548 956 559 956 l 450 956 l 172 -249 l 270 -249 z "},"\\":{"ha":694,"x_min":234,"x_max":660,"o":"m 660 -47 l 564 -47 l 234 1000 l 330 1000 l 660 -47 z "},"]":{"ha":463,"x_min":86,"x_max":566,"o":"m 103 -249 l 202 -249 l 480 956 l 381 956 q 373 965 373 956 q 374 975 373 970 q 387 994 378 994 l 555 994 q 566 982 566 994 q 565 974 566 979 q 499 693 538 859 q 420 351 460 527 l 341 9 q 277 -271 303 -157 q 260 -285 274 -285 l 92 -285 q 86 -277 86 -285 q 87 -267 86 -273 q 103 -249 92 -249 z "},"^":{"ha":694,"x_min":256,"x_max":753,"o":"m 549 970 l 621 970 l 753 618 l 715 618 l 566 890 l 292 618 l 256 618 l 549 970 z "},"_":{"ha":694,"x_min":-53,"x_max":659,"o":"m -34 -148 l 659 -148 l 640 -228 l -53 -228 l -34 -148 z "},"`":{"ha":694,"x_min":368,"x_max":628,"o":"m 574 749 l 399 877 q 376 900 387 886 q 368 922 368 909 q 370 932 368 927 q 406 977 378 965 q 431 981 419 981 q 457 973 445 981 q 504 918 471 963 q 550 855 537 872 l 612 771 q 628 739 628 749 l 628 737 q 621 732 627 732 q 616 731 618 731 q 574 749 600 731 z "},"a":{"ha":783,"x_min":98,"x_max":807,"o":"m 554 59 l 352 -9 q 314 -17 328 -17 l 286 -17 q 138 62 191 -12 q 98 196 98 119 q 101 243 98 219 q 111 298 105 272 q 132 367 119 334 q 203 482 153 425 q 277 545 227 512 q 315 563 295 555 q 433 604 374 583 q 552 644 492 624 q 575 648 565 648 l 578 648 q 678 627 621 646 q 684 624 684 625 q 718 610 698 618 q 734 608 726 608 q 754 614 745 608 q 779 634 771 626 q 789 639 783 639 q 795 637 792 639 q 807 626 807 633 l 807 624 l 686 99 q 684 79 684 88 q 707 43 684 52 q 735 18 735 33 q 734 14 735 16 q 717 0 731 0 l 552 0 q 543 6 543 0 l 543 9 l 554 59 m 661 522 q 598 569 639 547 q 524 593 558 591 l 521 593 q 492 587 507 593 q 440 569 466 578 q 387 551 414 560 q 356 534 368 545 q 275 425 303 489 q 241 330 252 377 q 235 299 237 315 q 231 240 231 267 q 252 140 231 182 q 347 58 282 77 q 397 51 370 51 q 414 52 405 51 q 452 60 429 53 q 504 78 468 66 q 564 99 541 91 l 661 522 z "},"b":{"ha":772,"x_min":112,"x_max":821,"o":"m 258 109 q 319 61 279 83 q 395 38 359 39 l 399 38 q 426 43 410 38 q 479 61 452 52 q 532 79 505 70 q 563 97 548 85 q 644 205 614 141 q 677 304 667 254 q 684 332 681 318 q 688 391 688 363 q 667 490 688 448 q 572 572 636 552 q 519 580 546 580 q 504 579 511 580 q 467 570 488 577 q 414 552 450 564 q 355 532 378 540 l 258 109 m 234 7 q 200 20 220 13 q 184 23 191 23 q 165 17 174 23 q 140 -3 146 4 q 130 -7 135 -7 q 123 -6 126 -7 q 112 5 112 -1 l 112 7 l 307 852 q 309 872 309 863 q 286 908 309 899 q 258 934 258 919 q 258 938 258 936 q 276 952 262 952 q 368 966 321 954 q 462 992 414 977 l 365 572 l 567 641 q 604 649 588 648 q 617 649 610 649 q 633 648 625 648 q 780 570 728 644 q 821 432 821 511 q 817 387 821 410 q 807 332 813 359 q 787 263 799 296 q 716 149 765 205 q 641 86 689 117 q 603 68 623 75 q 484 27 543 47 q 367 -13 425 7 q 342 -17 353 -17 l 340 -17 q 239 4 298 -15 q 234 7 236 5 z "},"c":{"ha":627,"x_min":111,"x_max":730,"o":"m 526 648 l 541 648 q 730 589 651 648 l 692 474 q 681 465 688 465 l 679 465 q 670 479 673 466 q 618 564 656 538 q 519 590 581 590 l 503 590 q 378 547 427 586 q 305 463 334 512 q 262 352 277 413 q 255 311 258 332 q 250 246 250 277 q 271 145 250 188 q 391 49 315 60 q 416 47 403 47 q 561 87 477 47 q 618 109 604 109 q 623 107 621 109 q 623 104 623 106 l 623 102 q 609 76 621 94 q 578 44 594 56 q 472 -4 532 9 q 362 -17 413 -17 q 167 54 236 -16 q 111 201 111 109 q 115 252 111 225 q 126 311 119 282 q 147 382 134 347 q 221 501 170 441 q 354 604 275 564 q 526 648 433 644 z "},"d":{"ha":835,"x_min":111,"x_max":906,"o":"m 568 59 l 366 -9 q 328 -17 342 -17 l 300 -17 q 152 62 205 -12 q 111 196 111 119 q 115 243 111 219 q 125 298 119 272 q 145 367 133 334 q 216 482 167 425 q 291 545 241 512 q 329 563 309 555 q 447 604 388 583 q 566 644 506 624 q 589 648 578 648 l 592 648 q 692 627 635 646 q 698 624 697 625 l 751 852 q 753 872 753 863 q 730 908 753 899 q 702 934 702 919 q 703 938 702 936 q 720 952 706 952 q 812 966 766 954 q 906 992 859 977 l 700 99 q 697 79 697 88 q 721 43 697 52 q 749 18 749 33 q 748 14 749 16 q 730 0 745 0 l 566 0 q 556 6 556 0 l 556 9 l 568 59 m 675 522 q 611 571 650 550 q 537 593 571 591 l 534 593 q 506 587 521 593 q 453 569 479 578 q 401 551 427 560 q 370 534 382 545 q 288 425 317 489 q 254 330 265 377 q 249 299 251 315 q 244 240 244 267 q 265 140 244 182 q 360 58 296 77 q 410 51 384 51 q 428 52 418 51 q 465 60 443 53 q 518 78 481 66 q 577 99 554 91 l 675 522 z "},"e":{"ha":678,"x_min":94,"x_max":730,"o":"m 347 -17 q 116 102 163 -17 q 94 214 94 155 q 104 300 94 256 q 127 374 113 336 q 273 576 178 504 q 500 648 368 648 q 730 466 730 648 q 718 374 730 425 q 707 335 711 347 q 677 324 703 324 l 248 324 q 237 235 237 276 q 262 125 237 172 q 414 47 304 47 q 475 54 441 47 q 562 85 510 61 q 619 106 606 106 q 625 105 623 106 q 625 102 625 104 l 625 99 q 610 74 623 90 q 592 52 599 58 q 581 43 586 47 q 465 -6 527 4 q 347 -17 403 -17 m 259 374 l 614 374 q 626 466 626 427 q 609 540 626 512 q 487 590 578 590 q 338 528 395 590 q 259 374 281 467 z "},"f":{"ha":463,"x_min":75,"x_max":681,"o":"m 424 696 l 412 643 l 574 646 l 574 646 q 582 637 582 646 q 581 629 582 633 q 572 606 578 619 q 534 574 558 574 l 396 574 l 286 99 q 283 79 283 88 q 307 43 283 52 q 335 18 335 33 q 334 14 335 16 q 317 0 331 0 l 87 0 q 75 9 75 0 q 76 14 75 12 q 117 43 80 31 q 163 99 153 55 l 273 573 q 195 570 247 572 l 191 570 q 180 579 180 570 q 181 583 180 581 l 181 585 q 198 602 184 595 q 261 631 213 608 q 283 640 273 636 q 288 641 285 641 l 301 696 q 349 837 321 783 q 392 895 368 871 q 422 912 403 906 l 609 977 q 633 980 616 979 l 636 980 q 662 972 651 980 q 680 949 677 959 q 681 941 681 946 q 680 928 681 935 q 676 916 678 922 q 659 882 667 884 l 657 882 q 638 892 650 882 q 578 913 610 913 q 539 906 559 913 q 454 813 477 882 q 438 758 446 787 q 424 696 431 728 z "},"g":{"ha":748,"x_min":16,"x_max":807,"o":"m 572 135 l 661 522 q 598 569 639 547 q 524 593 558 591 l 521 593 q 492 587 507 593 q 440 569 466 578 q 387 551 414 560 q 356 534 368 545 q 275 425 303 489 q 241 330 252 377 q 235 299 237 315 q 231 240 231 267 q 252 140 231 182 q 347 58 282 77 q 397 51 370 51 q 414 52 405 51 q 452 60 429 53 q 504 78 468 66 q 562 98 540 90 l 571 135 l 572 135 m 553 59 l 352 -9 q 314 -17 328 -17 l 286 -17 q 138 62 191 -12 q 98 196 98 119 q 101 243 98 219 q 111 298 105 272 q 132 367 119 334 q 203 482 153 425 q 277 545 227 512 q 315 563 295 555 q 433 604 374 583 q 552 644 492 624 q 575 648 565 648 l 578 648 q 678 627 621 646 q 684 624 684 625 q 718 610 698 618 q 734 608 726 608 q 754 614 745 608 q 779 634 771 626 q 789 639 783 639 q 795 637 792 639 q 807 626 807 633 l 807 624 l 635 -122 q 571 -262 609 -234 q 469 -311 532 -290 l 266 -381 q 229 -389 243 -389 q 201 -388 211 -389 q 53 -309 106 -385 q 16 -214 25 -269 q 148 -168 81 -191 q 166 -231 152 -203 q 261 -313 197 -293 q 310 -319 285 -319 q 328 -319 319 -319 q 366 -311 344 -317 q 389 -302 374 -307 q 418 -292 403 -298 q 477 -227 455 -276 q 503 -161 500 -177 l 553 59 z "},"h":{"ha":819,"x_min":58,"x_max":802,"o":"m 269 99 q 266 79 266 88 q 290 43 266 52 q 317 18 317 33 q 317 14 317 16 q 300 0 313 0 l 70 0 q 58 9 58 0 q 59 14 58 12 q 100 43 63 31 q 146 99 136 55 l 320 852 q 323 872 323 863 q 299 908 323 899 q 271 934 271 919 q 272 938 271 936 q 290 952 275 952 q 381 966 335 954 q 475 992 428 977 l 379 578 q 451 604 420 593 q 509 623 481 614 q 646 652 577 645 q 663 652 654 652 q 762 614 720 652 q 802 490 802 577 q 782 343 802 429 l 726 99 q 723 79 723 88 q 747 43 723 52 q 774 18 774 33 q 774 14 774 16 q 757 0 770 0 l 592 0 q 583 6 583 0 l 583 9 l 660 343 q 674 452 674 405 q 646 552 674 517 q 559 591 616 591 q 485 578 526 591 q 444 564 469 572 q 401 549 419 555 q 370 538 384 543 l 269 99 z "},"i":{"ha":402,"x_min":79,"x_max":484,"o":"m 424 949 q 484 900 484 949 q 481 875 484 889 q 389 800 463 800 q 330 848 330 800 q 333 875 330 861 q 424 949 350 949 m 289 99 q 286 79 286 88 q 310 43 286 52 q 338 18 338 33 q 337 14 338 16 q 320 0 334 0 l 90 0 q 79 9 79 0 q 79 14 79 12 q 120 43 83 31 q 167 99 157 55 l 267 533 q 269 552 269 543 q 245 588 269 578 q 218 614 218 599 q 218 618 218 616 q 236 632 222 632 q 328 646 281 634 q 421 673 374 658 l 289 99 z "},"j":{"ha":330,"x_min":-74,"x_max":451,"o":"m 390 949 q 451 900 451 949 q 448 875 451 888 q 355 800 430 800 q 296 848 296 800 q 299 875 296 861 q 390 949 316 949 m 235 8 q 170 -191 203 -125 q 83 -302 138 -256 q -74 -385 5 -366 l -66 -351 q 45 -242 7 -312 q 72 -164 60 -214 q 111 4 83 -114 l 233 533 q 235 552 235 543 q 212 588 235 578 q 184 614 184 599 q 184 618 184 616 q 202 632 188 632 q 294 646 248 634 q 388 673 340 658 l 235 8 z "},"k":{"ha":789,"x_min":72,"x_max":823,"o":"m 328 300 l 282 99 q 279 79 279 88 q 303 43 279 52 q 331 18 331 33 q 330 14 331 16 q 313 0 327 0 l 83 0 q 72 9 72 0 q 73 14 72 12 q 113 43 77 31 q 160 99 150 55 l 334 852 q 336 872 336 863 q 313 908 336 899 q 285 934 285 919 q 286 938 285 936 q 303 952 289 952 q 395 966 349 954 q 488 992 441 977 l 345 374 l 630 566 q 715 619 679 600 q 752 630 736 630 q 774 624 764 630 l 818 593 q 823 583 823 588 l 823 581 q 819 574 822 577 l 771 503 l 741 520 q 705 530 724 530 q 657 515 682 530 q 453 383 542 441 l 636 153 q 712 72 693 81 q 743 64 726 64 q 757 66 749 64 q 768 67 763 67 q 783 57 781 67 q 784 54 784 55 q 783 50 784 52 q 774 41 782 43 l 726 20 q 656 4 687 4 q 621 12 637 4 q 553 65 581 29 l 353 317 q 328 300 346 311 z "},"l":{"ha":405,"x_min":72,"x_max":488,"o":"m 282 99 q 279 79 279 88 q 303 43 279 52 q 331 18 331 33 q 330 14 331 16 q 313 0 327 0 l 83 0 q 72 9 72 0 q 73 14 72 12 q 113 43 77 31 q 160 99 150 55 l 334 852 q 336 872 336 863 q 313 908 336 899 q 285 934 285 919 q 286 938 285 936 q 303 952 289 952 q 395 966 349 954 q 488 992 441 977 l 282 99 z "},"m":{"ha":1219,"x_min":70,"x_max":1185,"o":"m 392 584 q 454 606 427 596 q 507 623 481 615 q 643 652 574 645 q 660 652 651 652 q 760 614 717 652 q 781 585 774 600 q 841 606 814 597 q 892 623 868 615 q 1028 652 960 645 q 1046 652 1037 652 q 1145 614 1102 652 q 1185 490 1185 576 q 1165 343 1185 429 l 1109 99 q 1106 79 1106 88 q 1130 43 1106 52 q 1158 18 1158 33 q 1157 14 1158 16 q 1139 0 1154 0 l 975 0 q 966 6 966 0 l 966 9 l 1043 343 q 1057 452 1057 405 q 1029 552 1057 517 q 942 591 999 591 q 868 578 909 591 q 832 566 853 573 q 793 553 811 559 q 800 494 800 528 q 779 343 800 433 l 723 99 q 720 79 720 88 q 744 43 720 52 q 772 18 772 33 q 771 14 772 16 q 754 0 768 0 l 524 0 q 513 9 513 0 q 513 14 513 12 q 554 43 517 31 q 601 99 591 55 l 657 343 q 671 452 671 405 q 644 552 671 517 q 556 591 613 591 q 482 578 524 591 q 432 561 456 570 q 382 544 407 552 l 280 99 q 277 79 277 88 q 301 43 277 52 q 329 18 329 33 q 328 14 329 16 q 311 0 325 0 l 81 0 q 70 9 70 0 q 71 14 70 12 q 111 43 75 31 q 158 99 148 55 l 258 533 q 260 552 260 543 q 237 588 260 578 q 209 614 209 599 q 210 618 209 616 q 227 632 213 632 q 319 646 273 634 q 412 673 366 658 l 392 584 z "},"n":{"ha":808,"x_min":58,"x_max":802,"o":"m 379 578 q 451 604 420 593 q 509 623 481 614 q 646 652 577 645 q 663 652 654 652 q 762 614 720 652 q 802 490 802 577 q 782 343 802 429 l 726 99 q 723 79 723 88 q 747 43 723 52 q 774 18 774 33 q 774 14 774 16 q 757 0 770 0 l 592 0 q 583 6 583 0 l 583 9 l 660 343 q 674 452 674 405 q 646 552 674 517 q 559 591 616 591 q 485 578 526 591 q 444 564 469 572 q 401 549 419 555 q 370 538 384 543 l 269 99 q 266 79 266 88 q 290 43 266 52 q 317 18 317 33 q 317 14 317 16 q 300 0 313 0 l 70 0 q 58 9 58 0 q 59 14 58 12 q 100 43 63 31 q 146 99 136 55 l 246 533 q 249 552 249 543 q 225 588 249 578 q 197 614 197 599 q 198 618 197 616 q 216 632 201 632 q 308 646 261 634 q 401 673 354 658 l 379 578 z "},"o":{"ha":751,"x_min":105,"x_max":790,"o":"m 541 648 q 741 547 672 643 q 790 391 790 478 q 781 315 790 355 l 781 311 q 632 82 749 176 q 371 -17 513 -13 l 360 -17 q 158 79 230 -17 q 105 237 105 149 q 115 313 105 273 l 115 315 q 284 565 150 464 q 327 586 300 577 q 410 613 355 595 q 481 637 441 624 q 539 648 517 648 l 541 648 m 516 603 l 508 603 q 354 526 429 603 q 248 326 275 445 q 237 234 237 277 q 260 121 237 172 q 382 29 298 33 l 392 29 q 545 106 471 29 q 651 305 623 186 q 662 397 662 353 q 639 511 662 459 q 516 603 600 598 z "},"p":{"ha":812,"x_min":-14,"x_max":846,"o":"m 399 575 l 592 641 q 629 649 613 648 q 642 649 635 649 q 657 648 649 648 q 805 570 751 644 q 846 432 846 511 q 842 387 846 410 q 832 333 838 359 q 812 263 824 296 q 741 149 789 205 q 665 86 715 118 q 628 68 648 75 q 391 -13 499 23 q 368 -17 378 -17 l 365 -17 q 267 3 326 -15 l 197 -299 q 194 -319 194 -310 q 218 -355 194 -345 q 245 -380 245 -366 q 245 -385 245 -382 q 228 -398 241 -398 l -2 -398 q -14 -389 -14 -398 q -13 -385 -14 -387 q 28 -355 -9 -367 q 75 -299 64 -342 l 267 533 q 269 552 269 543 q 245 588 269 578 q 218 614 218 599 q 218 618 218 616 q 236 632 222 632 q 328 646 281 634 q 421 673 374 658 l 399 575 m 290 102 q 349 58 312 77 q 420 38 387 39 l 425 38 q 451 43 435 38 q 504 61 477 52 q 556 79 530 70 q 588 97 573 85 q 669 205 639 141 q 703 301 691 253 q 708 332 706 317 q 713 391 713 363 q 692 490 713 448 q 597 572 660 553 q 545 580 571 580 q 529 579 536 580 q 492 570 513 577 q 445 554 476 565 q 389 536 414 544 l 290 102 z "},"q":{"ha":795,"x_min":111,"x_max":818,"o":"m 565 58 l 365 -9 q 328 -17 342 -17 l 299 -17 q 152 62 203 -12 q 111 196 111 119 q 115 243 111 219 q 125 300 119 273 q 145 367 133 334 q 216 482 166 425 q 290 545 242 513 q 329 563 308 555 q 447 604 388 583 q 565 644 505 624 q 589 648 578 648 l 592 648 q 692 627 635 646 q 695 625 693 626 q 699 624 696 624 l 699 623 q 732 610 713 616 q 745 608 739 608 q 765 614 756 608 q 790 634 782 626 q 800 639 794 639 q 806 637 803 639 q 818 626 818 633 l 818 624 l 605 -299 q 602 -319 602 -310 q 626 -355 602 -345 q 654 -380 654 -366 q 653 -385 654 -382 q 635 -398 650 -398 l 406 -398 q 394 -389 394 -398 q 395 -385 394 -387 q 435 -355 399 -367 q 482 -299 472 -342 l 565 58 m 672 524 q 610 570 650 549 q 536 593 570 591 l 534 593 q 506 587 520 593 q 453 569 479 578 q 400 551 427 560 q 369 534 383 545 q 288 425 316 489 q 254 330 264 377 q 248 299 250 315 q 243 240 243 267 q 264 140 243 182 q 359 58 295 78 q 410 51 384 51 q 427 52 418 51 q 465 60 443 53 q 515 78 480 66 q 574 98 550 90 l 672 524 z "},"r":{"ha":564,"x_min":85,"x_max":681,"o":"m 366 404 l 296 99 q 294 79 294 88 q 317 43 294 52 q 345 18 345 33 q 344 14 345 16 q 327 0 340 0 l 97 0 q 85 9 85 0 q 86 14 85 12 q 127 43 90 31 q 174 99 163 55 l 273 533 q 276 552 276 543 q 252 588 276 578 q 224 614 224 599 q 225 618 224 616 q 243 632 229 632 q 335 646 288 634 q 429 673 381 658 l 408 583 l 511 619 q 599 648 567 639 q 621 651 608 651 q 681 637 646 651 l 627 467 l 595 467 q 517 566 592 566 q 502 566 509 566 q 416 513 448 559 q 366 404 383 467 z "},"s":{"ha":600,"x_min":87,"x_max":657,"o":"m 482 650 q 657 589 581 644 l 615 471 q 602 460 612 460 l 600 460 q 589 477 592 461 q 537 562 576 528 q 445 598 498 596 l 442 598 q 355 577 400 598 q 288 511 308 555 q 279 484 281 496 q 277 465 277 473 q 302 422 277 437 q 406 384 345 398 q 552 331 488 364 q 602 235 602 305 q 598 192 602 215 l 597 185 q 535 85 585 135 q 395 3 480 31 q 281 -16 341 -14 l 262 -16 q 108 6 179 -16 l 87 155 l 92 169 q 107 179 96 179 l 109 179 q 119 163 115 178 q 173 67 135 96 q 281 37 212 39 l 289 37 q 399 60 337 37 q 485 148 468 84 l 486 152 q 490 180 490 167 q 438 245 490 229 q 321 281 371 265 q 208 339 258 299 q 172 417 172 368 q 176 456 172 435 l 177 459 q 293 609 202 564 q 466 650 376 650 q 482 650 474 650 z "},"t":{"ha":463,"x_min":170,"x_max":582,"o":"m 273 573 q 195 570 247 572 l 191 570 q 180 579 180 570 q 181 583 180 581 l 181 585 q 198 602 184 595 q 261 631 213 608 q 283 640 273 636 q 288 641 285 641 l 315 757 q 340 804 323 791 q 412 841 357 817 q 444 850 433 850 q 456 839 456 850 q 455 832 456 836 l 412 643 l 574 646 l 574 646 q 582 637 582 646 q 581 629 582 633 q 572 606 578 619 q 534 574 558 574 l 396 574 l 298 149 q 294 117 294 132 q 319 57 294 79 q 385 22 355 26 l 380 1 q 214 20 279 1 q 170 97 170 33 q 180 170 170 127 l 273 573 z "},"u":{"ha":840,"x_min":172,"x_max":861,"o":"m 728 99 q 726 79 726 88 q 749 43 726 52 q 777 18 777 33 q 777 14 777 16 q 759 0 773 0 l 594 0 q 585 6 585 0 l 585 9 l 595 53 q 523 27 554 39 q 465 8 492 16 q 329 -20 397 -13 q 311 -20 319 -20 q 212 18 254 -20 q 172 141 172 54 q 192 288 172 202 l 248 533 q 251 552 251 543 q 227 588 251 578 q 199 614 199 599 q 200 618 199 616 q 218 632 203 632 q 310 646 263 634 q 404 673 356 658 l 315 288 q 300 179 300 226 q 328 79 300 114 q 416 41 359 41 q 490 54 448 41 q 530 67 505 58 q 573 82 555 76 q 585 86 576 83 q 604 93 593 89 l 705 533 q 708 552 708 543 q 684 588 708 578 q 656 614 656 599 q 657 618 656 616 q 675 632 661 632 q 767 646 720 634 q 861 673 813 658 l 728 99 z "},"v":{"ha":703,"x_min":165,"x_max":799,"o":"m 367 546 l 444 113 l 687 486 q 699 514 696 500 q 701 528 701 521 q 691 560 701 544 l 675 587 l 747 635 q 755 639 751 639 q 764 633 760 639 l 793 595 q 799 576 799 587 q 798 565 799 570 q 789 543 795 555 q 739 467 770 510 l 423 1 q 414 -9 418 -5 q 406 -13 410 -13 l 349 -13 q 342 -9 345 -13 q 340 2 341 -7 q 338 14 338 10 l 239 543 q 215 583 233 568 q 190 598 203 592 q 171 610 178 604 q 165 619 167 613 l 165 624 q 167 628 165 626 q 175 631 170 631 l 397 631 q 408 628 402 631 q 413 619 412 623 l 413 616 q 403 604 412 610 q 372 576 375 583 q 367 563 368 570 q 366 555 366 559 q 367 546 366 551 z "},"w":{"ha":1117,"x_min":165,"x_max":1213,"o":"m 781 546 l 859 113 l 1101 486 q 1114 514 1110 500 q 1115 528 1115 521 q 1105 560 1115 544 l 1089 587 l 1160 635 q 1169 638 1164 638 q 1179 633 1174 638 l 1207 595 q 1213 576 1213 587 q 1212 565 1213 570 q 1203 543 1210 555 q 1154 467 1185 510 l 838 1 q 829 -9 833 -5 q 821 -13 825 -13 l 764 -13 q 757 -9 759 -13 q 754 2 755 -7 q 752 14 753 10 l 682 383 l 423 1 q 414 -9 418 -5 q 406 -13 410 -13 l 349 -13 q 342 -9 345 -13 q 340 2 341 -7 q 338 14 338 10 l 239 543 q 215 583 233 568 q 190 598 203 592 q 171 610 178 604 q 165 619 167 613 l 165 624 q 167 628 165 626 q 175 631 170 631 l 397 631 q 408 628 402 631 q 413 619 412 623 l 413 616 q 403 604 412 610 q 372 576 375 583 q 367 563 368 570 q 366 555 366 559 q 367 546 366 551 l 444 113 l 669 458 l 653 543 q 629 583 647 568 q 605 598 617 592 q 585 610 592 604 q 579 619 579 614 l 579 624 q 581 628 580 626 q 589 631 584 631 l 812 631 q 822 628 817 631 q 827 619 826 623 l 827 616 q 817 604 826 610 q 786 576 789 583 q 781 563 783 570 q 781 555 781 559 q 781 546 781 551 z "},"x":{"ha":745,"x_min":17,"x_max":821,"o":"m 125 66 l 374 303 l 255 564 q 225 594 248 581 q 203 605 214 601 q 185 614 192 610 q 172 627 172 623 q 183 630 173 630 l 401 630 q 416 621 412 630 q 417 616 417 618 l 417 614 q 410 607 416 610 q 394 589 398 601 q 393 583 393 586 q 397 567 393 575 l 475 398 l 623 540 q 722 630 701 615 q 740 635 729 635 q 779 622 756 635 l 817 599 q 821 591 821 596 l 821 589 q 817 582 820 586 l 766 511 q 726 535 745 525 q 715 538 721 538 q 675 514 699 538 l 498 346 l 627 66 q 660 35 635 46 q 678 25 669 30 q 696 16 688 21 q 709 3 709 7 q 699 0 709 0 l 480 0 q 465 9 470 0 q 465 13 465 11 l 465 15 q 473 23 465 19 q 488 41 484 28 l 488 42 q 488 48 488 45 q 484 63 488 55 l 399 251 l 204 66 q 185 37 187 48 l 184 35 q 184 28 184 31 q 184 22 184 24 q 185 20 185 21 q 184 18 185 19 q 179 9 184 14 q 164 0 171 0 l 23 0 q 17 3 17 0 l 17 3 q 21 9 18 6 q 63 28 33 20 q 125 66 94 35 z "},"y":{"ha":703,"x_min":63,"x_max":799,"o":"m 239 543 q 215 583 233 568 q 183 602 199 594 q 165 619 166 609 l 165 625 q 175 631 166 631 l 397 631 q 413 619 410 631 q 414 616 414 618 q 413 614 414 615 q 398 600 411 606 q 372 576 382 592 q 367 563 368 570 q 366 555 366 559 q 367 546 366 551 l 444 113 l 687 486 q 699 514 696 500 q 701 528 701 521 q 691 560 701 544 l 675 587 l 747 635 q 755 639 751 639 q 764 633 760 639 l 793 595 q 799 576 799 587 q 798 565 799 570 q 789 543 795 555 q 739 467 770 510 l 231 -281 q 177 -355 200 -326 q 129 -384 154 -384 l 127 -384 l 73 -382 q 63 -372 63 -380 l 63 -369 l 77 -292 l 112 -291 q 186 -251 157 -290 l 355 -13 q 342 -9 345 -13 q 340 2 341 -7 q 338 14 338 10 l 239 543 z "},"z":{"ha":691,"x_min":38,"x_max":786,"o":"m 770 597 l 212 54 l 506 54 q 570 77 541 55 q 637 140 599 100 q 665 163 660 163 q 674 156 674 163 q 673 151 674 154 l 649 44 q 631 5 642 11 q 573 0 621 0 l 109 -1 q 44 5 60 0 q 38 12 38 7 l 38 14 q 54 35 39 22 l 609 584 l 370 584 q 308 562 335 584 q 243 499 281 539 q 216 477 221 477 q 205 485 205 477 q 206 488 205 486 l 231 596 q 251 634 238 627 q 308 641 263 641 l 730 641 q 786 623 786 641 q 785 619 786 621 q 770 597 783 610 z "},"{":{"ha":694,"x_min":188,"x_max":783,"o":"m 203 416 q 190 423 193 416 q 188 431 188 427 q 189 436 188 433 q 191 442 189 439 q 212 456 196 454 q 365 506 317 465 q 410 572 393 530 q 435 652 427 613 l 469 795 q 502 896 479 844 q 562 979 524 948 q 762 1028 624 1028 q 780 1022 776 1028 q 783 1008 783 1015 q 783 1005 783 1007 q 760 994 780 994 q 629 957 669 993 q 588 893 603 935 q 564 817 572 852 l 542 720 q 509 607 530 667 q 455 512 488 547 q 294 435 404 456 q 420 359 393 414 q 431 297 431 334 q 429 264 431 281 q 410 151 422 204 l 388 54 q 376 -32 376 3 q 389 -85 376 -67 q 502 -122 413 -121 q 515 -132 513 -122 l 515 -135 q 514 -140 515 -138 q 508 -151 513 -146 q 489 -157 502 -157 q 312 -107 352 -157 q 289 -33 289 -79 l 289 -25 q 302 76 291 26 l 336 219 q 347 300 345 258 l 347 309 q 332 367 347 344 q 277 402 314 391 q 203 416 240 413 z "},"|":{"ha":694,"x_min":270,"x_max":634,"o":"m 538 1010 l 634 1010 l 366 -154 l 270 -154 l 538 1010 z "},"}":{"ha":694,"x_min":55,"x_max":649,"o":"m 625 416 q 543 402 586 413 q 472 367 500 391 q 426 299 443 341 q 401 219 410 258 l 368 76 q 334 -25 356 26 q 275 -107 312 -77 q 74 -157 210 -157 q 58 -151 61 -157 q 55 -142 55 -147 l 55 -140 q 58 -132 56 -136 q 76 -122 64 -122 q 208 -85 167 -121 q 272 54 248 -50 l 294 151 q 328 264 307 204 q 381 359 349 323 q 542 435 433 415 q 416 512 441 456 q 404 574 404 537 q 407 608 404 589 q 426 720 414 667 l 448 817 q 460 894 456 852 l 460 907 q 448 957 460 939 q 334 994 423 993 q 316 1002 316 994 l 316 1005 q 328 1022 317 1012 q 347 1028 333 1028 q 525 979 485 1028 q 547 905 547 951 l 547 897 q 534 795 545 844 l 500 652 q 490 572 492 613 q 489 562 489 566 q 503 506 489 527 q 633 456 530 465 q 649 442 649 454 l 647 436 q 640 423 646 428 q 625 416 634 416 z "},"~":{"ha":694,"x_min":118,"x_max":773,"o":"m 767 494 q 663 383 708 418 q 570 346 614 346 q 414 403 493 346 q 326 434 371 434 q 254 414 290 434 q 231 402 244 409 q 201 382 218 395 q 149 333 173 360 q 136 326 142 326 q 124 330 130 326 q 118 340 118 334 q 119 343 118 341 q 127 359 120 350 q 216 459 171 408 q 330 511 260 511 q 489 452 415 511 q 574 420 528 420 q 659 444 614 420 q 741 516 701 465 q 757 524 747 524 q 761 524 759 524 q 772 511 772 522 l 772 509 q 773 507 773 509 q 772 505 773 507 q 767 494 771 500 z "},"":{"ha":373,"x_min":0,"x_max":0,"o":""},"":{"ha":386,"x_min":33,"x_max":382,"o":"m 281 351 l 178 -296 l 177 -301 q 117 -345 167 -345 l 74 -345 q 33 -316 33 -345 q 35 -302 33 -310 l 36 -296 l 233 351 q 253 368 237 368 l 267 368 q 281 357 281 368 q 281 351 281 354 m 279 450 q 216 492 216 450 q 218 509 216 500 l 231 565 q 319 624 245 624 q 382 582 382 624 q 380 565 382 574 l 368 509 q 279 450 354 450 z "},"":{"ha":694,"x_min":145,"x_max":764,"o":"m 572 648 l 574 648 q 764 589 686 648 l 726 475 q 715 466 723 466 l 713 466 q 704 479 707 467 q 652 565 690 537 q 558 591 618 588 l 433 50 q 451 49 442 49 q 595 89 511 49 q 653 111 640 111 q 657 109 656 111 q 658 105 658 107 l 658 102 q 643 77 656 94 q 612 45 627 56 q 519 1 571 14 q 418 -15 467 -13 l 389 -144 l 332 -144 l 361 -14 q 192 65 252 -3 q 145 203 145 119 q 149 254 145 227 q 160 312 154 283 q 181 382 169 349 q 255 502 204 442 q 513 644 357 621 l 539 756 l 596 756 l 572 648 m 500 585 q 412 547 448 575 q 340 463 367 511 q 296 352 311 414 q 289 311 292 332 q 283 249 283 278 q 306 146 283 190 q 380 65 334 90 l 500 585 z "},"":{"ha":694,"x_min":18,"x_max":800,"o":"m 66 73 q 63 52 63 61 q 96 20 63 20 q 157 51 134 20 q 195 111 179 81 q 149 136 176 136 q 66 73 80 136 m 166 532 l 286 532 q 302 629 292 585 q 323 701 311 668 q 394 840 351 781 q 659 979 498 979 q 745 955 706 979 q 797 887 785 931 q 800 861 800 875 q 798 839 800 850 l 797 834 q 770 793 791 810 q 729 775 748 775 q 697 790 712 775 q 685 823 685 801 q 686 833 685 828 q 690 883 688 863 l 690 888 q 642 938 690 930 q 619 939 630 939 q 553 919 582 939 q 479 833 502 882 q 445 732 457 785 q 426 631 433 681 q 412 532 419 581 l 589 532 q 597 525 597 532 l 597 522 l 585 474 q 573 464 583 464 l 400 464 q 391 417 396 441 q 378 370 385 393 q 337 264 361 314 q 290 161 313 214 q 357 135 323 148 q 427 113 391 123 q 500 103 465 103 q 555 110 529 103 q 650 169 610 124 q 669 198 663 183 q 693 213 674 213 q 704 203 704 213 q 703 197 704 201 q 686 155 699 175 q 661 115 673 135 q 557 12 621 51 q 448 -21 501 -21 q 433 -20 440 -21 q 329 20 373 -16 q 287 52 318 28 q 243 87 255 75 q 138 -7 192 29 q 90 -22 114 -22 q 63 -17 77 -22 q 19 31 26 -3 q 18 42 18 36 q 20 61 18 51 q 35 97 24 77 q 82 155 55 136 q 148 180 120 180 l 152 180 q 218 176 180 178 q 237 242 230 210 l 242 262 q 258 347 250 304 q 276 464 267 397 l 151 464 q 142 471 142 464 l 142 474 l 154 522 q 166 532 156 532 z "},"":{"ha":694,"x_min":77,"x_max":768,"o":"m 463 496 q 327 445 390 496 q 248 322 264 394 q 243 281 243 300 q 271 199 243 235 q 382 149 310 149 q 516 199 454 149 q 596 322 579 250 q 601 362 601 343 q 573 446 601 409 q 463 496 534 496 m 477 557 q 608 509 555 557 l 728 607 q 736 611 733 611 q 742 608 740 611 l 766 576 q 768 572 768 574 l 768 570 q 763 563 767 566 l 642 465 q 663 376 663 424 q 657 323 663 351 q 576 181 639 243 l 652 83 q 654 77 654 80 l 654 76 q 650 69 653 73 l 610 38 q 603 35 606 35 q 597 39 600 35 l 522 136 q 368 89 448 89 q 237 136 289 89 l 117 39 q 109 35 113 35 q 103 38 106 35 l 79 69 q 77 75 77 72 l 77 76 q 83 83 78 79 l 203 181 q 182 269 182 221 q 189 323 182 294 q 269 465 207 401 l 194 563 q 191 568 191 566 l 191 570 q 196 576 192 573 l 235 608 q 242 611 239 611 q 249 607 245 611 l 323 509 q 477 557 398 557 z "},"":{"ha":926,"x_min":250,"x_max":1040,"o":"m 494 489 l 359 853 q 318 899 349 876 q 286 915 301 909 q 260 928 270 922 q 251 938 254 932 q 250 943 250 941 l 250 945 l 251 948 q 258 952 252 952 l 488 952 q 500 948 495 952 q 509 938 507 943 q 510 933 510 936 l 510 931 q 503 921 509 926 q 488 908 496 915 q 477 890 480 901 l 476 887 q 475 878 475 882 q 480 857 475 867 l 625 494 q 746 627 683 555 q 862 762 808 699 q 897 814 888 793 l 899 821 q 901 837 901 829 q 895 873 901 852 l 883 920 l 989 962 q 999 964 995 964 q 1013 953 1008 964 l 1038 884 q 1040 869 1040 877 q 1039 858 1040 863 q 1006 811 1034 835 q 906 715 962 772 q 805 606 857 665 q 700 489 753 547 l 885 489 l 873 435 l 654 435 q 634 390 642 416 q 619 339 625 363 l 850 339 l 838 286 l 607 286 l 564 99 q 562 79 562 88 q 585 43 562 52 q 613 18 613 33 q 612 14 613 16 q 595 0 609 0 l 365 0 q 353 9 353 0 q 354 14 353 12 q 395 43 358 31 q 441 99 431 55 q 472 228 469 220 q 485 286 474 237 l 279 286 l 292 339 l 497 339 q 502 362 500 349 q 508 389 505 374 q 513 427 513 412 q 513 435 513 431 l 314 435 l 326 489 l 494 489 z "},"":{"ha":694,"x_min":196,"x_max":553,"o":"m 464 1010 l 553 1010 l 448 551 l 358 551 l 464 1010 m 196 -151 l 302 307 l 391 307 l 286 -151 l 196 -151 z "},"":{"ha":694,"x_min":18,"x_max":812,"o":"m 281 -248 q 385 -220 333 -243 q 476 -152 437 -197 q 532 -39 516 -104 l 533 -32 q 536 1 536 -14 q 505 75 536 47 q 452 103 484 93 q 323 129 390 121 q 201 167 256 136 q 136 244 151 193 q 127 300 127 271 q 134 355 127 327 q 254 544 160 469 q 209 654 209 586 q 216 713 209 681 q 342 905 243 830 q 572 983 445 983 q 591 983 581 983 q 812 913 728 977 l 766 782 q 753 770 762 770 q 749 770 751 770 q 738 788 741 771 q 682 884 724 844 q 581 926 639 924 l 570 926 q 463 905 513 926 q 408 872 432 892 q 370 829 387 855 q 343 781 353 806 q 330 742 334 761 q 326 711 326 726 q 327 698 326 704 q 357 633 330 656 q 404 608 375 616 q 441 600 419 604 q 486 592 463 596 q 558 580 519 586 q 632 563 597 574 q 713 509 690 542 q 737 453 730 486 q 740 419 740 437 q 733 362 740 392 q 614 171 708 252 q 631 153 623 163 q 655 96 648 127 q 658 62 658 80 q 651 5 658 35 q 490 -218 621 -127 q 350 -286 425 -262 q 227 -307 294 -303 q 201 -308 214 -308 q 39 -283 113 -308 l 18 -117 l 18 -111 q 26 -98 20 -104 q 38 -90 31 -90 l 40 -90 q 52 -108 47 -91 q 127 -224 73 -195 q 248 -249 171 -249 q 281 -248 264 -249 m 557 203 l 558 204 q 614 317 598 251 l 616 325 q 619 357 619 342 q 587 433 619 405 q 535 460 565 451 q 426 483 482 475 q 318 508 369 490 q 288 472 301 493 q 260 424 271 450 q 248 385 252 404 q 243 352 243 368 q 244 340 243 346 q 275 276 248 298 q 321 251 292 258 q 404 235 345 245 q 476 222 437 229 q 549 205 515 216 q 553 204 551 205 q 557 203 555 203 z "},"":{"ha":463,"x_min":208,"x_max":652,"o":"m 558 790 q 511 812 526 790 q 499 846 499 826 q 501 864 499 854 q 592 938 518 938 q 640 917 624 938 q 652 882 652 902 q 650 864 652 873 q 616 812 643 833 q 558 790 589 790 m 271 790 q 222 812 239 790 q 208 852 208 831 q 209 864 208 858 q 247 916 215 890 q 304 938 273 938 q 352 917 336 938 q 363 882 363 902 q 361 864 363 873 q 328 812 355 833 q 271 790 301 790 z "},"":{"ha":1039,"x_min":110,"x_max":1152,"o":"m 747 985 q 1072 837 957 985 q 1152 600 1152 733 q 1137 480 1152 543 q 907 123 1089 271 q 515 -24 724 -24 q 191 123 305 -24 q 110 361 110 227 q 124 480 110 418 q 355 837 173 689 q 747 985 538 985 m 735 930 q 385 799 548 930 q 179 480 222 667 q 166 374 166 425 q 238 161 166 254 q 527 30 340 30 q 877 161 714 30 q 1083 480 1040 293 q 1096 587 1096 536 q 1025 799 1096 706 q 735 930 922 930 m 739 765 l 749 765 q 914 714 845 765 l 882 616 q 872 609 880 609 l 870 609 q 863 621 865 609 q 819 694 851 670 q 733 715 787 715 l 720 715 q 612 679 654 712 q 550 606 576 650 q 513 511 526 564 q 507 476 509 494 q 502 422 502 448 q 521 334 502 371 q 623 252 559 262 q 646 250 633 250 q 769 285 697 250 q 819 304 807 304 q 823 302 821 304 q 823 299 823 301 l 823 297 q 810 275 821 289 q 785 248 797 257 q 694 206 744 218 q 604 195 646 195 l 599 195 q 431 256 490 195 q 383 382 383 303 q 387 427 383 404 q 396 478 390 453 q 414 537 403 509 q 477 640 433 588 q 739 765 581 760 z "},"":{"ha":465,"x_min":147,"x_max":621,"o":"m 471 610 l 349 568 q 328 564 335 564 q 311 564 317 564 q 222 611 253 566 q 198 692 198 646 q 200 720 198 705 q 205 750 202 735 q 260 862 221 816 q 305 899 277 880 q 328 910 315 906 q 399 935 363 922 q 469 959 434 947 q 485 962 477 962 q 545 948 512 960 q 565 939 552 945 q 575 937 570 937 q 587 941 581 937 q 613 956 606 956 q 615 955 614 956 q 621 948 621 951 l 621 947 q 610 905 616 922 q 597 864 604 888 q 587 821 594 852 l 543 628 q 542 617 542 622 q 555 597 542 602 q 572 584 572 592 l 572 582 q 562 574 570 574 l 470 574 q 465 578 465 574 l 465 579 l 471 610 m 166 496 l 533 496 q 539 491 539 496 q 538 488 539 490 l 530 452 q 521 444 528 444 l 154 444 q 147 450 147 444 q 148 452 147 451 l 156 488 q 166 496 158 496 m 387 606 q 410 610 397 606 q 477 633 440 621 l 534 886 q 452 928 500 926 q 434 925 443 928 q 402 914 418 920 q 371 903 386 909 q 352 893 361 900 q 303 828 321 867 q 284 773 290 800 q 280 753 282 763 q 277 718 277 734 q 290 658 277 684 q 347 609 309 621 q 376 605 361 605 q 387 606 382 605 z "},"":{"ha":694,"x_min":163,"x_max":778,"o":"m 166 418 q 163 423 163 420 q 164 425 163 424 q 170 434 165 429 q 310 550 222 483 q 461 670 398 617 q 467 672 464 672 q 470 671 468 672 l 491 654 q 492 650 492 652 l 492 649 q 490 646 491 648 l 267 427 l 389 205 q 390 201 390 203 q 385 197 389 199 l 356 180 q 353 178 354 178 q 349 181 350 178 q 257 298 303 238 q 166 418 210 357 m 452 418 q 450 422 450 420 q 450 425 450 423 q 456 434 451 429 q 595 550 507 483 q 747 670 684 617 q 752 673 750 673 q 755 671 754 673 l 777 654 q 778 650 778 652 l 778 649 q 776 646 777 648 l 553 427 l 675 205 l 675 203 q 671 197 675 199 l 642 180 q 638 178 640 178 q 634 181 636 178 q 543 298 589 238 q 452 418 496 357 z "},"":{"ha":694,"x_min":142,"x_max":816,"o":"m 730 231 l 651 231 l 719 526 l 142 526 l 159 602 l 816 602 l 730 231 z "},"":{"ha":454,"x_min":146,"x_max":458,"o":"m 170 277 q 146 291 146 277 q 147 296 146 294 l 160 353 q 193 372 165 372 l 434 372 q 458 358 458 372 q 457 353 458 355 l 444 296 q 412 277 439 277 l 170 277 z "},"":{"ha":1038,"x_min":110,"x_max":1152,"o":"m 680 467 l 806 229 q 833 218 816 220 q 842 211 842 216 l 842 208 q 832 200 840 200 l 726 200 q 668 306 718 200 q 587 467 618 411 l 524 467 l 475 258 q 474 247 474 252 q 488 226 474 231 q 504 211 504 219 l 504 209 q 493 200 502 200 l 358 200 q 351 205 351 200 q 352 209 351 207 q 376 225 354 218 q 404 258 397 233 l 506 701 q 507 712 507 707 q 493 734 507 728 q 477 749 477 741 q 477 751 477 750 q 488 760 479 760 l 723 760 q 805 746 764 760 q 861 689 846 731 q 867 651 867 672 q 862 608 867 631 q 817 527 850 562 q 752 484 791 498 q 680 467 713 469 m 747 985 q 1072 837 957 985 q 1152 600 1152 733 q 1137 480 1152 543 q 907 123 1089 271 q 515 -24 724 -24 q 191 123 305 -24 q 110 361 110 227 q 124 480 110 418 q 355 837 173 689 q 747 985 538 985 m 583 727 l 530 494 l 622 494 q 735 530 689 494 q 785 612 774 561 q 789 640 789 627 q 771 693 789 671 q 684 727 743 727 l 583 727 m 735 930 q 385 799 548 930 q 179 480 222 667 q 166 374 166 425 q 238 161 166 254 q 527 30 340 30 q 877 161 714 30 q 1083 480 1040 293 q 1096 587 1096 536 q 1025 799 1096 706 q 735 930 922 930 z "},"":{"ha":461,"x_min":222,"x_max":658,"o":"m 245 913 l 652 913 q 658 909 658 913 l 658 907 l 644 848 q 635 841 642 841 l 229 841 q 222 846 222 841 q 223 848 222 847 l 237 907 q 245 913 238 913 z "},"":{"ha":555,"x_min":229,"x_max":660,"o":"m 492 941 q 627 880 579 941 q 660 780 660 836 q 654 731 660 757 q 558 583 633 644 q 396 522 483 522 q 262 583 309 522 q 229 681 229 626 q 235 731 229 705 q 330 879 254 818 q 492 941 405 941 m 479 885 q 360 840 416 885 q 291 731 305 794 q 286 694 286 712 q 311 623 286 654 q 409 578 345 578 q 527 623 472 578 q 597 731 583 667 q 602 766 602 749 q 577 840 602 808 q 479 885 543 885 z "},"":{"ha":694,"x_min":135,"x_max":734,"o":"m 262 547 l 451 547 l 495 736 q 519 761 500 761 l 554 761 q 568 747 568 761 q 567 736 568 742 l 523 547 l 712 547 q 734 534 734 547 q 733 529 734 532 l 725 493 q 696 475 721 475 l 507 475 l 463 286 q 439 261 457 261 l 404 261 q 389 276 389 261 q 391 286 389 281 l 435 475 l 245 475 q 224 488 224 475 q 224 493 224 490 l 233 529 q 262 547 237 547 m 173 161 l 623 161 q 645 148 645 161 q 644 143 645 146 l 636 108 q 606 90 631 90 l 156 90 q 135 102 135 90 q 136 108 135 105 l 144 143 q 173 161 148 161 z "},"":{"ha":498,"x_min":144,"x_max":608,"o":"m 144 306 l 152 340 q 189 406 161 378 q 279 487 218 434 q 350 546 314 515 q 418 608 385 578 q 494 699 464 650 q 521 758 515 730 q 524 781 524 770 q 520 804 524 793 q 467 865 507 848 q 416 874 444 874 q 372 869 396 874 q 273 807 317 856 q 247 771 254 788 l 262 834 q 275 855 267 844 q 422 938 334 924 q 458 941 441 941 q 564 911 517 941 q 608 823 608 881 q 604 782 608 804 l 603 779 q 446 565 575 659 q 245 385 314 469 l 406 385 q 518 403 465 385 l 500 324 q 442 307 471 308 q 388 306 413 306 l 144 306 z "},"":{"ha":498,"x_min":155,"x_max":581,"o":"m 397 328 q 268 286 340 293 q 246 285 256 285 q 155 317 189 285 l 172 397 q 246 332 186 348 q 291 326 269 326 q 361 342 327 326 q 439 411 412 366 q 460 460 454 435 q 463 489 463 475 q 463 501 463 495 q 421 579 458 546 q 309 614 385 612 l 311 627 q 387 653 345 636 q 460 707 430 671 q 490 764 484 736 q 493 782 492 773 l 493 789 q 477 844 493 822 q 412 878 455 873 l 403 878 q 317 844 363 878 q 275 791 290 823 l 293 867 q 463 939 376 939 q 579 857 564 937 q 581 837 581 847 q 578 811 581 824 q 492 699 565 754 q 457 674 479 688 q 532 593 515 642 q 541 541 541 567 q 536 502 541 522 q 532 488 534 495 q 397 328 502 393 z "},"":{"ha":463,"x_min":258,"x_max":610,"o":"m 318 762 q 267 744 285 744 q 263 745 265 744 q 258 749 258 745 l 258 750 q 291 784 260 759 l 392 868 q 466 930 412 885 q 539 986 520 976 q 568 994 554 994 q 591 989 580 994 q 610 959 610 980 q 608 945 610 952 q 586 912 603 926 q 553 889 569 898 l 318 762 z "},"":{"ha":899,"x_min":48,"x_max":876,"o":"m 722 510 q 724 528 724 519 q 699 565 724 555 q 671 591 671 576 q 671 595 671 593 q 689 609 675 609 q 770 621 727 610 q 876 650 819 631 l 748 96 q 745 77 745 86 q 770 42 745 50 q 800 18 800 33 q 799 14 800 16 q 781 0 795 0 l 603 0 l 616 59 l 463 4 q 379 -12 419 -12 q 358 -10 368 -12 q 275 16 308 -5 q 208 94 222 50 q 193 15 200 58 l 138 -361 l 138 -362 q 121 -375 135 -375 l 59 -375 q 48 -366 48 -375 q 49 -361 48 -363 l 259 550 q 229 574 247 566 q 213 591 213 581 q 214 595 213 593 q 231 609 217 609 q 313 621 272 611 q 362 634 338 626 q 413 650 387 642 l 330 288 q 318 196 318 237 q 340 101 318 139 q 439 45 373 45 q 519 60 474 45 l 626 97 l 722 510 z "},"":{"ha":859,"x_min":233,"x_max":1035,"o":"m 669 907 l 422 -159 l 599 -159 l 845 907 l 669 907 m 484 541 q 416 530 448 530 q 288 592 332 530 q 256 690 256 635 q 262 741 256 714 q 356 890 283 828 q 513 952 429 951 l 1021 952 q 1035 941 1035 952 q 1034 935 1035 939 q 985 899 1029 914 q 928 831 940 884 l 717 -83 q 714 -106 714 -96 q 743 -151 714 -139 q 777 -182 777 -164 q 776 -186 777 -184 q 754 -203 772 -203 l 247 -203 q 233 -192 233 -203 q 233 -186 233 -190 q 283 -151 238 -165 q 340 -83 328 -136 l 484 541 z "},"":{"ha":347,"x_min":184,"x_max":355,"o":"m 251 336 q 198 361 216 336 q 184 399 184 377 q 187 419 184 409 q 224 477 195 453 q 289 502 254 502 q 342 477 323 502 q 355 438 355 460 q 353 419 355 429 q 315 360 345 385 q 251 336 286 336 z "},"":{"ha":686,"x_min":155,"x_max":357,"o":"m 260 -3 l 299 -3 q 288 -31 291 -18 q 286 -43 286 -37 q 294 -67 286 -57 q 335 -113 313 -90 q 357 -169 357 -136 q 354 -196 357 -182 l 353 -202 q 255 -264 337 -258 l 245 -264 q 155 -245 205 -264 l 156 -199 q 214 -222 184 -222 q 261 -208 237 -222 q 289 -175 285 -195 q 290 -165 290 -170 q 269 -116 290 -144 q 240 -67 251 -96 q 237 -53 237 -60 q 239 -41 237 -47 q 260 -3 243 -24 z "},"":{"ha":453,"x_min":220,"x_max":488,"o":"m 228 306 q 220 312 220 306 q 221 315 220 313 q 247 333 224 326 q 277 370 271 341 l 389 853 l 300 853 l 305 874 q 404 916 309 892 q 450 928 427 922 q 488 938 473 934 l 357 370 q 355 357 355 362 q 370 334 355 339 q 387 317 387 326 l 387 315 q 376 306 385 306 l 228 306 z "},"":{"ha":463,"x_min":146,"x_max":616,"o":"m 453 969 q 584 907 538 969 q 616 810 616 865 q 610 759 616 785 q 515 610 590 671 q 356 548 441 548 q 224 610 271 548 q 192 709 192 653 q 198 759 192 732 q 293 907 218 846 q 453 969 368 969 m 167 495 l 522 495 q 528 490 528 495 q 528 487 528 488 l 518 448 q 508 439 516 439 l 153 439 q 146 444 146 439 q 147 448 146 446 l 157 487 q 167 495 159 495 m 437 939 q 338 886 385 939 q 282 774 297 839 q 279 759 280 767 q 274 711 274 734 q 293 631 274 666 q 373 578 320 578 q 471 631 425 578 q 528 743 513 678 q 531 759 530 751 q 536 806 536 783 q 517 886 536 851 q 437 939 490 939 z "},"":{"ha":694,"x_min":113,"x_max":728,"o":"m 722 418 q 575 298 650 357 q 431 181 501 238 q 425 178 427 178 q 422 180 423 178 l 401 197 q 399 201 399 199 l 399 201 q 401 205 399 203 l 625 427 l 503 646 q 503 648 503 647 l 503 649 q 507 654 503 651 l 536 671 q 539 672 537 672 q 543 670 541 672 q 638 550 582 617 q 726 434 695 483 q 728 427 728 430 l 728 425 q 722 418 726 421 m 436 418 q 290 298 364 357 q 145 181 216 238 q 140 178 142 178 q 136 180 138 178 l 115 197 q 113 201 113 199 l 113 202 q 115 205 113 203 l 340 427 l 218 646 q 217 648 217 647 l 217 649 q 221 654 218 651 l 250 671 q 254 673 252 673 q 258 670 256 673 q 353 550 296 617 q 440 434 410 483 q 441 427 441 430 l 441 425 q 436 418 440 420 z "},"":{"ha":916,"x_min":14,"x_max":1091,"o":"m 1016 949 l 1091 949 l 90 0 l 14 0 l 1016 949 m 911 450 l 848 178 l 912 178 l 902 132 l 838 132 l 821 58 q 821 52 821 55 q 846 26 821 34 q 873 8 873 16 l 873 7 q 865 0 872 0 l 688 0 q 683 5 683 0 l 683 7 q 720 25 685 16 q 760 57 755 35 l 778 132 l 594 132 l 603 170 l 851 450 l 911 450 m 789 178 l 841 399 l 840 399 l 648 181 l 647 178 l 789 178 m 485 949 l 393 552 q 393 545 393 549 q 418 519 393 528 q 445 502 445 510 l 445 500 q 436 493 444 493 l 260 493 q 254 498 254 493 l 254 500 q 291 519 256 509 q 330 551 325 529 l 406 877 l 406 880 q 368 899 406 895 q 340 905 340 901 q 349 915 342 913 l 485 949 z "},"":{"ha":890,"x_min":13,"x_max":1061,"o":"m 485 949 l 393 552 q 393 545 393 549 q 418 519 393 528 q 445 502 445 510 l 445 500 q 436 493 444 493 l 260 493 q 254 498 254 493 l 254 500 q 291 519 256 509 q 330 551 325 529 l 406 877 l 406 880 q 368 899 406 895 q 340 905 340 901 q 349 915 342 913 l 485 949 m 987 924 l 1061 924 l 87 0 l 13 0 l 987 924 m 587 4 l 593 27 q 621 75 600 55 q 685 134 642 96 q 785 221 731 171 q 839 286 817 250 q 861 334 855 312 q 863 351 863 342 q 820 405 863 388 q 777 413 798 413 q 680 363 726 413 q 662 338 666 347 l 672 380 l 671 381 q 682 397 672 381 q 788 457 723 447 q 813 459 801 459 q 889 437 855 459 q 921 374 921 416 q 918 345 921 361 l 917 344 q 804 190 897 258 q 661 60 709 121 l 777 60 q 856 74 818 60 l 843 17 q 802 5 823 5 q 763 4 781 4 l 587 4 z "},"":{"ha":890,"x_min":13,"x_max":1061,"o":"m 987 924 l 1061 924 l 87 0 l 13 0 l 987 924 m 382 498 q 288 468 341 473 q 273 467 280 467 q 206 491 231 467 l 218 548 q 273 501 229 513 q 304 497 288 497 q 356 509 331 497 q 413 559 393 526 q 427 594 423 576 q 430 615 430 605 q 429 624 430 620 q 400 681 427 656 q 319 707 373 705 l 321 715 q 375 735 344 722 q 429 774 407 748 q 453 820 448 798 q 455 835 455 827 q 441 874 455 855 q 393 899 425 895 q 386 899 389 899 q 323 873 357 899 q 294 836 304 858 l 307 890 q 431 943 367 943 q 515 883 503 941 q 516 869 516 876 q 513 850 516 859 q 452 768 504 808 q 439 759 446 764 q 427 750 433 754 q 488 657 488 715 q 484 628 488 644 q 480 615 483 622 q 382 498 458 546 m 886 437 l 825 173 l 888 173 l 878 129 l 815 129 l 798 56 q 798 50 798 53 q 823 24 798 33 q 849 8 849 16 l 849 7 q 841 0 848 0 l 669 0 q 664 5 664 0 l 664 7 q 700 24 666 15 q 739 56 734 33 l 756 129 l 578 129 l 586 165 l 827 437 l 886 437 m 768 173 l 817 388 l 816 388 l 630 176 l 629 173 l 768 173 z "},"":{"ha":543,"x_min":14,"x_max":456,"o":"m 340 268 l 317 155 q 311 109 311 128 q 314 86 311 96 q 354 39 320 64 q 364 31 358 35 q 378 22 370 27 q 453 -110 453 -31 q 448 -153 453 -130 q 359 -288 428 -239 q 189 -338 290 -338 q 45 -287 90 -338 q 14 -199 14 -252 q 20 -149 14 -175 q 37 -120 24 -129 q 72 -112 49 -112 q 104 -120 94 -112 q 112 -138 112 -127 q 111 -143 112 -140 q 105 -210 105 -182 q 114 -263 105 -245 q 182 -296 131 -296 q 279 -260 241 -296 q 334 -153 317 -225 q 340 -98 340 -123 q 330 -38 340 -65 q 242 66 310 9 l 289 267 q 308 320 297 301 q 330 339 319 339 q 346 322 343 339 l 346 315 q 340 268 346 297 m 340 423 q 299 456 299 423 q 301 473 299 464 l 311 516 q 373 566 323 566 l 416 566 q 456 533 456 566 q 454 516 456 526 l 444 473 q 382 423 433 423 l 340 423 z "},"":{"ha":1080,"x_min":37,"x_max":1051,"o":"m 791 968 q 830 772 807 888 q 878 533 853 656 q 926 294 903 410 q 966 99 949 178 q 995 54 970 74 q 1022 37 1008 43 q 1044 24 1036 30 q 1050 14 1049 19 q 1051 12 1051 13 q 1050 9 1051 10 q 1048 4 1050 7 q 1039 0 1045 0 l 810 0 q 798 4 804 0 q 793 14 793 9 q 792 18 792 16 q 804 31 793 24 q 821 44 811 37 q 838 62 831 51 q 843 75 842 68 q 844 88 844 81 q 844 100 844 94 l 797 332 l 401 332 q 326 215 363 273 q 251 100 289 157 q 239 75 241 86 q 235 66 237 71 q 235 57 235 61 l 235 53 q 238 38 235 44 q 242 26 241 33 q 241 19 241 21 q 239 14 241 17 q 220 0 231 0 l 45 0 q 37 4 39 0 q 37 5 37 5 q 37 7 37 6 q 39 14 37 9 q 66 32 45 23 q 91 42 77 37 q 118 56 104 48 q 165 99 147 74 l 749 968 l 791 968 m 885 1072 l 709 1199 q 687 1222 697 1208 q 679 1245 679 1232 q 680 1255 679 1250 q 718 1299 688 1288 q 742 1304 730 1304 q 768 1296 756 1304 q 815 1240 782 1286 q 861 1178 848 1195 l 922 1094 q 939 1062 939 1072 l 939 1060 q 932 1055 937 1055 q 928 1054 930 1054 q 885 1072 910 1054 m 786 387 l 704 800 q 570 593 637 696 q 437 387 503 490 l 786 387 z "},"":{"ha":1080,"x_min":37,"x_max":1051,"o":"m 791 968 q 830 772 807 888 q 878 533 853 656 q 926 294 903 410 q 966 99 949 178 q 995 54 970 74 q 1022 37 1008 43 q 1044 24 1036 30 q 1050 14 1049 19 q 1051 12 1051 13 q 1050 9 1051 10 q 1048 4 1050 7 q 1039 0 1045 0 l 810 0 q 798 4 804 0 q 793 14 793 9 q 792 18 792 16 q 804 31 793 24 q 821 44 811 37 q 838 62 831 51 q 843 75 842 68 q 844 88 844 81 q 844 100 844 94 l 797 332 l 401 332 q 326 215 363 273 q 251 100 289 157 q 239 75 241 86 q 235 66 237 71 q 235 57 235 61 l 235 53 q 238 38 235 44 q 242 26 241 33 q 241 19 241 21 q 239 14 241 17 q 220 0 231 0 l 45 0 q 37 4 39 0 q 37 5 37 5 q 37 7 37 6 q 39 14 37 9 q 66 32 45 23 q 91 42 77 37 q 118 56 104 48 q 165 99 147 74 l 749 968 l 791 968 m 693 1072 q 642 1054 660 1054 q 638 1055 640 1054 q 633 1059 633 1055 l 633 1060 q 665 1094 635 1069 l 766 1178 q 841 1240 787 1195 q 913 1296 895 1286 q 943 1304 929 1304 q 966 1299 955 1304 q 984 1270 984 1291 q 982 1255 984 1263 q 961 1222 978 1236 q 927 1199 943 1208 l 693 1072 m 786 387 l 704 800 q 570 593 637 696 q 437 387 503 490 l 786 387 z "},"":{"ha":1080,"x_min":37,"x_max":1051,"o":"m 791 968 q 830 772 807 888 q 878 533 853 656 q 926 294 903 410 q 966 99 949 178 q 995 54 970 74 q 1022 37 1008 43 q 1044 24 1036 30 q 1050 14 1049 19 q 1051 12 1051 13 q 1050 9 1051 10 q 1048 4 1050 7 q 1039 0 1045 0 l 810 0 q 798 4 804 0 q 793 14 793 9 q 792 18 792 16 q 804 31 793 24 q 821 44 811 37 q 838 62 831 51 q 843 75 842 68 q 844 88 844 81 q 844 100 844 94 l 797 332 l 401 332 q 326 215 363 273 q 251 100 289 157 q 239 75 241 86 q 235 66 237 71 q 235 57 235 61 l 235 53 q 238 38 235 44 q 242 26 241 33 q 241 19 241 21 q 239 14 241 17 q 220 0 231 0 l 45 0 q 37 4 39 0 q 37 5 37 5 q 37 7 37 6 q 39 14 37 9 q 66 32 45 23 q 91 42 77 37 q 118 56 104 48 q 165 99 147 74 l 749 968 l 791 968 m 600 1055 l 810 1291 l 888 1291 l 990 1055 l 951 1055 l 828 1196 l 639 1055 l 600 1055 m 786 387 l 704 800 q 570 593 637 696 q 437 387 503 490 l 786 387 z "},"":{"ha":1080,"x_min":37,"x_max":1051,"o":"m 791 968 q 830 772 807 888 q 878 533 853 656 q 926 294 903 410 q 966 99 949 178 q 995 54 970 74 q 1022 37 1008 43 q 1044 24 1036 30 q 1050 14 1049 19 q 1051 12 1051 13 q 1050 9 1051 10 q 1048 4 1050 7 q 1039 0 1045 0 l 810 0 q 798 4 804 0 q 793 14 793 9 q 792 18 792 16 q 804 31 793 24 q 821 44 811 37 q 838 62 831 51 q 843 75 842 68 q 844 88 844 81 q 844 100 844 94 l 797 332 l 401 332 q 326 215 363 273 q 251 100 289 157 q 239 75 241 86 q 235 66 237 71 q 235 57 235 61 l 235 53 q 238 38 235 44 q 242 26 241 33 q 241 19 241 21 q 239 14 241 17 q 220 0 231 0 l 45 0 q 37 4 39 0 q 37 5 37 5 q 37 7 37 6 q 39 14 37 9 q 66 32 45 23 q 91 42 77 37 q 118 56 104 48 q 165 99 147 74 l 749 968 l 791 968 m 1038 1227 q 958 1116 991 1150 q 889 1079 920 1079 q 786 1136 836 1079 q 726 1167 757 1167 q 674 1147 701 1167 q 657 1135 667 1142 q 635 1116 648 1128 q 595 1066 612 1092 q 585 1059 590 1059 q 577 1063 581 1059 q 574 1073 574 1067 l 574 1076 q 582 1092 576 1083 q 650 1192 615 1141 q 734 1244 685 1244 q 840 1185 793 1244 q 898 1153 865 1153 q 959 1177 926 1153 q 1021 1249 990 1198 q 1033 1257 1027 1257 q 1036 1257 1034 1257 q 1043 1244 1043 1255 l 1043 1242 l 1042 1239 q 1038 1227 1041 1234 m 786 387 l 704 800 q 570 593 637 696 q 437 387 503 490 l 786 387 z "},"":{"ha":1080,"x_min":37,"x_max":1051,"o":"m 791 968 q 830 772 807 888 q 878 533 853 656 q 926 294 903 410 q 966 99 949 178 q 995 54 970 74 q 1022 37 1008 43 q 1044 24 1036 30 q 1050 14 1049 19 q 1051 12 1051 13 q 1050 9 1051 10 q 1048 4 1050 7 q 1039 0 1045 0 l 810 0 q 798 4 804 0 q 793 14 793 9 q 792 18 792 16 q 804 31 793 24 q 821 44 811 37 q 838 62 831 51 q 843 75 842 68 q 844 88 844 81 q 844 100 844 94 l 797 332 l 401 332 q 326 215 363 273 q 251 100 289 157 q 239 75 241 86 q 235 66 237 71 q 235 57 235 61 l 235 53 q 238 38 235 44 q 242 26 241 33 q 241 19 241 21 q 239 14 241 17 q 220 0 231 0 l 45 0 q 37 4 39 0 q 37 5 37 5 q 37 7 37 6 q 39 14 37 9 q 66 32 45 23 q 91 42 77 37 q 118 56 104 48 q 165 99 147 74 l 749 968 l 791 968 m 871 1158 q 902 1205 878 1185 q 954 1226 926 1226 q 1007 1184 998 1226 q 1008 1171 1008 1177 q 1006 1154 1008 1162 q 976 1109 1001 1130 q 923 1090 951 1090 q 922 1089 922 1089 q 880 1109 894 1089 q 869 1141 869 1122 q 871 1158 869 1149 m 631 1158 q 688 1221 642 1203 q 716 1227 703 1227 q 757 1206 741 1227 q 769 1172 769 1190 q 768 1160 769 1166 q 755 1132 764 1146 q 683 1090 728 1090 q 629 1135 629 1090 q 631 1158 629 1145 m 786 387 l 704 800 q 570 593 637 696 q 437 387 503 490 l 786 387 z "},"":{"ha":1080,"x_min":37,"x_max":1051,"o":"m 791 968 q 830 772 807 888 q 878 533 853 656 q 926 294 903 410 q 966 99 949 178 q 995 54 970 74 q 1022 37 1008 43 q 1044 24 1036 30 q 1050 14 1049 19 q 1051 12 1051 13 q 1050 9 1051 10 q 1048 4 1050 7 q 1039 0 1045 0 l 810 0 q 798 4 804 0 q 793 14 793 9 q 792 18 792 16 q 804 31 793 24 q 821 44 811 37 q 838 62 831 51 q 843 75 842 68 q 844 88 844 81 q 844 100 844 94 l 797 332 l 401 332 q 326 215 363 273 q 251 100 289 157 q 239 75 241 86 q 235 66 237 71 q 235 57 235 61 l 235 53 q 238 38 235 44 q 242 26 241 33 q 241 19 241 21 q 239 14 241 17 q 220 0 231 0 l 45 0 q 37 4 39 0 q 37 5 37 5 q 37 7 37 6 q 39 14 37 9 q 66 32 45 23 q 91 42 77 37 q 118 56 104 48 q 165 99 147 74 l 749 968 l 791 968 m 842 1302 q 926 1262 897 1302 q 947 1198 947 1234 q 943 1166 947 1183 q 882 1071 930 1110 q 780 1031 834 1031 q 695 1071 725 1031 q 674 1134 674 1099 q 678 1166 674 1149 q 739 1262 691 1222 q 842 1302 787 1302 m 833 1283 q 768 1249 798 1283 q 733 1177 743 1219 l 730 1166 q 728 1136 728 1150 q 739 1084 728 1107 q 791 1050 757 1050 q 854 1084 824 1050 q 890 1158 881 1116 l 892 1166 q 895 1196 895 1182 q 884 1249 895 1225 q 833 1283 866 1283 m 786 387 l 704 800 q 570 593 637 696 q 437 387 503 490 l 786 387 z "},"":{"ha":1311,"x_min":-62,"x_max":1411,"o":"m 753 64 l 1044 64 q 1161 112 1106 64 q 1244 188 1216 161 q 1267 203 1260 203 q 1278 193 1278 203 q 1278 189 1278 191 q 1273 174 1276 180 l 1183 0 l 560 0 q 551 9 551 0 q 551 14 551 11 q 592 43 555 31 q 639 99 629 55 l 692 332 l 350 332 q 258 215 304 273 q 165 100 212 157 q 150 75 157 89 q 143 60 145 68 q 142 53 142 56 l 142 49 q 144 39 142 43 q 146 26 146 33 l 146 22 q 144 19 145 21 q 142 16 143 18 q 141 14 141 15 q 121 0 130 0 l -54 0 q -62 4 -61 0 l -61 7 q -58 14 -61 10 q -28 32 -51 22 q -2 42 -16 37 q 26 56 12 48 q 79 99 58 74 l 741 906 q 696 919 716 912 q 678 935 678 925 l 678 938 q 696 952 682 952 l 1411 952 l 1371 778 q 1354 764 1368 764 q 1335 791 1347 764 q 1293 863 1312 838 q 1234 889 1274 889 l 944 889 l 859 521 l 1014 521 q 1079 556 1057 521 q 1118 591 1101 591 q 1129 582 1129 591 q 1128 576 1129 579 l 1089 404 q 1072 390 1086 390 q 1047 425 1055 390 q 996 459 1039 459 l 844 459 l 753 64 m 707 387 l 824 899 l 804 899 q 599 643 722 795 q 394 387 475 490 l 707 387 z "},"":{"ha":949,"x_min":139,"x_max":1115,"o":"m 373 -8 l 412 -8 q 401 -36 404 -23 q 399 -49 399 -43 q 408 -72 399 -62 q 448 -117 426 -94 q 471 -175 471 -141 q 467 -201 471 -187 l 466 -207 q 368 -269 450 -262 l 358 -269 q 269 -250 319 -269 l 269 -204 q 327 -227 297 -227 q 374 -213 350 -227 q 402 -180 397 -199 q 403 -171 403 -176 q 381 -121 403 -149 q 353 -72 364 -100 q 350 -56 350 -65 q 351 -46 350 -52 q 373 -8 355 -28 m 569 -25 q 231 108 361 -25 q 139 346 139 201 q 155 475 139 406 q 396 842 208 704 q 802 980 585 980 q 963 963 880 980 q 1115 895 1047 945 l 1065 752 q 1049 740 1060 740 l 1047 740 q 1034 759 1039 741 q 953 884 1011 853 q 787 916 895 916 q 493 810 635 916 q 298 475 351 705 q 288 387 288 431 q 342 190 288 286 q 585 44 420 52 q 616 43 602 43 q 766 70 703 43 q 903 195 838 101 q 926 214 917 213 l 929 214 q 939 203 939 214 l 939 202 l 937 186 l 840 21 q 699 -16 768 -6 q 569 -25 629 -25 z "},"":{"ha":848,"x_min":108,"x_max":968,"o":"m 311 64 l 600 64 q 718 112 663 64 q 802 188 773 161 q 824 203 817 203 q 836 193 836 203 q 835 189 836 191 q 830 174 833 180 l 741 0 l 117 0 q 108 9 108 0 q 109 14 108 11 q 149 43 113 31 q 196 99 186 55 l 370 852 q 372 872 372 863 q 349 909 372 899 q 321 934 321 919 q 321 938 321 936 q 339 952 325 952 l 968 952 l 928 778 q 911 764 925 764 q 892 791 904 764 q 850 863 869 838 q 791 889 831 889 l 501 889 l 416 521 l 571 521 q 636 556 614 521 q 675 591 658 591 q 686 582 686 591 q 686 576 686 579 l 646 404 q 629 390 643 390 q 604 425 612 390 q 553 459 596 459 l 401 459 l 311 64 m 792 1072 l 616 1199 q 593 1222 604 1208 q 585 1245 585 1232 q 587 1255 585 1250 q 624 1299 594 1288 q 648 1304 637 1304 q 674 1296 663 1304 q 722 1240 688 1286 q 768 1178 755 1195 l 829 1094 q 846 1061 846 1072 l 846 1059 q 838 1055 844 1055 q 834 1054 836 1054 q 792 1072 817 1054 z "},"":{"ha":848,"x_min":108,"x_max":968,"o":"m 311 64 l 600 64 q 718 112 663 64 q 802 188 773 161 q 824 203 817 203 q 836 193 836 203 q 835 189 836 191 q 830 174 833 180 l 741 0 l 117 0 q 108 9 108 0 q 109 14 108 11 q 149 43 113 31 q 196 99 186 55 l 370 852 q 372 872 372 863 q 349 909 372 899 q 321 934 321 919 q 321 938 321 936 q 339 952 325 952 l 968 952 l 928 778 q 911 764 925 764 q 892 791 904 764 q 850 863 869 838 q 791 889 831 889 l 501 889 l 416 521 l 571 521 q 636 556 614 521 q 675 591 658 591 q 686 582 686 591 q 686 576 686 579 l 646 404 q 629 390 643 390 q 604 425 612 390 q 553 459 596 459 l 401 459 l 311 64 m 600 1072 q 549 1054 566 1054 q 545 1055 547 1054 q 541 1058 541 1055 l 541 1059 q 572 1094 543 1069 l 673 1178 q 747 1240 693 1195 q 820 1296 802 1286 q 850 1304 836 1304 q 872 1299 861 1304 q 891 1270 891 1291 q 889 1255 891 1263 q 867 1222 885 1236 q 833 1199 850 1208 l 600 1072 z "},"":{"ha":848,"x_min":108,"x_max":968,"o":"m 311 64 l 600 64 q 718 112 663 64 q 802 188 773 161 q 824 203 817 203 q 836 193 836 203 q 835 189 836 191 q 830 174 833 180 l 741 0 l 117 0 q 108 9 108 0 q 109 14 108 11 q 149 43 113 31 q 196 99 186 55 l 370 852 q 372 872 372 863 q 349 909 372 899 q 321 934 321 919 q 321 938 321 936 q 339 952 325 952 l 968 952 l 928 778 q 911 764 925 764 q 892 791 904 764 q 850 863 869 838 q 791 889 831 889 l 501 889 l 416 521 l 571 521 q 636 556 614 521 q 675 591 658 591 q 686 582 686 591 q 686 576 686 579 l 646 404 q 629 390 643 390 q 604 425 612 390 q 553 459 596 459 l 401 459 l 311 64 m 496 1055 l 707 1291 l 785 1291 l 886 1055 l 848 1055 l 724 1196 l 536 1055 l 496 1055 z "},"":{"ha":848,"x_min":108,"x_max":968,"o":"m 311 64 l 600 64 q 718 112 663 64 q 802 188 773 161 q 824 203 817 203 q 836 193 836 203 q 835 189 836 191 q 830 174 833 180 l 741 0 l 117 0 q 108 9 108 0 q 109 14 108 11 q 149 43 113 31 q 196 99 186 55 l 370 852 q 372 872 372 863 q 349 909 372 899 q 321 934 321 919 q 321 938 321 936 q 339 952 325 952 l 968 952 l 928 778 q 911 764 925 764 q 892 791 904 764 q 850 863 869 838 q 791 889 831 889 l 501 889 l 416 521 l 571 521 q 636 556 614 521 q 675 591 658 591 q 686 582 686 591 q 686 576 686 579 l 646 404 q 629 390 643 390 q 604 425 612 390 q 553 459 596 459 l 401 459 l 311 64 m 768 1158 q 798 1205 774 1185 q 850 1226 823 1226 q 903 1184 895 1226 q 905 1171 905 1177 q 903 1154 905 1162 q 873 1109 897 1130 q 819 1086 843 1086 q 776 1109 794 1086 q 766 1141 766 1122 q 768 1158 766 1149 m 528 1158 q 584 1221 538 1203 q 613 1227 600 1227 q 654 1206 638 1227 q 666 1172 666 1190 q 665 1160 666 1166 q 652 1132 661 1146 q 579 1090 625 1090 q 525 1135 525 1090 q 528 1158 525 1145 z "},"":{"ha":468,"x_min":108,"x_max":631,"o":"m 492 852 l 318 100 q 315 79 315 89 q 339 43 315 52 q 367 18 367 33 q 366 14 367 16 q 349 0 363 0 l 119 0 q 108 9 108 0 q 109 14 108 12 q 149 43 113 31 q 196 99 186 55 l 370 852 q 372 872 372 863 q 349 909 372 899 q 321 934 321 919 q 321 938 321 936 q 339 952 325 952 l 568 952 q 580 943 580 952 q 579 938 580 941 q 538 908 575 920 q 492 852 502 897 m 578 1072 l 402 1199 q 379 1222 390 1208 q 371 1245 371 1232 q 372 1255 371 1250 q 410 1299 380 1288 q 434 1304 422 1304 q 460 1296 448 1304 q 507 1240 474 1286 q 553 1178 541 1195 l 614 1094 q 631 1061 631 1072 l 631 1059 q 624 1055 630 1055 q 620 1054 622 1054 q 578 1072 603 1054 z "},"":{"ha":468,"x_min":108,"x_max":677,"o":"m 492 852 l 318 100 q 315 79 315 89 q 339 43 315 52 q 367 18 367 33 q 366 14 367 16 q 349 0 363 0 l 119 0 q 108 9 108 0 q 109 14 108 12 q 149 43 113 31 q 196 99 186 55 l 370 852 q 372 872 372 863 q 349 909 372 899 q 321 934 321 919 q 321 938 321 936 q 339 952 325 952 l 568 952 q 580 943 580 952 q 579 938 580 941 q 538 908 575 920 q 492 852 502 897 m 385 1072 q 334 1054 352 1054 q 331 1055 332 1054 q 326 1059 326 1055 l 326 1060 q 357 1094 328 1069 l 458 1178 q 533 1240 479 1195 q 606 1296 587 1286 q 636 1304 621 1304 q 658 1299 647 1304 q 677 1270 677 1291 q 675 1255 677 1263 q 653 1222 671 1236 q 619 1199 635 1208 l 385 1072 z "},"":{"ha":468,"x_min":108,"x_max":672,"o":"m 492 852 l 318 100 q 315 79 315 89 q 339 43 315 52 q 367 18 367 33 q 366 14 367 16 q 349 0 363 0 l 119 0 q 108 9 108 0 q 109 14 108 12 q 149 43 113 31 q 196 99 186 55 l 370 852 q 372 872 372 863 q 349 909 372 899 q 321 934 321 919 q 321 938 321 936 q 339 952 325 952 l 568 952 q 580 943 580 952 q 579 938 580 941 q 538 908 575 920 q 492 852 502 897 m 283 1055 l 492 1291 l 571 1291 l 672 1055 l 633 1055 l 510 1196 l 321 1055 l 283 1055 z "},"":{"ha":468,"x_min":108,"x_max":690,"o":"m 492 852 l 318 100 q 315 79 315 89 q 339 43 315 52 q 367 18 367 33 q 366 14 367 16 q 349 0 363 0 l 119 0 q 108 9 108 0 q 109 14 108 12 q 149 43 113 31 q 196 99 186 55 l 370 852 q 372 872 372 863 q 349 909 372 899 q 321 934 321 919 q 321 938 321 936 q 339 952 325 952 l 568 952 q 580 943 580 952 q 579 938 580 941 q 538 908 575 920 q 492 852 502 897 m 553 1158 q 584 1205 559 1185 q 636 1226 608 1226 q 689 1184 681 1226 q 690 1171 690 1177 q 688 1155 690 1162 q 658 1109 683 1130 q 604 1086 629 1086 q 562 1109 581 1086 q 551 1141 551 1122 q 553 1158 551 1149 m 313 1158 q 370 1221 324 1203 q 399 1227 385 1227 q 439 1206 424 1227 q 452 1172 452 1190 q 450 1160 452 1166 q 437 1132 447 1146 q 365 1090 411 1090 q 311 1135 311 1090 q 313 1158 311 1145 z "},"":{"ha":1075,"x_min":75,"x_max":1151,"o":"m 1141 536 q 1133 493 1137 514 q 1044 291 1107 380 q 864 115 970 184 q 466 -5 685 -2 l 412 -5 q 338 -4 372 -5 l 259 -4 q 174 -2 203 -4 l 157 -2 q 86 -6 130 -2 q 75 3 75 -6 q 75 9 75 6 q 116 38 79 26 q 163 94 153 50 l 248 465 l 138 465 q 127 473 127 465 q 127 477 127 475 l 134 504 q 151 517 136 517 l 260 517 l 338 856 q 341 876 341 867 q 317 911 341 902 q 290 937 290 922 q 290 941 290 939 q 308 955 294 955 q 366 954 336 954 q 424 955 394 954 q 538 958 483 957 l 578 958 q 786 953 682 958 q 998 903 909 945 q 1124 776 1082 861 q 1151 642 1151 722 q 1141 536 1151 593 m 391 517 l 605 517 q 616 508 616 517 q 616 504 616 506 l 610 477 q 593 465 606 465 l 379 465 l 290 67 q 447 51 372 51 q 699 104 584 51 q 884 258 806 155 q 990 499 956 353 l 996 522 q 1008 629 1008 581 q 999 706 1008 671 q 930 825 979 780 q 736 901 858 890 q 650 905 694 905 q 476 890 567 905 l 391 517 z "},"":{"ha":1115,"x_min":94,"x_max":1279,"o":"m 960 138 l 1125 852 q 1128 872 1128 863 q 1105 908 1128 899 q 1077 934 1077 919 q 1078 938 1077 936 q 1095 952 1081 952 l 1267 952 q 1279 943 1279 952 q 1278 938 1279 941 q 1238 908 1274 920 q 1191 852 1201 896 l 987 -29 l 873 0 l 410 806 l 247 99 q 244 79 244 88 q 268 43 244 52 q 296 18 296 33 q 295 14 296 16 q 277 0 292 0 l 105 0 q 94 9 94 0 q 94 14 94 12 q 135 43 98 31 q 182 99 172 55 l 355 852 q 358 872 358 863 q 334 908 358 899 q 307 934 307 919 q 307 938 307 936 q 325 952 311 952 l 499 952 l 960 138 m 1073 1227 q 992 1116 1026 1150 q 924 1079 955 1079 q 821 1136 871 1079 q 760 1167 791 1167 q 709 1147 736 1167 q 692 1135 702 1142 q 671 1116 682 1128 q 629 1066 648 1094 q 619 1059 625 1059 q 612 1063 616 1059 q 608 1073 608 1067 l 608 1076 q 616 1092 610 1083 q 685 1192 650 1141 q 768 1244 720 1244 q 876 1185 828 1244 q 932 1153 901 1153 q 994 1177 960 1153 q 1056 1249 1025 1198 q 1068 1257 1061 1257 q 1071 1257 1069 1257 q 1078 1244 1078 1255 l 1078 1242 l 1078 1239 q 1073 1227 1076 1233 z "},"":{"ha":1092,"x_min":123,"x_max":1198,"o":"m 761 921 q 439 790 552 920 q 284 476 326 659 q 269 349 269 409 q 316 163 269 245 q 555 31 389 33 l 559 31 q 857 170 721 31 q 1030 472 991 307 l 1031 476 q 1046 609 1046 545 q 1014 783 1046 701 q 761 921 959 921 m 892 1072 l 717 1199 q 694 1222 705 1208 q 686 1245 686 1232 q 687 1255 686 1250 q 724 1299 694 1288 q 749 1304 737 1304 q 774 1296 763 1304 q 822 1240 789 1286 q 868 1178 855 1195 l 929 1094 q 946 1061 946 1072 l 946 1059 q 939 1055 945 1055 q 935 1054 937 1054 q 892 1072 918 1054 m 774 981 l 781 981 q 1120 846 1000 981 q 1198 631 1198 758 q 1183 515 1198 577 q 1174 478 1179 497 q 928 116 1105 245 q 541 -24 751 -12 q 510 -24 526 -24 q 206 106 321 -24 q 123 334 123 199 q 137 454 123 391 q 144 478 140 466 q 377 844 205 709 q 774 981 550 978 z "},"":{"ha":1092,"x_min":123,"x_max":1198,"o":"m 761 921 q 439 790 552 920 q 284 476 326 659 q 269 349 269 409 q 316 163 269 245 q 555 31 389 33 l 559 31 q 857 170 721 31 q 1030 472 991 307 l 1031 476 q 1046 609 1046 545 q 1014 783 1046 701 q 761 921 959 921 m 700 1072 q 649 1054 667 1054 q 646 1055 647 1054 q 641 1058 641 1055 l 641 1059 q 673 1094 643 1069 l 773 1178 q 848 1240 793 1195 q 921 1296 902 1286 q 951 1304 937 1304 q 973 1299 962 1304 q 991 1270 991 1291 q 989 1255 991 1263 q 968 1222 985 1236 q 934 1199 950 1208 l 700 1072 m 774 981 l 781 981 q 1120 846 1000 981 q 1198 631 1198 758 q 1183 515 1198 577 q 1174 478 1179 497 q 928 116 1105 245 q 541 -24 751 -12 q 510 -24 526 -24 q 206 106 321 -24 q 123 334 123 199 q 137 454 123 391 q 144 478 140 466 q 377 844 205 709 q 774 981 550 978 z "},"":{"ha":1092,"x_min":123,"x_max":1198,"o":"m 761 921 q 439 790 552 920 q 284 476 326 659 q 269 349 269 409 q 316 163 269 245 q 555 31 389 33 l 559 31 q 857 170 721 31 q 1030 472 991 307 l 1031 476 q 1046 609 1046 545 q 1014 783 1046 701 q 761 921 959 921 m 597 1055 l 807 1291 l 886 1291 l 987 1055 l 948 1055 l 825 1196 l 636 1055 l 597 1055 m 774 981 l 781 981 q 1120 846 1000 981 q 1198 631 1198 758 q 1183 515 1198 577 q 1174 478 1179 497 q 928 116 1105 245 q 541 -24 751 -12 q 510 -24 526 -24 q 206 106 321 -24 q 123 334 123 199 q 137 454 123 391 q 144 478 140 466 q 377 844 205 709 q 774 981 550 978 z "},"":{"ha":1092,"x_min":123,"x_max":1198,"o":"m 761 921 q 439 790 552 920 q 284 476 326 659 q 269 349 269 409 q 316 163 269 245 q 555 31 389 33 l 559 31 q 857 170 721 31 q 1030 472 991 307 l 1031 476 q 1046 609 1046 545 q 1014 783 1046 701 q 761 921 959 921 m 1045 1227 q 964 1116 1000 1153 q 897 1079 927 1079 q 793 1136 843 1079 q 732 1167 764 1167 q 682 1147 708 1167 q 664 1135 674 1142 q 643 1116 654 1128 q 602 1066 620 1093 q 592 1059 597 1059 q 585 1063 589 1059 q 581 1073 581 1067 l 581 1076 q 589 1092 583 1083 q 657 1192 623 1141 q 741 1244 692 1244 q 848 1185 800 1244 q 905 1153 873 1153 q 966 1177 932 1153 q 1029 1249 997 1198 q 1040 1257 1034 1257 q 1043 1257 1042 1257 q 1050 1244 1050 1255 l 1050 1242 l 1050 1239 q 1045 1227 1048 1233 m 774 981 l 781 981 q 1120 846 1000 981 q 1198 631 1198 758 q 1183 515 1198 577 q 1174 478 1179 497 q 928 116 1105 245 q 541 -24 751 -12 q 510 -24 526 -24 q 206 106 321 -24 q 123 334 123 199 q 137 454 123 391 q 144 478 140 466 q 377 844 205 709 q 774 981 550 978 z "},"":{"ha":1092,"x_min":123,"x_max":1198,"o":"m 761 921 q 439 790 552 920 q 284 476 326 659 q 269 349 269 409 q 316 163 269 245 q 555 31 389 33 l 559 31 q 857 170 721 31 q 1030 472 991 307 l 1031 476 q 1046 609 1046 545 q 1014 783 1046 701 q 761 921 959 921 m 868 1158 q 899 1205 874 1185 q 951 1226 923 1226 q 1004 1184 996 1226 q 1005 1171 1005 1177 q 1003 1155 1005 1162 q 972 1109 998 1130 q 919 1086 943 1086 q 876 1109 895 1086 q 866 1141 866 1122 q 868 1158 866 1149 m 629 1158 q 685 1221 640 1203 q 713 1227 701 1227 q 754 1206 739 1227 q 766 1172 766 1190 q 765 1160 766 1166 q 752 1132 762 1146 q 680 1090 726 1090 q 626 1135 626 1090 q 629 1158 626 1145 m 774 981 l 781 981 q 1120 846 1000 981 q 1198 631 1198 758 q 1183 515 1198 577 q 1174 478 1179 497 q 928 116 1105 245 q 541 -24 751 -12 q 510 -24 526 -24 q 206 106 321 -24 q 123 334 123 199 q 137 454 123 391 q 144 478 140 466 q 377 844 205 709 q 774 981 550 978 z "},"":{"ha":694,"x_min":230,"x_max":690,"o":"m 369 613 l 471 479 l 637 613 q 657 623 649 623 q 667 618 663 623 l 687 593 q 690 584 690 589 q 690 581 690 583 q 675 562 688 572 l 511 429 l 613 294 q 620 279 620 286 q 619 275 620 277 q 611 264 618 269 l 580 239 q 567 233 573 233 q 551 244 559 233 l 448 378 l 283 244 q 261 233 270 233 q 252 239 255 233 l 233 264 q 230 273 230 269 l 230 276 q 244 294 232 284 l 410 429 l 306 562 q 300 576 300 570 q 300 581 300 578 q 309 593 302 587 l 339 618 q 352 623 346 623 q 369 613 360 623 z "},"":{"ha":1092,"x_min":60,"x_max":1321,"o":"m 761 921 q 439 790 552 920 q 284 476 326 659 q 269 350 269 410 q 296 203 269 271 l 1021 767 q 930 879 993 836 q 761 921 867 921 m 1038 712 l 321 155 q 555 31 398 32 l 559 31 q 857 170 721 31 q 1030 472 991 307 l 1031 476 q 1048 618 1048 553 q 1038 712 1048 668 m 1314 926 l 1153 801 q 1196 626 1196 722 q 1182 511 1196 571 q 1174 478 1178 494 q 928 116 1105 245 q 541 -24 751 -12 q 509 -24 525 -24 q 228 82 337 -24 l 98 -18 q 87 -22 92 -22 q 80 -18 83 -22 l 62 7 q 60 14 60 11 l 60 16 q 66 24 61 20 l 193 123 q 130 279 144 189 q 124 344 124 310 q 138 456 124 397 q 144 478 140 467 q 377 844 205 709 q 774 981 550 978 l 781 981 q 1122 845 1008 981 l 1282 970 q 1291 973 1287 973 q 1300 969 1296 973 l 1318 943 q 1321 937 1321 941 q 1320 935 1321 936 q 1314 926 1320 930 z "},"":{"ha":1054,"x_min":227,"x_max":1207,"o":"m 251 399 l 355 853 q 358 873 358 864 q 334 909 358 899 q 307 934 307 919 q 307 938 307 936 q 325 952 311 952 l 555 952 q 566 943 566 952 q 565 938 566 941 q 525 909 561 920 q 479 854 490 898 l 395 489 q 359 305 371 385 q 355 241 355 271 q 363 170 355 202 q 430 87 378 115 q 583 58 481 58 q 858 199 762 58 q 970 489 926 298 l 1054 852 q 1057 872 1057 863 q 1033 908 1057 899 q 1005 934 1005 919 q 1006 938 1005 936 q 1023 952 1009 952 l 1196 952 q 1207 943 1207 952 q 1206 938 1207 941 q 1166 908 1202 920 q 1120 852 1130 896 l 1015 399 q 954 214 991 298 q 855 73 916 130 q 563 -26 746 -26 q 371 -5 447 -26 q 258 74 294 17 q 227 214 227 125 q 251 399 227 292 m 884 1072 l 709 1199 q 686 1222 696 1208 q 677 1245 677 1232 q 679 1255 677 1250 q 716 1299 686 1288 q 741 1304 729 1304 q 766 1296 755 1304 q 814 1240 781 1286 q 860 1178 847 1195 l 922 1094 q 938 1062 938 1072 l 938 1060 q 930 1055 937 1055 q 926 1054 928 1054 q 884 1072 909 1054 z "},"":{"ha":1054,"x_min":227,"x_max":1207,"o":"m 251 399 l 355 853 q 358 873 358 864 q 334 909 358 899 q 307 934 307 919 q 307 938 307 936 q 325 952 311 952 l 555 952 q 566 943 566 952 q 565 938 566 941 q 525 909 561 920 q 479 854 490 898 l 395 489 q 359 305 371 385 q 355 241 355 271 q 363 170 355 202 q 430 87 378 115 q 583 58 481 58 q 858 199 762 58 q 970 489 926 298 l 1054 852 q 1057 872 1057 863 q 1033 908 1057 899 q 1005 934 1005 919 q 1006 938 1005 936 q 1023 952 1009 952 l 1196 952 q 1207 943 1207 952 q 1206 938 1207 941 q 1166 908 1202 920 q 1120 852 1130 896 l 1015 399 q 954 214 991 298 q 855 73 916 130 q 563 -26 746 -26 q 371 -5 447 -26 q 258 74 294 17 q 227 214 227 125 q 251 399 227 292 m 692 1072 q 641 1054 659 1054 q 637 1055 639 1054 q 633 1058 633 1055 l 633 1059 q 665 1094 635 1069 l 765 1178 q 840 1240 785 1195 q 913 1296 895 1286 q 943 1304 928 1304 q 965 1299 954 1304 q 983 1270 983 1291 q 981 1255 983 1263 q 960 1222 977 1236 q 926 1199 942 1208 l 692 1072 z "},"":{"ha":1054,"x_min":227,"x_max":1207,"o":"m 251 399 l 355 853 q 358 873 358 864 q 334 909 358 899 q 307 934 307 919 q 307 938 307 936 q 325 952 311 952 l 555 952 q 566 943 566 952 q 565 938 566 941 q 525 909 561 920 q 479 854 490 898 l 395 489 q 359 305 371 385 q 355 241 355 271 q 363 170 355 202 q 430 87 378 115 q 583 58 481 58 q 858 199 762 58 q 970 489 926 298 l 1054 852 q 1057 872 1057 863 q 1033 908 1057 899 q 1005 934 1005 919 q 1006 938 1005 936 q 1023 952 1009 952 l 1196 952 q 1207 943 1207 952 q 1206 938 1207 941 q 1166 908 1202 920 q 1120 852 1130 896 l 1015 399 q 954 214 991 298 q 855 73 916 130 q 563 -26 746 -26 q 371 -5 447 -26 q 258 74 294 17 q 227 214 227 125 q 251 399 227 292 m 589 1055 l 799 1291 l 878 1291 l 979 1055 l 940 1055 l 817 1196 l 628 1055 l 589 1055 z "},"":{"ha":1054,"x_min":227,"x_max":1207,"o":"m 251 399 l 355 853 q 358 873 358 864 q 334 909 358 899 q 307 934 307 919 q 307 938 307 936 q 325 952 311 952 l 555 952 q 566 943 566 952 q 565 938 566 941 q 525 909 561 920 q 479 854 490 898 l 395 489 q 359 305 371 385 q 355 241 355 271 q 363 170 355 202 q 430 87 378 115 q 583 58 481 58 q 858 199 762 58 q 970 489 926 298 l 1054 852 q 1057 872 1057 863 q 1033 908 1057 899 q 1005 934 1005 919 q 1006 938 1005 936 q 1023 952 1009 952 l 1196 952 q 1207 943 1207 952 q 1206 938 1207 941 q 1166 908 1202 920 q 1120 852 1130 896 l 1015 399 q 954 214 991 298 q 855 73 916 130 q 563 -26 746 -26 q 371 -5 447 -26 q 258 74 294 17 q 227 214 227 125 q 251 399 227 292 m 860 1158 q 890 1205 866 1185 q 943 1226 915 1226 q 996 1184 987 1226 q 997 1171 997 1177 q 995 1154 997 1162 q 965 1109 989 1130 q 911 1086 935 1086 q 868 1109 886 1086 q 858 1141 858 1122 q 860 1158 858 1149 m 621 1158 q 677 1221 631 1203 q 705 1227 692 1227 q 746 1206 730 1227 q 758 1172 758 1190 q 757 1160 758 1166 q 745 1132 753 1146 q 672 1090 718 1090 q 618 1135 618 1090 q 621 1158 618 1145 z "},"":{"ha":926,"x_min":250,"x_max":1040,"o":"m 505 459 l 359 853 q 318 899 349 876 q 286 915 301 909 q 260 928 270 922 q 251 938 254 932 q 250 943 250 941 l 250 945 l 251 948 q 258 952 252 952 l 488 952 q 500 948 495 952 q 509 938 507 943 q 510 933 510 936 l 510 931 q 503 921 509 926 q 488 908 496 915 q 477 890 480 901 l 476 887 q 475 878 475 882 q 480 857 475 867 l 625 494 l 862 762 q 897 814 889 792 q 899 821 899 817 q 901 836 901 828 q 895 873 901 852 l 883 920 l 989 962 q 999 964 995 964 q 1013 953 1008 964 l 1038 884 q 1040 869 1040 877 q 1039 859 1040 864 q 1005 812 1034 836 q 906 715 960 774 l 665 452 q 637 400 649 433 q 619 337 626 367 l 564 99 q 562 79 562 88 q 585 43 562 52 q 613 18 613 33 q 612 14 613 16 q 595 0 609 0 l 365 0 q 353 9 353 0 q 354 14 353 12 q 395 43 358 31 q 441 99 431 55 l 508 389 q 512 421 512 406 q 505 459 512 441 m 692 1072 q 641 1054 659 1054 q 637 1055 639 1054 q 633 1058 633 1055 l 633 1059 q 665 1094 635 1069 l 765 1178 q 840 1240 785 1195 q 913 1296 895 1286 q 943 1304 928 1304 q 965 1299 954 1304 q 983 1270 983 1291 q 981 1255 983 1263 q 960 1222 977 1236 q 926 1199 942 1208 l 692 1072 z "},"":{"ha":781,"x_min":51,"x_max":863,"o":"m 435 852 l 408 738 l 618 738 q 759 713 688 738 q 854 617 829 688 q 863 553 863 588 q 854 479 863 518 q 779 341 836 402 q 656 263 730 289 q 528 238 583 238 l 293 238 l 261 99 q 258 79 258 88 q 282 43 258 52 q 310 18 310 33 q 309 14 310 16 q 292 0 306 0 l 62 0 q 51 9 51 0 q 52 14 51 12 q 92 43 56 31 q 139 99 129 55 l 313 852 q 315 872 315 863 q 292 908 315 899 q 264 934 264 919 q 264 938 264 936 q 282 952 268 952 l 511 952 q 523 943 523 952 q 522 938 523 941 q 481 908 518 920 q 435 852 445 896 m 304 286 l 447 286 q 545 299 494 286 q 639 347 596 313 q 725 486 705 399 q 730 533 730 511 q 701 624 730 585 q 552 682 654 682 l 395 682 l 304 286 z "},"":{"ha":861,"x_min":75,"x_max":865,"o":"m 493 867 q 448 789 462 836 q 424 696 435 742 l 286 99 q 283 79 283 88 q 307 43 283 52 q 335 18 335 33 q 334 14 335 16 q 317 0 331 0 l 87 0 q 75 9 75 0 q 76 14 75 12 q 117 43 80 31 q 163 99 153 55 l 301 696 q 344 815 315 758 q 420 916 372 873 q 606 994 507 994 q 650 990 627 994 q 795 858 764 970 q 801 810 801 833 q 797 773 801 791 q 715 652 782 709 q 620 583 670 613 q 550 509 570 553 q 541 482 543 494 q 538 465 538 473 q 564 421 538 435 q 667 382 607 397 q 815 330 751 363 q 865 234 865 304 q 861 191 865 214 l 859 182 q 797 83 847 133 q 656 1 743 29 q 543 -17 604 -15 l 524 -17 q 370 5 441 -17 l 350 154 l 355 168 q 369 178 357 178 l 370 178 q 381 161 377 176 q 435 66 397 94 q 543 36 474 38 l 551 36 q 663 58 600 36 q 747 146 730 83 l 748 151 q 751 179 751 165 q 701 243 751 228 q 583 279 633 264 q 470 338 519 298 q 434 416 434 366 q 439 456 434 435 l 439 458 q 508 559 455 525 q 612 633 560 593 q 690 741 665 674 q 698 768 694 755 q 702 805 702 787 q 692 855 702 832 q 604 906 670 899 q 588 907 596 907 q 493 867 532 907 z "},"":{"ha":783,"x_min":98,"x_max":807,"o":"m 554 59 l 352 -9 q 314 -17 328 -17 l 286 -17 q 138 62 191 -12 q 98 196 98 119 q 101 243 98 219 q 111 298 105 272 q 132 367 119 334 q 203 482 153 425 q 277 545 227 512 q 315 563 295 555 q 433 604 374 583 q 552 644 492 624 q 575 648 565 648 l 578 648 q 678 627 621 646 q 684 624 684 625 q 718 610 698 618 q 734 608 726 608 q 754 614 745 608 q 779 634 771 626 q 789 639 783 639 q 795 637 792 639 q 807 626 807 633 l 807 624 l 686 99 q 684 79 684 88 q 707 43 684 52 q 735 18 735 33 q 734 14 735 16 q 717 0 731 0 l 552 0 q 543 6 543 0 l 543 9 l 554 59 m 661 522 q 598 569 639 547 q 524 593 558 591 l 521 593 q 492 587 507 593 q 440 569 466 578 q 387 551 414 560 q 356 534 368 545 q 275 425 303 489 q 241 330 252 377 q 235 299 237 315 q 231 240 231 267 q 252 140 231 182 q 347 58 282 77 q 397 51 370 51 q 414 52 405 51 q 452 60 429 53 q 504 78 468 66 q 564 99 541 91 l 661 522 m 585 762 l 410 889 q 387 912 398 898 q 380 934 380 922 q 381 945 380 939 q 418 989 389 977 q 441 994 430 994 q 469 986 456 994 q 515 930 482 976 q 562 868 548 885 l 623 784 q 639 752 639 762 l 639 750 q 631 745 638 745 q 627 744 629 744 q 585 762 610 744 z "},"":{"ha":783,"x_min":98,"x_max":807,"o":"m 554 59 l 352 -9 q 314 -17 328 -17 l 286 -17 q 138 62 191 -12 q 98 196 98 119 q 101 243 98 219 q 111 298 105 272 q 132 367 119 334 q 203 482 153 425 q 277 545 227 512 q 315 563 295 555 q 433 604 374 583 q 552 644 492 624 q 575 648 565 648 l 578 648 q 678 627 621 646 q 684 624 684 625 q 718 610 698 618 q 734 608 726 608 q 754 614 745 608 q 779 634 771 626 q 789 639 783 639 q 795 637 792 639 q 807 626 807 633 l 807 624 l 686 99 q 684 79 684 88 q 707 43 684 52 q 735 18 735 33 q 734 14 735 16 q 717 0 731 0 l 552 0 q 543 6 543 0 l 543 9 l 554 59 m 661 522 q 598 569 639 547 q 524 593 558 591 l 521 593 q 492 587 507 593 q 440 569 466 578 q 387 551 414 560 q 356 534 368 545 q 275 425 303 489 q 241 330 252 377 q 235 299 237 315 q 231 240 231 267 q 252 140 231 182 q 347 58 282 77 q 397 51 370 51 q 414 52 405 51 q 452 60 429 53 q 504 78 468 66 q 564 99 541 91 l 661 522 m 406 762 q 355 744 373 744 q 352 745 353 744 q 347 749 347 745 l 347 749 q 380 784 349 759 l 481 868 q 555 930 500 885 q 628 986 609 976 q 657 994 643 994 q 680 989 669 994 q 699 959 699 980 q 696 945 699 952 q 675 912 692 926 q 642 889 658 898 l 406 762 z "},"":{"ha":783,"x_min":98,"x_max":807,"o":"m 554 59 l 352 -9 q 314 -17 328 -17 l 286 -17 q 138 62 191 -12 q 98 196 98 119 q 101 243 98 219 q 111 298 105 272 q 132 367 119 334 q 203 482 153 425 q 277 545 227 512 q 315 563 295 555 q 433 604 374 583 q 552 644 492 624 q 575 648 565 648 l 578 648 q 678 627 621 646 q 684 624 684 625 q 718 610 698 618 q 734 608 726 608 q 754 614 745 608 q 779 634 771 626 q 789 639 783 639 q 795 637 792 639 q 807 626 807 633 l 807 624 l 686 99 q 684 79 684 88 q 707 43 684 52 q 735 18 735 33 q 734 14 735 16 q 717 0 731 0 l 552 0 q 543 6 543 0 l 543 9 l 554 59 m 661 522 q 598 569 639 547 q 524 593 558 591 l 521 593 q 492 587 507 593 q 440 569 466 578 q 387 551 414 560 q 356 534 368 545 q 275 425 303 489 q 241 330 252 377 q 235 299 237 315 q 231 240 231 267 q 252 140 231 182 q 347 58 282 77 q 397 51 370 51 q 414 52 405 51 q 452 60 429 53 q 504 78 468 66 q 564 99 541 91 l 661 522 m 338 743 l 547 979 l 627 979 l 728 743 l 689 743 l 566 885 l 376 743 l 338 743 z "},"":{"ha":783,"x_min":98,"x_max":824,"o":"m 554 59 l 352 -9 q 314 -17 328 -17 l 286 -17 q 138 62 191 -12 q 98 196 98 119 q 101 243 98 219 q 111 298 105 272 q 132 367 119 334 q 203 482 153 425 q 277 545 227 512 q 315 563 295 555 q 433 604 374 583 q 552 644 492 624 q 575 648 565 648 l 578 648 q 678 627 621 646 q 684 624 684 625 q 718 610 698 618 q 734 608 726 608 q 754 614 745 608 q 779 634 771 626 q 789 639 783 639 q 795 637 792 639 q 807 626 807 633 l 807 624 l 686 99 q 684 79 684 88 q 707 43 684 52 q 735 18 735 33 q 734 14 735 16 q 717 0 731 0 l 552 0 q 543 6 543 0 l 543 9 l 554 59 m 661 522 q 598 569 639 547 q 524 593 558 591 l 521 593 q 492 587 507 593 q 440 569 466 578 q 387 551 414 560 q 356 534 368 545 q 275 425 303 489 q 241 330 252 377 q 235 299 237 315 q 231 240 231 267 q 252 140 231 182 q 347 58 282 77 q 397 51 370 51 q 414 52 405 51 q 452 60 429 53 q 504 78 468 66 q 564 99 541 91 l 661 522 m 819 921 q 737 809 772 844 q 669 772 701 772 q 566 829 616 772 q 506 861 537 861 q 454 841 481 861 q 437 828 446 836 q 415 809 428 821 q 375 760 397 791 q 364 753 370 753 q 357 757 361 753 q 353 766 353 760 q 354 770 353 768 q 361 785 355 777 q 430 886 395 834 q 513 937 465 937 q 621 878 574 937 q 678 846 646 846 q 739 870 706 846 q 802 942 768 890 q 813 950 806 950 l 816 950 q 824 937 824 948 l 824 936 l 823 932 q 819 921 821 926 z "},"":{"ha":783,"x_min":98,"x_max":807,"o":"m 554 59 l 352 -9 q 314 -17 328 -17 l 286 -17 q 138 62 191 -12 q 98 196 98 119 q 101 243 98 219 q 111 298 105 272 q 132 367 119 334 q 203 482 153 425 q 277 545 227 512 q 315 563 295 555 q 433 604 374 583 q 552 644 492 624 q 575 648 565 648 l 578 648 q 678 627 621 646 q 684 624 684 625 q 718 610 698 618 q 734 608 726 608 q 754 614 745 608 q 779 634 771 626 q 789 639 783 639 q 795 637 792 639 q 807 626 807 633 l 807 624 l 686 99 q 684 79 684 88 q 707 43 684 52 q 735 18 735 33 q 734 14 735 16 q 717 0 731 0 l 552 0 q 543 6 543 0 l 543 9 l 554 59 m 661 522 q 598 569 639 547 q 524 593 558 591 l 521 593 q 492 587 507 593 q 440 569 466 578 q 387 551 414 560 q 356 534 368 545 q 275 425 303 489 q 241 330 252 377 q 235 299 237 315 q 231 240 231 267 q 252 140 231 182 q 347 58 282 77 q 397 51 370 51 q 414 52 405 51 q 452 60 429 53 q 504 78 468 66 q 564 99 541 91 l 661 522 m 642 855 q 673 902 648 882 q 725 923 697 923 q 778 881 771 923 q 779 867 779 874 q 777 852 779 859 q 747 806 771 827 q 694 787 722 787 q 692 786 693 786 q 650 806 665 786 q 640 838 640 819 q 642 855 640 846 m 402 855 q 458 918 413 902 q 486 923 473 923 q 528 903 511 923 q 540 869 540 886 q 538 856 540 863 q 526 829 536 843 q 454 787 500 787 q 399 832 399 787 q 402 855 399 842 z "},"":{"ha":783,"x_min":98,"x_max":807,"o":"m 554 59 l 352 -9 q 314 -17 328 -17 l 286 -17 q 138 62 191 -12 q 98 196 98 119 q 101 243 98 219 q 111 298 105 272 q 132 367 119 334 q 203 482 153 425 q 277 545 227 512 q 315 563 295 555 q 433 604 374 583 q 552 644 492 624 q 575 648 565 648 l 578 648 q 678 627 621 646 q 684 624 684 625 q 718 610 698 618 q 734 608 726 608 q 754 614 745 608 q 779 634 771 626 q 789 639 783 639 q 795 637 792 639 q 807 626 807 633 l 807 624 l 686 99 q 684 79 684 88 q 707 43 684 52 q 735 18 735 33 q 734 14 735 16 q 717 0 731 0 l 552 0 q 543 6 543 0 l 543 9 l 554 59 m 661 522 q 598 569 639 547 q 524 593 558 591 l 521 593 q 492 587 507 593 q 440 569 466 578 q 387 551 414 560 q 356 534 368 545 q 275 425 303 489 q 241 330 252 377 q 235 299 237 315 q 231 240 231 267 q 252 140 231 182 q 347 58 282 77 q 397 51 370 51 q 414 52 405 51 q 452 60 429 53 q 504 78 468 66 q 564 99 541 91 l 661 522 m 634 1029 q 718 989 688 1029 q 739 925 739 961 q 735 893 739 910 q 674 798 722 837 q 572 758 626 758 q 487 798 517 758 q 466 861 466 825 q 470 893 466 876 q 531 989 483 949 q 634 1029 579 1029 m 625 1010 q 560 976 590 1010 q 525 904 534 945 l 522 894 q 519 863 519 878 q 531 811 519 833 q 583 777 549 777 q 646 811 616 777 q 683 886 673 842 l 684 894 q 687 923 687 909 q 675 976 687 952 q 625 1010 658 1010 z "},"":{"ha":1195,"x_min":98,"x_max":1235,"o":"m 785 578 q 1012 651 884 650 l 1015 651 q 1200 575 1148 651 q 1235 455 1235 525 q 1225 374 1235 417 q 1214 335 1218 347 q 1183 324 1210 324 l 751 324 q 743 246 743 283 q 766 142 743 187 q 880 54 802 70 q 926 48 902 48 q 1069 85 991 48 q 1126 106 1113 106 q 1131 105 1130 106 q 1132 102 1132 104 q 1117 74 1132 94 q 1099 52 1105 58 q 1087 43 1093 47 q 872 -21 998 -21 q 637 83 704 -20 l 351 -9 q 314 -17 329 -17 l 286 -17 q 138 62 190 -12 q 98 196 98 118 q 101 243 98 219 q 131 367 110 309 q 202 482 153 425 q 277 545 227 512 q 315 563 294 555 q 433 604 374 583 q 552 644 492 624 q 575 648 564 648 l 578 648 q 678 627 621 646 q 785 578 745 600 m 661 522 q 598 569 639 547 q 523 593 558 591 l 520 593 q 492 587 507 593 q 439 569 466 578 q 387 551 413 560 q 355 534 369 545 q 274 425 303 489 q 235 299 244 361 q 229 239 229 267 q 251 140 229 181 q 346 58 283 77 q 397 51 371 51 q 414 52 405 51 q 452 60 429 53 q 504 78 468 66 q 563 99 540 91 l 661 522 m 762 374 l 1120 374 q 1129 448 1129 412 q 1118 526 1129 489 q 1002 591 1097 591 l 994 591 q 841 522 898 589 q 762 374 785 456 z "},"":{"ha":627,"x_min":111,"x_max":730,"o":"m 275 -27 l 313 -27 q 302 -55 305 -42 q 300 -67 300 -61 q 309 -91 300 -81 q 349 -136 327 -113 q 372 -193 372 -159 q 368 -220 372 -205 l 367 -226 q 269 -288 351 -281 l 259 -288 q 170 -269 220 -288 l 170 -223 q 228 -246 198 -246 q 275 -232 251 -246 q 303 -199 299 -218 q 304 -189 304 -194 q 282 -140 304 -168 q 254 -91 265 -119 q 252 -77 252 -84 q 253 -65 252 -71 q 275 -27 257 -47 m 526 648 l 541 648 q 730 589 651 648 l 692 474 q 681 465 688 465 l 679 465 q 670 479 673 466 q 618 564 656 538 q 519 590 581 590 l 503 590 q 378 547 427 586 q 305 463 334 512 q 262 352 277 413 q 255 311 258 332 q 250 246 250 277 q 271 145 250 188 q 391 49 315 60 q 416 47 403 47 q 561 87 477 47 q 618 109 604 109 q 623 107 621 109 q 623 104 623 106 l 623 102 q 609 76 621 94 q 578 44 594 56 q 472 -4 532 9 q 362 -17 413 -17 q 167 54 236 -16 q 111 201 111 109 q 115 252 111 225 q 126 311 119 282 q 147 382 134 347 q 221 501 170 441 q 354 604 275 564 q 526 648 433 644 z "},"":{"ha":678,"x_min":94,"x_max":730,"o":"m 347 -17 q 116 102 163 -17 q 94 214 94 155 q 104 300 94 256 q 127 374 113 336 q 273 576 178 504 q 500 648 368 648 q 730 466 730 648 q 718 374 730 425 q 707 335 711 347 q 677 324 703 324 l 248 324 q 237 235 237 276 q 262 125 237 172 q 414 47 304 47 q 475 54 441 47 q 562 85 510 61 q 619 106 606 106 q 625 105 623 106 q 625 102 625 104 l 625 99 q 610 74 623 90 q 592 52 599 58 q 581 43 586 47 q 465 -6 527 4 q 347 -17 403 -17 m 259 374 l 614 374 q 626 466 626 427 q 609 540 626 512 q 487 590 578 590 q 338 528 395 590 q 259 374 281 467 m 585 762 l 410 889 q 387 912 398 898 q 380 934 380 922 q 381 945 380 939 q 418 989 389 977 q 441 994 430 994 q 469 986 456 994 q 515 930 482 976 q 562 868 548 885 l 623 784 q 639 752 639 762 l 639 750 q 631 745 638 745 q 627 744 629 744 q 585 762 610 744 z "},"":{"ha":678,"x_min":94,"x_max":730,"o":"m 347 -17 q 116 102 163 -17 q 94 214 94 155 q 104 300 94 256 q 127 374 113 336 q 273 576 178 504 q 500 648 368 648 q 730 466 730 648 q 718 374 730 425 q 707 335 711 347 q 677 324 703 324 l 248 324 q 237 235 237 276 q 262 125 237 172 q 414 47 304 47 q 475 54 441 47 q 562 85 510 61 q 619 106 606 106 q 625 105 623 106 q 625 102 625 104 l 625 99 q 610 74 623 90 q 592 52 599 58 q 581 43 586 47 q 465 -6 527 4 q 347 -17 403 -17 m 259 374 l 614 374 q 626 466 626 427 q 609 540 626 512 q 487 590 578 590 q 338 528 395 590 q 259 374 281 467 m 410 762 q 359 744 377 744 q 356 745 357 744 q 351 749 351 745 l 351 750 q 383 784 353 759 l 484 868 q 558 930 504 885 q 631 986 612 976 q 661 994 646 994 q 684 989 672 994 q 702 959 702 980 q 700 945 702 952 q 678 912 695 926 q 645 889 661 898 l 410 762 z "},"":{"ha":678,"x_min":94,"x_max":730,"o":"m 347 -17 q 116 102 163 -17 q 94 214 94 155 q 104 300 94 256 q 127 374 113 336 q 273 576 178 504 q 500 648 368 648 q 730 466 730 648 q 718 374 730 425 q 707 335 711 347 q 677 324 703 324 l 248 324 q 237 235 237 276 q 262 125 237 172 q 414 47 304 47 q 475 54 441 47 q 562 85 510 61 q 619 106 606 106 q 625 105 623 106 q 625 102 625 104 l 625 99 q 610 74 623 90 q 592 52 599 58 q 581 43 586 47 q 465 -6 527 4 q 347 -17 403 -17 m 259 374 l 614 374 q 626 466 626 427 q 609 540 626 512 q 487 590 578 590 q 338 528 395 590 q 259 374 281 467 m 307 743 l 517 979 l 596 979 l 697 743 l 659 743 l 535 885 l 346 743 l 307 743 z "},"":{"ha":678,"x_min":94,"x_max":730,"o":"m 347 -17 q 116 102 163 -17 q 94 214 94 155 q 104 300 94 256 q 127 374 113 336 q 273 576 178 504 q 500 648 368 648 q 730 466 730 648 q 718 374 730 425 q 707 335 711 347 q 677 324 703 324 l 248 324 q 237 235 237 276 q 262 125 237 172 q 414 47 304 47 q 475 54 441 47 q 562 85 510 61 q 619 106 606 106 q 625 105 623 106 q 625 102 625 104 l 625 99 q 610 74 623 90 q 592 52 599 58 q 581 43 586 47 q 465 -6 527 4 q 347 -17 403 -17 m 259 374 l 614 374 q 626 466 626 427 q 609 540 626 512 q 487 590 578 590 q 338 528 395 590 q 259 374 281 467 m 581 857 q 612 904 587 883 q 664 924 636 924 q 716 882 709 924 q 718 869 718 876 q 715 853 718 861 q 685 808 710 828 q 632 788 661 788 q 631 787 631 787 q 589 808 603 787 q 578 838 578 821 q 581 857 578 846 m 341 857 q 397 919 351 901 q 425 924 412 924 q 467 904 450 924 q 478 871 478 888 q 477 858 478 865 q 465 830 473 844 q 392 788 437 788 q 338 832 338 788 q 341 857 338 843 z "},"":{"ha":404,"x_min":79,"x_max":531,"o":"m 416 650 l 290 99 q 287 79 287 88 q 311 43 287 52 q 338 18 338 33 q 338 14 338 16 q 321 0 334 0 l 91 0 q 79 9 79 0 q 80 14 79 12 q 121 43 84 31 q 168 99 157 55 l 262 510 q 264 528 264 520 q 241 566 264 556 q 213 591 213 576 q 214 595 213 593 q 231 609 217 609 q 323 623 277 611 q 416 650 370 635 m 477 762 l 302 889 q 279 912 290 898 q 271 934 271 922 q 273 945 271 939 q 310 989 280 977 q 334 994 322 994 q 360 986 348 994 q 407 930 374 976 q 454 868 440 885 l 515 784 q 531 751 531 762 l 531 749 q 524 745 530 745 q 519 744 522 744 q 477 762 503 744 z "},"":{"ha":404,"x_min":79,"x_max":577,"o":"m 416 650 l 290 99 q 287 79 287 88 q 311 43 287 52 q 338 18 338 33 q 338 14 338 16 q 321 0 334 0 l 91 0 q 79 9 79 0 q 80 14 79 12 q 121 43 84 31 q 168 99 157 55 l 262 510 q 264 528 264 520 q 241 566 264 556 q 213 591 213 576 q 214 595 213 593 q 231 609 217 609 q 323 623 277 611 q 416 650 370 635 m 285 762 q 234 744 252 744 q 231 745 232 744 q 226 749 226 745 l 226 749 q 258 784 228 759 l 359 868 q 433 930 378 885 q 507 986 487 976 q 536 994 522 994 q 559 989 547 994 q 577 959 577 980 q 575 945 577 952 q 553 912 570 926 q 519 889 536 898 l 285 762 z "},"":{"ha":404,"x_min":79,"x_max":572,"o":"m 416 650 l 290 99 q 287 79 287 88 q 311 43 287 52 q 338 18 338 33 q 338 14 338 16 q 321 0 334 0 l 91 0 q 79 9 79 0 q 80 14 79 12 q 121 43 84 31 q 168 99 157 55 l 262 510 q 264 528 264 520 q 241 566 264 556 q 213 591 213 576 q 214 595 213 593 q 231 609 217 609 q 323 623 277 611 q 416 650 370 635 m 182 743 l 392 979 l 471 979 l 572 743 l 533 743 l 410 885 l 221 743 l 182 743 z "},"":{"ha":404,"x_min":79,"x_max":592,"o":"m 416 650 l 290 99 q 287 79 287 88 q 311 43 287 52 q 338 18 338 33 q 338 14 338 16 q 321 0 334 0 l 91 0 q 79 9 79 0 q 80 14 79 12 q 121 43 84 31 q 168 99 157 55 l 262 510 q 264 528 264 520 q 241 566 264 556 q 213 591 213 576 q 214 595 213 593 q 231 609 217 609 q 323 623 277 611 q 416 650 370 635 m 456 857 q 486 904 462 883 q 538 924 511 924 q 591 882 583 924 q 592 869 592 876 q 590 853 592 861 q 559 808 585 828 q 507 788 535 788 l 506 787 q 463 808 478 787 q 453 838 453 821 q 456 857 453 846 m 216 857 q 272 919 227 901 q 300 924 288 924 q 342 904 326 924 q 353 871 353 888 q 352 858 353 865 q 340 830 349 844 q 267 788 313 788 q 213 832 213 788 q 216 857 213 843 z "},"":{"ha":749,"x_min":109,"x_max":842,"o":"m 521 606 l 513 606 q 359 528 433 606 q 252 324 279 445 l 251 321 q 240 228 240 272 q 262 113 240 165 q 385 20 301 24 l 394 20 q 547 98 473 20 q 655 302 626 180 q 667 397 667 353 q 644 513 667 460 q 521 606 605 602 m 374 730 q 366 749 370 740 q 359 769 362 759 q 563 858 461 806 q 439 959 514 913 q 429 972 429 966 l 429 973 q 432 977 430 975 q 451 1001 439 986 q 472 1013 460 1013 q 485 1010 478 1013 q 629 893 572 949 q 819 1017 730 951 q 830 999 825 1008 q 842 982 836 990 q 662 859 756 913 q 788 622 753 755 q 805 485 805 558 q 785 313 805 404 l 784 309 q 634 75 752 170 q 374 -27 515 -23 l 365 -27 q 160 71 233 -27 q 109 231 109 142 q 118 311 109 269 l 118 313 q 290 568 154 465 q 333 589 305 580 q 415 617 360 597 q 486 641 448 628 q 544 653 523 653 l 546 653 q 682 611 623 650 q 643 724 664 673 q 591 821 622 776 q 374 730 490 768 z "},"":{"ha":808,"x_min":58,"x_max":837,"o":"m 379 578 q 451 604 420 593 q 509 623 481 614 q 646 652 577 645 q 663 652 654 652 q 762 614 720 652 q 802 490 802 577 q 782 343 802 429 l 726 99 q 723 79 723 88 q 747 43 723 52 q 774 18 774 33 q 774 14 774 16 q 757 0 770 0 l 592 0 q 583 6 583 0 l 583 9 l 660 343 q 674 452 674 405 q 646 552 674 517 q 559 591 616 591 q 485 578 526 591 q 444 564 469 572 q 401 549 419 555 q 370 538 384 543 l 269 99 q 266 79 266 88 q 290 43 266 52 q 317 18 317 33 q 317 14 317 16 q 300 0 313 0 l 70 0 q 58 9 58 0 q 59 14 58 12 q 100 43 63 31 q 146 99 136 55 l 246 533 q 249 552 249 543 q 225 588 249 578 q 197 614 197 599 q 198 618 197 616 q 216 632 201 632 q 308 646 261 634 q 401 673 354 658 l 379 578 m 832 920 q 751 808 786 843 q 683 771 713 771 q 580 828 630 771 q 519 859 551 859 q 468 840 495 859 q 451 827 460 834 q 429 808 441 820 q 389 758 409 788 q 378 751 384 751 q 371 755 375 751 q 368 764 368 759 q 368 768 368 766 q 376 784 370 775 q 444 884 410 833 q 528 936 479 936 q 635 877 587 936 q 692 845 660 845 q 753 869 720 845 q 815 941 784 890 q 827 949 820 949 l 829 949 q 837 937 837 947 l 837 935 l 836 931 q 832 920 835 926 z "},"":{"ha":751,"x_min":105,"x_max":790,"o":"m 541 648 q 741 547 672 643 q 790 391 790 478 q 781 315 790 355 l 781 311 q 632 82 749 176 q 371 -17 513 -13 l 360 -17 q 158 79 230 -17 q 105 237 105 149 q 115 313 105 273 l 115 315 q 284 565 150 464 q 327 586 300 577 q 410 613 355 595 q 481 637 441 624 q 539 648 517 648 l 541 648 m 516 603 l 508 603 q 354 526 429 603 q 248 326 275 445 q 237 234 237 277 q 260 121 237 172 q 382 29 298 33 l 392 29 q 545 106 471 29 q 651 305 623 186 q 662 397 662 353 q 639 511 662 459 q 516 603 600 598 m 652 762 l 476 889 q 453 912 464 898 q 446 934 446 922 q 447 945 446 939 q 484 989 454 977 q 508 994 496 994 q 534 986 522 994 q 581 930 548 976 q 627 868 614 885 l 689 784 q 705 751 705 762 l 705 749 q 698 745 705 745 q 694 744 696 744 q 652 762 677 744 z "},"":{"ha":751,"x_min":105,"x_max":790,"o":"m 541 648 q 741 547 672 643 q 790 391 790 478 q 781 315 790 355 l 781 311 q 632 82 749 176 q 371 -17 513 -13 l 360 -17 q 158 79 230 -17 q 105 237 105 149 q 115 313 105 273 l 115 315 q 284 565 150 464 q 327 586 300 577 q 410 613 355 595 q 481 637 441 624 q 539 648 517 648 l 541 648 m 516 603 l 508 603 q 354 526 429 603 q 248 326 275 445 q 237 234 237 277 q 260 121 237 172 q 382 29 298 33 l 392 29 q 545 106 471 29 q 651 305 623 186 q 662 397 662 353 q 639 511 662 459 q 516 603 600 598 m 459 762 q 408 744 426 744 q 405 745 406 744 q 400 749 400 745 l 400 750 q 432 784 402 759 l 533 868 q 607 930 553 885 q 680 986 661 976 q 709 994 695 994 q 732 989 721 994 q 751 959 751 980 q 749 945 751 952 q 727 912 744 926 q 694 889 710 898 l 459 762 z "},"":{"ha":751,"x_min":105,"x_max":790,"o":"m 541 648 q 741 547 672 643 q 790 391 790 478 q 781 315 790 355 l 781 311 q 632 82 749 176 q 371 -17 513 -13 l 360 -17 q 158 79 230 -17 q 105 237 105 149 q 115 313 105 273 l 115 315 q 284 565 150 464 q 327 586 300 577 q 410 613 355 595 q 481 637 441 624 q 539 648 517 648 l 541 648 m 516 603 l 508 603 q 354 526 429 603 q 248 326 275 445 q 237 234 237 277 q 260 121 237 172 q 382 29 298 33 l 392 29 q 545 106 471 29 q 651 305 623 186 q 662 397 662 353 q 639 511 662 459 q 516 603 600 598 m 343 743 l 553 979 l 632 979 l 733 743 l 694 743 l 571 885 l 382 743 l 343 743 z "},"":{"ha":751,"x_min":105,"x_max":810,"o":"m 541 648 q 741 547 672 643 q 790 391 790 478 q 781 315 790 355 l 781 311 q 632 82 749 176 q 371 -17 513 -13 l 360 -17 q 158 79 230 -17 q 105 237 105 149 q 115 313 105 273 l 115 315 q 284 565 150 464 q 327 586 300 577 q 410 613 355 595 q 481 637 441 624 q 539 648 517 648 l 541 648 m 516 603 l 508 603 q 354 526 429 603 q 248 326 275 445 q 237 234 237 277 q 260 121 237 172 q 382 29 298 33 l 392 29 q 545 106 471 29 q 651 305 623 186 q 662 397 662 353 q 639 511 662 459 q 516 603 600 598 m 805 920 q 724 808 759 843 q 656 771 687 771 q 553 828 603 771 q 493 859 524 859 q 441 840 469 859 q 424 827 434 834 q 403 808 414 820 q 361 758 381 786 q 351 751 357 751 q 344 755 348 751 q 340 764 340 759 q 341 768 340 766 q 349 784 342 775 q 417 884 382 833 q 501 936 452 936 q 608 877 561 936 q 665 845 633 845 q 726 869 693 845 q 788 941 757 890 q 800 949 793 949 l 803 949 q 810 937 810 947 l 810 935 l 810 931 q 805 920 808 925 z "},"":{"ha":751,"x_min":105,"x_max":790,"o":"m 541 648 q 741 547 672 643 q 790 391 790 478 q 781 315 790 355 l 781 311 q 632 82 749 176 q 371 -17 513 -13 l 360 -17 q 158 79 230 -17 q 105 237 105 149 q 115 313 105 273 l 115 315 q 284 565 150 464 q 327 586 300 577 q 410 613 355 595 q 481 637 441 624 q 539 648 517 648 l 541 648 m 516 603 l 508 603 q 354 526 429 603 q 248 326 275 445 q 237 234 237 277 q 260 121 237 172 q 382 29 298 33 l 392 29 q 545 106 471 29 q 651 305 623 186 q 662 397 662 353 q 639 511 662 459 q 516 603 600 598 m 630 857 q 661 904 636 883 q 713 924 685 924 q 765 882 758 924 q 766 869 766 876 q 764 853 766 861 q 734 808 759 828 q 681 788 709 788 q 680 787 680 787 q 637 808 652 787 q 627 838 627 821 q 630 857 627 846 m 390 857 q 446 919 400 901 q 474 924 461 924 q 515 904 499 924 q 528 869 528 888 q 526 857 528 863 q 514 830 523 844 q 441 788 487 788 q 387 832 387 788 q 390 857 387 843 z "},"":{"ha":694,"x_min":205,"x_max":715,"o":"m 243 464 l 693 464 q 715 451 715 464 q 714 446 715 449 l 706 410 q 677 393 702 393 l 227 393 q 205 406 205 393 q 205 410 205 408 l 214 446 q 243 464 218 464 m 491 564 q 448 584 463 564 q 437 614 437 597 q 439 631 437 623 q 470 678 446 659 q 522 698 493 698 q 565 678 551 698 q 576 646 576 664 q 574 631 576 639 q 543 584 568 603 q 491 564 519 564 m 397 157 q 354 177 370 157 q 344 208 344 191 q 346 225 344 216 q 376 272 352 253 q 428 292 400 292 q 471 272 456 292 q 483 240 483 258 q 481 225 483 233 q 449 177 474 197 q 397 157 425 157 z "},"":{"ha":751,"x_min":29,"x_max":873,"o":"m 33 11 l 144 100 q 105 237 105 162 q 114 311 105 273 l 115 315 q 284 565 150 464 q 327 586 300 577 q 410 613 355 595 q 481 637 441 624 q 539 648 517 648 l 541 648 q 726 566 656 644 l 841 657 q 846 659 844 659 q 852 657 850 659 l 871 631 q 873 627 873 629 l 873 625 q 869 620 873 623 l 754 528 q 789 391 789 466 q 781 315 789 355 l 781 311 q 632 82 749 176 q 371 -17 513 -13 l 361 -17 q 172 62 245 -17 l 61 -26 q 55 -28 58 -28 q 50 -26 52 -28 l 31 0 q 29 4 29 2 l 29 5 q 33 11 30 8 m 241 178 l 644 500 q 516 603 606 597 l 508 603 q 354 526 429 603 q 248 326 275 445 q 237 235 237 278 q 241 178 237 205 m 657 450 l 256 130 q 382 29 294 34 l 392 29 q 545 106 471 29 q 651 305 623 186 q 662 395 662 353 q 657 450 662 424 z "},"":{"ha":840,"x_min":172,"x_max":861,"o":"m 728 99 q 726 79 726 88 q 749 43 726 52 q 777 18 777 33 q 777 14 777 16 q 759 0 773 0 l 594 0 q 585 6 585 0 l 585 9 l 595 53 q 523 27 554 39 q 465 8 492 16 q 329 -20 397 -13 q 311 -20 319 -20 q 212 18 254 -20 q 172 141 172 54 q 192 288 172 202 l 248 533 q 251 552 251 543 q 227 588 251 578 q 199 614 199 599 q 200 618 199 616 q 218 632 203 632 q 310 646 263 634 q 404 673 356 658 l 315 288 q 300 179 300 226 q 328 79 300 114 q 416 41 359 41 q 490 54 448 41 q 530 67 505 58 q 573 82 555 76 q 585 86 576 83 q 604 93 593 89 l 705 533 q 708 552 708 543 q 684 588 708 578 q 656 614 656 599 q 657 618 656 616 q 675 632 661 632 q 767 646 720 634 q 861 673 813 658 l 728 99 m 679 762 l 504 889 q 481 912 492 898 q 473 934 473 922 q 475 945 473 939 q 511 989 482 977 q 535 994 524 994 q 562 986 550 994 q 609 930 576 976 q 655 868 642 885 l 717 784 q 732 752 732 762 l 732 750 q 726 745 732 745 q 722 744 724 744 q 679 762 704 744 z "},"":{"ha":840,"x_min":172,"x_max":861,"o":"m 728 99 q 726 79 726 88 q 749 43 726 52 q 777 18 777 33 q 777 14 777 16 q 759 0 773 0 l 594 0 q 585 6 585 0 l 585 9 l 595 53 q 523 27 554 39 q 465 8 492 16 q 329 -20 397 -13 q 311 -20 319 -20 q 212 18 254 -20 q 172 141 172 54 q 192 288 172 202 l 248 533 q 251 552 251 543 q 227 588 251 578 q 199 614 199 599 q 200 618 199 616 q 218 632 203 632 q 310 646 263 634 q 404 673 356 658 l 315 288 q 300 179 300 226 q 328 79 300 114 q 416 41 359 41 q 490 54 448 41 q 530 67 505 58 q 573 82 555 76 q 585 86 576 83 q 604 93 593 89 l 705 533 q 708 552 708 543 q 684 588 708 578 q 656 614 656 599 q 657 618 656 616 q 675 632 661 632 q 767 646 720 634 q 861 673 813 658 l 728 99 m 487 762 q 436 744 454 744 q 432 745 434 744 q 427 749 427 745 l 427 750 q 460 784 429 759 l 561 868 q 635 930 581 885 q 708 986 689 976 q 737 994 723 994 q 760 989 749 994 q 779 959 779 980 q 777 945 779 952 q 755 912 772 926 q 722 889 738 898 l 487 762 z "},"":{"ha":840,"x_min":172,"x_max":861,"o":"m 728 99 q 726 79 726 88 q 749 43 726 52 q 777 18 777 33 q 777 14 777 16 q 759 0 773 0 l 594 0 q 585 6 585 0 l 585 9 l 595 53 q 523 27 554 39 q 465 8 492 16 q 329 -20 397 -13 q 311 -20 319 -20 q 212 18 254 -20 q 172 141 172 54 q 192 288 172 202 l 248 533 q 251 552 251 543 q 227 588 251 578 q 199 614 199 599 q 200 618 199 616 q 218 632 203 632 q 310 646 263 634 q 404 673 356 658 l 315 288 q 300 179 300 226 q 328 79 300 114 q 416 41 359 41 q 490 54 448 41 q 530 67 505 58 q 573 82 555 76 q 585 86 576 83 q 604 93 593 89 l 705 533 q 708 552 708 543 q 684 588 708 578 q 656 614 656 599 q 657 618 656 616 q 675 632 661 632 q 767 646 720 634 q 861 673 813 658 l 728 99 m 384 743 l 593 979 l 673 979 l 774 743 l 735 743 l 612 885 l 422 743 l 384 743 z "},"":{"ha":840,"x_min":172,"x_max":861,"o":"m 728 99 q 726 79 726 88 q 749 43 726 52 q 777 18 777 33 q 777 14 777 16 q 759 0 773 0 l 594 0 q 585 6 585 0 l 585 9 l 595 53 q 523 27 554 39 q 465 8 492 16 q 329 -20 397 -13 q 311 -20 319 -20 q 212 18 254 -20 q 172 141 172 54 q 192 288 172 202 l 248 533 q 251 552 251 543 q 227 588 251 578 q 199 614 199 599 q 200 618 199 616 q 218 632 203 632 q 310 646 263 634 q 404 673 356 658 l 315 288 q 300 179 300 226 q 328 79 300 114 q 416 41 359 41 q 490 54 448 41 q 530 67 505 58 q 573 82 555 76 q 585 86 576 83 q 604 93 593 89 l 705 533 q 708 552 708 543 q 684 588 708 578 q 656 614 656 599 q 657 618 656 616 q 675 632 661 632 q 767 646 720 634 q 861 673 813 658 l 728 99 m 658 857 q 688 904 664 883 q 740 924 713 924 q 793 882 785 924 q 794 869 794 876 q 792 852 794 861 q 762 808 787 828 q 709 788 737 788 q 707 787 708 787 q 665 808 680 787 q 655 838 655 821 q 658 857 655 846 m 418 857 q 473 919 428 901 q 502 924 489 924 q 543 904 527 924 q 555 871 555 888 q 553 858 555 865 q 542 830 550 844 q 469 788 514 788 q 414 832 414 788 q 418 857 414 843 z "},"":{"ha":772,"x_min":63,"x_max":799,"o":"m 239 543 q 215 583 233 568 q 183 602 199 594 q 165 619 166 609 l 165 625 q 175 631 166 631 l 397 631 q 413 619 410 631 q 414 616 414 618 q 413 614 414 615 q 398 600 411 606 q 372 576 382 592 q 367 563 368 570 q 366 555 366 559 q 367 546 366 551 l 444 113 l 687 486 q 699 514 696 500 q 701 528 701 521 q 691 560 701 544 l 675 587 l 747 635 q 755 639 751 639 q 764 633 760 639 l 793 595 q 799 576 799 587 q 798 565 799 570 q 789 543 795 555 q 739 467 770 510 l 231 -281 q 177 -355 200 -326 q 129 -384 154 -384 l 127 -384 l 73 -382 q 63 -372 63 -380 l 63 -369 l 77 -292 l 112 -291 q 186 -251 157 -290 l 355 -13 q 342 -9 345 -13 q 340 2 341 -7 q 338 14 338 10 l 239 543 m 487 762 q 436 744 454 744 q 432 745 434 744 q 427 749 427 745 l 427 750 q 460 784 429 759 l 561 868 q 635 930 581 885 q 708 986 689 976 q 737 994 723 994 q 760 989 749 994 q 779 959 779 980 q 777 945 779 952 q 755 912 772 926 q 722 889 738 898 l 487 762 z "},"":{"ha":800,"x_min":5,"x_max":849,"o":"m 496 992 l 399 573 l 595 641 q 632 649 617 648 q 645 649 638 649 q 661 648 652 648 q 808 570 755 644 q 849 431 849 509 q 846 387 849 410 q 836 333 842 359 q 815 263 827 296 q 744 149 793 205 q 669 86 717 117 q 631 68 651 75 q 512 27 572 47 q 395 -13 453 7 q 371 -17 382 -17 l 368 -17 q 268 4 325 -15 l 267 4 l 184 -357 q 103 -330 144 -342 q 18 -316 62 -318 q 5 -307 5 -316 q 6 -302 5 -305 q 47 -273 10 -285 q 94 -217 84 -260 l 341 852 q 344 872 344 863 q 320 908 344 899 q 292 934 292 919 q 292 938 292 936 q 311 952 296 952 q 402 966 356 954 q 496 992 449 977 m 291 105 q 350 59 313 79 q 423 38 388 39 l 427 38 q 454 43 438 38 q 507 61 480 52 q 559 79 533 70 q 591 97 577 85 q 672 205 642 141 q 705 304 694 254 q 711 332 709 318 q 716 391 716 363 q 695 490 716 448 q 551 580 650 580 q 532 579 542 580 q 494 570 515 577 q 445 551 477 564 q 389 530 412 538 l 291 105 z "},"":{"ha":772,"x_min":63,"x_max":799,"o":"m 239 543 q 215 583 233 568 q 183 602 199 594 q 165 619 166 609 l 165 625 q 175 631 166 631 l 397 631 q 413 619 410 631 q 414 616 414 618 q 413 614 414 615 q 398 600 411 606 q 372 576 382 592 q 367 563 368 570 q 366 555 366 559 q 367 546 366 551 l 444 113 l 687 486 q 699 514 696 500 q 701 528 701 521 q 691 560 701 544 l 675 587 l 747 635 q 755 639 751 639 q 764 633 760 639 l 793 595 q 799 576 799 587 q 798 565 799 570 q 789 543 795 555 q 739 467 770 510 l 231 -281 q 177 -355 200 -326 q 129 -384 154 -384 l 127 -384 l 73 -382 q 63 -372 63 -380 l 63 -369 l 77 -292 l 112 -291 q 186 -251 157 -290 l 355 -13 q 342 -9 345 -13 q 340 2 341 -7 q 338 14 338 10 l 239 543 m 619 857 q 650 904 625 883 q 702 924 674 924 q 754 882 747 924 q 755 868 755 875 q 753 852 755 860 q 724 808 748 827 q 669 783 694 783 q 627 807 645 783 q 616 838 616 820 q 619 857 616 846 m 380 857 q 435 919 390 901 q 464 924 451 924 q 505 904 489 924 q 517 871 517 888 q 515 858 517 865 q 504 830 512 844 q 431 788 476 788 q 376 832 376 788 q 380 857 376 843 z "},"":{"ha":1080,"x_min":37,"x_max":1051,"o":"m 791 968 q 830 772 807 888 q 878 533 853 656 q 926 294 903 410 q 966 99 949 178 q 995 54 970 74 q 1022 37 1008 43 q 1044 24 1036 30 q 1050 14 1049 19 q 1051 12 1051 13 q 1050 9 1051 10 q 1048 4 1050 7 q 1039 0 1045 0 l 810 0 q 798 4 804 0 q 793 14 793 9 q 792 18 792 16 q 804 31 793 24 q 821 44 811 37 q 838 62 831 51 q 843 75 842 68 q 844 88 844 81 q 844 100 844 94 l 797 332 l 401 332 q 326 215 363 273 q 251 100 289 157 q 239 75 241 86 q 235 66 237 71 q 235 57 235 61 l 235 53 q 238 38 235 44 q 242 26 241 33 q 241 19 241 21 q 239 14 241 17 q 220 0 231 0 l 45 0 q 37 4 39 0 q 37 5 37 5 q 37 7 37 6 q 39 14 37 9 q 66 32 45 23 q 91 42 77 37 q 118 56 104 48 q 165 99 147 74 l 749 968 l 791 968 m 605 1156 l 1011 1156 q 1017 1150 1017 1156 l 1017 1148 l 1004 1090 q 995 1083 1002 1083 l 589 1083 q 583 1088 583 1083 l 583 1090 l 596 1148 q 605 1156 597 1156 m 786 387 l 704 800 q 570 593 637 696 q 437 387 503 490 l 786 387 z "},"":{"ha":783,"x_min":98,"x_max":807,"o":"m 554 59 l 352 -9 q 314 -17 328 -17 l 286 -17 q 138 62 191 -12 q 98 196 98 119 q 101 243 98 219 q 111 298 105 272 q 132 367 119 334 q 203 482 153 425 q 277 545 227 512 q 315 563 295 555 q 433 604 374 583 q 552 644 492 624 q 575 648 565 648 l 578 648 q 678 627 621 646 q 684 624 684 625 q 718 610 698 618 q 734 608 726 608 q 754 614 745 608 q 779 634 771 626 q 789 639 783 639 q 795 637 792 639 q 807 626 807 633 l 807 624 l 686 99 q 684 79 684 88 q 707 43 684 52 q 735 18 735 33 q 734 14 735 16 q 717 0 731 0 l 552 0 q 543 6 543 0 l 543 9 l 554 59 m 661 522 q 598 569 639 547 q 524 593 558 591 l 521 593 q 492 587 507 593 q 440 569 466 578 q 387 551 414 560 q 356 534 368 545 q 275 425 303 489 q 241 330 252 377 q 235 299 237 315 q 231 240 231 267 q 252 140 231 182 q 347 58 282 77 q 397 51 370 51 q 414 52 405 51 q 452 60 429 53 q 504 78 468 66 q 564 99 541 91 l 661 522 m 372 911 l 779 911 q 784 907 784 911 l 784 905 l 770 846 q 762 839 769 839 l 355 839 q 350 844 350 839 l 350 846 l 363 905 q 372 911 365 911 z "},"":{"ha":1080,"x_min":37,"x_max":1051,"o":"m 791 968 q 830 772 807 888 q 878 533 853 656 q 926 294 903 410 q 966 99 949 178 q 995 54 970 74 q 1022 37 1008 43 q 1044 24 1036 30 q 1050 14 1049 19 q 1051 12 1051 13 q 1050 9 1051 10 q 1048 4 1050 7 q 1039 0 1045 0 l 810 0 q 798 4 804 0 q 793 14 793 9 q 792 18 792 16 q 804 31 793 24 q 821 44 811 37 q 838 62 831 51 q 843 75 842 68 q 844 88 844 81 q 844 100 844 94 l 797 332 l 401 332 q 326 215 363 273 q 251 100 289 157 q 239 75 241 86 q 235 66 237 71 q 235 57 235 61 l 235 53 q 238 38 235 44 q 242 26 241 33 q 241 19 241 21 q 239 14 241 17 q 220 0 231 0 l 45 0 q 37 4 39 0 q 37 5 37 5 q 37 7 37 6 q 39 14 37 9 q 66 32 45 23 q 91 42 77 37 q 118 56 104 48 q 165 99 147 74 l 749 968 l 791 968 m 787 1033 q 641 1109 680 1033 q 623 1188 623 1143 q 627 1234 623 1210 l 628 1236 q 650 1253 631 1253 q 663 1234 663 1253 q 807 1121 667 1123 l 810 1121 q 1003 1234 948 1121 q 1025 1253 1012 1253 q 1041 1240 1041 1253 q 1040 1236 1041 1238 l 1040 1234 q 968 1109 1018 1160 q 787 1033 895 1033 m 786 387 l 704 800 q 570 593 637 696 q 437 387 503 490 l 786 387 z "},"":{"ha":783,"x_min":98,"x_max":821,"o":"m 554 59 l 352 -9 q 314 -17 328 -17 l 286 -17 q 138 62 191 -12 q 98 196 98 119 q 101 243 98 219 q 111 298 105 272 q 132 367 119 334 q 203 482 153 425 q 277 545 227 512 q 315 563 295 555 q 433 604 374 583 q 552 644 492 624 q 575 648 565 648 l 578 648 q 678 627 621 646 q 684 624 684 625 q 718 610 698 618 q 734 608 726 608 q 754 614 745 608 q 779 634 771 626 q 789 639 783 639 q 795 637 792 639 q 807 626 807 633 l 807 624 l 686 99 q 684 79 684 88 q 707 43 684 52 q 735 18 735 33 q 734 14 735 16 q 717 0 731 0 l 552 0 q 543 6 543 0 l 543 9 l 554 59 m 661 522 q 598 569 639 547 q 524 593 558 591 l 521 593 q 492 587 507 593 q 440 569 466 578 q 387 551 414 560 q 356 534 368 545 q 275 425 303 489 q 241 330 252 377 q 235 299 237 315 q 231 240 231 267 q 252 140 231 182 q 347 58 282 77 q 397 51 370 51 q 414 52 405 51 q 452 60 429 53 q 504 78 468 66 q 564 99 541 91 l 661 522 m 567 759 q 421 835 458 759 q 404 914 404 869 q 408 960 404 936 l 408 962 q 429 979 412 979 q 444 960 442 979 q 587 848 447 848 l 590 848 q 783 960 728 848 q 806 979 792 979 q 821 968 821 979 q 820 964 821 966 l 819 960 q 748 835 799 888 q 567 759 674 759 z "},"":{"ha":1080,"x_min":37,"x_max":1051,"o":"m 536 -12 q 541 -37 541 -25 q 540 -50 541 -43 q 526 -75 536 -64 q 477 -124 503 -104 q 427 -184 433 -159 q 427 -191 427 -187 q 440 -216 427 -205 q 481 -231 458 -231 q 550 -208 511 -231 l 530 -254 q 431 -272 470 -272 l 421 -272 q 350 -222 350 -267 q 351 -210 350 -216 l 353 -204 q 411 -121 365 -153 q 472 -75 444 -98 q 496 -38 491 -61 q 498 -21 498 -30 q 498 -12 498 -16 l 536 -12 m 791 968 q 830 772 807 888 q 878 533 853 656 q 926 294 903 410 q 966 99 949 178 q 995 54 970 74 q 1022 37 1008 43 q 1044 24 1036 30 q 1050 14 1049 19 q 1051 12 1051 13 q 1050 9 1051 10 q 1048 4 1050 7 q 1039 0 1045 0 l 810 0 q 798 4 804 0 q 793 14 793 9 q 792 18 792 16 q 804 31 793 24 q 821 44 811 37 q 838 62 831 51 q 843 75 842 68 q 844 88 844 81 q 844 100 844 94 l 797 332 l 401 332 q 326 215 363 273 q 251 100 289 157 q 239 75 241 86 q 235 66 237 71 q 235 57 235 61 l 235 53 q 238 38 235 44 q 242 26 241 33 q 241 19 241 21 q 239 14 241 17 q 220 0 231 0 l 45 0 q 37 4 39 0 q 37 5 37 5 q 37 7 37 6 q 39 14 37 9 q 66 32 45 23 q 91 42 77 37 q 118 56 104 48 q 165 99 147 74 l 749 968 l 791 968 m 786 387 l 704 800 q 570 593 637 696 q 437 387 503 490 l 786 387 z "},"":{"ha":783,"x_min":98,"x_max":807,"o":"m 421 -14 q 427 -39 427 -27 q 425 -52 427 -45 q 412 -77 422 -66 q 362 -126 388 -106 q 313 -186 319 -161 q 313 -193 313 -190 q 326 -218 313 -208 q 367 -233 344 -233 q 436 -210 397 -233 l 415 -256 q 317 -274 356 -274 l 307 -274 q 236 -224 236 -269 q 237 -212 236 -218 l 239 -206 q 296 -123 250 -155 q 358 -77 329 -100 q 382 -40 377 -63 q 384 -24 384 -33 q 383 -14 384 -19 l 421 -14 m 554 59 l 352 -9 q 314 -17 328 -17 l 286 -17 q 138 62 191 -12 q 98 196 98 119 q 101 243 98 219 q 111 298 105 272 q 132 367 119 334 q 203 482 153 425 q 277 545 227 512 q 315 563 295 555 q 433 604 374 583 q 552 644 492 624 q 575 648 565 648 l 578 648 q 678 627 621 646 q 684 624 684 625 q 718 610 698 618 q 734 608 726 608 q 754 614 745 608 q 779 634 771 626 q 789 639 783 639 q 795 637 792 639 q 807 626 807 633 l 807 624 l 686 99 q 684 79 684 88 q 707 43 684 52 q 735 18 735 33 q 734 14 735 16 q 717 0 731 0 l 552 0 q 543 6 543 0 l 543 9 l 554 59 m 661 522 q 598 569 639 547 q 524 593 558 591 l 521 593 q 492 587 507 593 q 440 569 466 578 q 387 551 414 560 q 356 534 368 545 q 275 425 303 489 q 241 330 252 377 q 235 299 237 315 q 231 240 231 267 q 252 140 231 182 q 347 58 282 77 q 397 51 370 51 q 414 52 405 51 q 452 60 429 53 q 504 78 468 66 q 564 99 541 91 l 661 522 z "},"":{"ha":949,"x_min":139,"x_max":1115,"o":"m 569 -25 q 231 108 361 -25 q 139 346 139 201 q 155 475 139 406 q 396 842 208 704 q 802 980 585 980 q 963 963 880 980 q 1115 895 1047 945 l 1065 752 q 1049 740 1060 740 l 1047 740 q 1034 759 1039 741 q 953 884 1011 853 q 787 916 895 916 q 493 810 635 916 q 298 475 351 705 q 288 387 288 431 q 342 190 288 286 q 585 44 420 52 q 616 43 602 43 q 766 70 703 43 q 903 195 838 101 q 926 214 917 213 l 929 214 q 939 203 939 214 l 939 202 l 937 186 l 840 21 q 699 -16 768 -6 q 569 -25 629 -25 m 743 1072 q 692 1054 709 1054 q 688 1055 690 1054 q 684 1058 684 1055 l 684 1059 q 715 1094 686 1069 l 816 1178 q 890 1240 836 1195 q 963 1296 945 1286 q 993 1304 979 1304 q 1015 1299 1004 1304 q 1034 1270 1034 1291 q 1031 1255 1034 1263 q 1010 1222 1027 1236 q 977 1199 993 1208 l 743 1072 z "},"":{"ha":627,"x_min":111,"x_max":812,"o":"m 526 648 l 541 648 q 730 589 651 648 l 692 474 q 681 465 688 465 l 679 465 q 670 479 673 466 q 618 564 656 538 q 519 590 581 590 l 503 590 q 378 547 427 586 q 305 463 334 512 q 262 352 277 413 q 255 311 258 332 q 250 246 250 277 q 271 145 250 188 q 391 49 315 60 q 416 47 403 47 q 561 87 477 47 q 618 109 604 109 q 623 107 621 109 q 623 104 623 106 l 623 102 q 609 76 621 94 q 578 44 594 56 q 472 -4 532 9 q 362 -17 413 -17 q 167 54 236 -16 q 111 201 111 109 q 115 252 111 225 q 126 311 119 282 q 147 382 134 347 q 221 501 170 441 q 354 604 275 564 q 526 648 433 644 m 520 762 q 469 744 487 744 q 466 745 467 744 q 461 749 461 745 l 461 750 q 493 784 463 759 l 594 868 q 668 930 614 885 q 741 986 722 976 q 770 994 756 994 q 793 989 782 994 q 812 959 812 980 q 810 945 812 952 q 788 912 806 926 q 755 889 771 898 l 520 762 z "},"":{"ha":949,"x_min":139,"x_max":1115,"o":"m 569 -25 q 231 108 361 -25 q 139 346 139 201 q 155 475 139 406 q 396 842 208 704 q 802 980 585 980 q 963 963 880 980 q 1115 895 1047 945 l 1065 752 q 1049 740 1060 740 l 1047 740 q 1034 759 1039 741 q 953 884 1011 853 q 787 916 895 916 q 493 810 635 916 q 298 475 351 705 q 288 387 288 431 q 342 190 288 286 q 585 44 420 52 q 616 43 602 43 q 766 70 703 43 q 903 195 838 101 q 926 214 917 213 l 929 214 q 939 203 939 214 l 939 202 l 937 186 l 840 21 q 699 -16 768 -6 q 569 -25 629 -25 m 600 1055 l 810 1291 l 888 1291 l 990 1055 l 951 1055 l 828 1196 l 639 1055 l 600 1055 z "},"":{"ha":627,"x_min":111,"x_max":778,"o":"m 526 648 l 541 648 q 730 589 651 648 l 692 474 q 681 465 688 465 l 679 465 q 670 479 673 466 q 618 564 656 538 q 519 590 581 590 l 503 590 q 378 547 427 586 q 305 463 334 512 q 262 352 277 413 q 255 311 258 332 q 250 246 250 277 q 271 145 250 188 q 391 49 315 60 q 416 47 403 47 q 561 87 477 47 q 618 109 604 109 q 623 107 621 109 q 623 104 623 106 l 623 102 q 609 76 621 94 q 578 44 594 56 q 472 -4 532 9 q 362 -17 413 -17 q 167 54 236 -16 q 111 201 111 109 q 115 252 111 225 q 126 311 119 282 q 147 382 134 347 q 221 501 170 441 q 354 604 275 564 q 526 648 433 644 m 388 743 l 597 979 l 676 979 l 778 743 l 739 743 l 615 885 l 427 743 l 388 743 z "},"":{"ha":949,"x_min":139,"x_max":1115,"o":"m 569 -25 q 231 108 361 -25 q 139 346 139 201 q 155 475 139 406 q 396 842 208 704 q 802 980 585 980 q 963 963 880 980 q 1115 895 1047 945 l 1065 752 q 1049 740 1060 740 l 1047 740 q 1034 759 1039 741 q 953 884 1011 853 q 787 916 895 916 q 493 810 635 916 q 298 475 351 705 q 288 387 288 431 q 342 190 288 286 q 585 44 420 52 q 616 43 602 43 q 766 70 703 43 q 903 195 838 101 q 926 214 917 213 l 929 214 q 939 203 939 214 l 939 202 l 937 186 l 840 21 q 699 -16 768 -6 q 569 -25 629 -25 m 821 1137 q 790 1143 804 1137 q 767 1161 774 1152 q 755 1187 758 1173 q 754 1202 754 1194 q 756 1219 754 1211 q 770 1252 760 1235 q 794 1279 779 1267 q 826 1297 807 1289 q 859 1304 844 1304 q 891 1297 876 1304 q 913 1279 904 1290 q 924 1252 922 1268 q 926 1239 926 1246 q 923 1219 926 1230 q 909 1187 919 1202 q 886 1161 899 1171 q 855 1143 873 1151 q 821 1137 838 1137 z "},"":{"ha":627,"x_min":111,"x_max":730,"o":"m 526 648 l 541 648 q 730 589 651 648 l 692 474 q 681 465 688 465 l 679 465 q 670 479 673 466 q 618 564 656 538 q 519 590 581 590 l 503 590 q 378 547 427 586 q 305 463 334 512 q 262 352 277 413 q 255 311 258 332 q 250 246 250 277 q 271 145 250 188 q 391 49 315 60 q 416 47 403 47 q 561 87 477 47 q 618 109 604 109 q 623 107 621 109 q 623 104 623 106 l 623 102 q 609 76 621 94 q 578 44 594 56 q 472 -4 532 9 q 362 -17 413 -17 q 167 54 236 -16 q 111 201 111 109 q 115 252 111 225 q 126 311 119 282 q 147 382 134 347 q 221 501 170 441 q 354 604 275 564 q 526 648 433 644 m 562 785 q 532 792 547 785 q 509 809 518 798 q 497 836 499 823 q 496 850 496 842 q 498 867 496 859 q 513 901 502 884 q 536 927 521 915 q 568 945 547 937 q 601 952 586 952 q 633 945 617 952 q 655 927 647 937 q 667 901 663 916 q 667 890 667 895 q 665 867 667 879 q 651 836 661 850 q 627 809 642 821 q 597 792 612 798 q 562 785 578 785 z "},"":{"ha":949,"x_min":139,"x_max":1115,"o":"m 569 -25 q 231 108 361 -25 q 139 346 139 201 q 155 475 139 406 q 396 842 208 704 q 802 980 585 980 q 963 963 880 980 q 1115 895 1047 945 l 1065 752 q 1049 740 1060 740 l 1047 740 q 1034 759 1039 741 q 953 884 1011 853 q 787 916 895 916 q 493 810 635 916 q 298 475 351 705 q 288 387 288 431 q 342 190 288 286 q 585 44 420 52 q 616 43 602 43 q 766 70 703 43 q 903 195 838 101 q 926 214 917 213 l 929 214 q 939 203 939 214 l 939 202 l 937 186 l 840 21 q 699 -16 768 -6 q 569 -25 629 -25 m 654 1291 l 693 1291 l 817 1149 l 1006 1291 l 1044 1291 l 834 1055 l 755 1055 l 654 1291 z "},"":{"ha":627,"x_min":111,"x_max":818,"o":"m 526 648 l 541 648 q 730 589 651 648 l 692 474 q 681 465 688 465 l 679 465 q 670 479 673 466 q 618 564 656 538 q 519 590 581 590 l 503 590 q 378 547 427 586 q 305 463 334 512 q 262 352 277 413 q 255 311 258 332 q 250 246 250 277 q 271 145 250 188 q 391 49 315 60 q 416 47 403 47 q 561 87 477 47 q 618 109 604 109 q 623 107 621 109 q 623 104 623 106 l 623 102 q 609 76 621 94 q 578 44 594 56 q 472 -4 532 9 q 362 -17 413 -17 q 167 54 236 -16 q 111 201 111 109 q 115 252 111 225 q 126 311 119 282 q 147 382 134 347 q 221 501 170 441 q 354 604 275 564 q 526 648 433 644 m 428 979 l 467 979 l 590 837 l 779 979 l 818 979 l 608 743 l 529 743 l 428 979 z "},"":{"ha":1075,"x_min":75,"x_max":1151,"o":"m 1141 536 q 1133 493 1137 514 q 1044 291 1107 380 q 864 115 970 184 q 466 -5 685 -2 l 412 -5 q 338 -4 372 -5 l 259 -4 q 174 -2 203 -4 l 157 -2 q 86 -6 130 -2 q 75 3 75 -6 q 75 9 75 6 q 116 38 79 26 q 163 94 153 50 l 338 856 q 341 876 341 867 q 317 911 341 902 q 290 937 290 922 q 290 941 290 939 q 308 955 294 955 q 366 954 336 954 q 424 955 394 954 q 538 958 483 957 l 578 958 q 786 953 682 958 q 998 903 909 945 q 1124 776 1082 861 q 1151 642 1151 722 q 1141 536 1151 593 m 654 1291 l 693 1291 l 817 1149 l 1006 1291 l 1044 1291 l 834 1055 l 755 1055 l 654 1291 m 476 890 l 290 67 q 447 51 372 51 q 699 104 584 51 q 884 258 806 155 q 990 499 956 353 l 996 522 q 1008 629 1008 581 q 999 706 1008 671 q 930 825 979 780 q 736 901 858 890 q 650 905 694 905 q 476 890 567 905 z "},"":{"ha":949,"x_min":111,"x_max":1118,"o":"m 568 59 l 366 -9 q 328 -17 342 -17 l 300 -17 q 152 62 205 -12 q 111 196 111 119 q 115 243 111 219 q 125 298 119 272 q 145 367 133 334 q 216 482 167 425 q 291 545 241 512 q 329 563 309 555 q 447 604 388 583 q 566 644 506 624 q 589 648 578 648 l 592 648 q 692 627 635 646 q 698 624 697 625 l 751 852 q 753 872 753 863 q 730 908 753 899 q 702 934 702 919 q 703 938 702 936 q 720 952 706 952 q 812 966 766 954 q 906 992 859 977 l 700 99 q 697 79 697 88 q 721 43 697 52 q 749 18 749 33 q 748 14 749 16 q 730 0 745 0 l 566 0 q 556 6 556 0 l 556 9 l 568 59 m 675 522 q 611 571 650 550 q 537 593 571 591 l 534 593 q 506 587 521 593 q 453 569 479 578 q 401 551 427 560 q 370 534 382 545 q 288 425 317 489 q 254 330 265 377 q 249 299 251 315 q 244 240 244 267 q 265 140 244 182 q 360 58 296 77 q 410 51 384 51 q 428 52 418 51 q 465 60 443 53 q 518 78 481 66 q 577 99 554 91 l 675 522 m 922 688 q 877 648 895 654 q 873 647 874 647 q 869 652 869 647 q 869 658 869 654 q 884 692 872 669 l 941 804 q 983 888 952 827 q 1028 965 1014 949 q 1078 992 1048 989 l 1082 992 q 1116 966 1107 992 q 1118 955 1118 961 q 1117 945 1118 950 q 1112 931 1116 939 q 1089 897 1101 911 l 922 688 z "},"":{"ha":1075,"x_min":75,"x_max":1151,"o":"m 1141 536 q 1133 493 1137 514 q 1044 291 1107 380 q 864 115 970 184 q 466 -5 685 -2 l 412 -5 q 338 -4 372 -5 l 259 -4 q 174 -2 203 -4 l 157 -2 q 86 -6 130 -2 q 75 3 75 -6 q 75 9 75 6 q 116 38 79 26 q 163 94 153 50 l 248 465 l 138 465 q 127 473 127 465 q 127 477 127 475 l 134 504 q 151 517 136 517 l 260 517 l 338 856 q 341 876 341 867 q 317 911 341 902 q 290 937 290 922 q 290 941 290 939 q 308 955 294 955 q 366 954 336 954 q 424 955 394 954 q 538 958 483 957 l 578 958 q 786 953 682 958 q 998 903 909 945 q 1124 776 1082 861 q 1151 642 1151 722 q 1141 536 1151 593 m 391 517 l 605 517 q 616 508 616 517 q 616 504 616 506 l 610 477 q 593 465 606 465 l 379 465 l 290 67 q 447 51 372 51 q 699 104 584 51 q 884 258 806 155 q 990 499 956 353 l 996 522 q 1008 629 1008 581 q 999 706 1008 671 q 930 825 979 780 q 736 901 858 890 q 650 905 694 905 q 476 890 567 905 l 391 517 z "},"":{"ha":785,"x_min":95,"x_max":924,"o":"m 497 769 l 703 769 l 749 965 q 827 939 787 950 q 910 926 867 928 q 922 916 922 926 q 921 911 922 914 q 882 883 918 895 q 836 829 846 871 l 822 769 l 918 769 q 924 764 924 769 q 924 760 924 762 l 913 718 q 903 709 911 709 l 808 709 l 667 96 q 664 77 664 85 q 687 42 664 51 q 714 17 714 31 l 714 14 q 696 0 711 0 l 536 0 q 528 6 528 0 l 528 8 l 539 58 l 342 -9 q 305 -17 322 -16 q 278 -16 288 -17 q 134 60 186 -13 q 95 189 95 115 q 99 237 95 212 q 109 292 102 265 q 128 357 117 326 q 197 469 149 412 q 269 529 220 497 q 307 547 287 541 q 421 587 364 567 q 536 626 479 606 q 563 631 549 631 q 659 609 605 629 l 666 607 l 689 709 l 483 709 q 475 715 475 709 q 476 718 475 717 l 486 760 q 497 769 488 769 m 643 508 q 582 554 621 532 q 509 576 543 575 q 479 571 494 576 q 427 553 452 562 q 376 536 401 545 q 346 519 357 530 q 267 414 295 475 q 234 321 245 367 q 229 290 231 306 q 224 233 224 260 q 244 136 224 177 q 336 57 275 75 q 386 50 361 50 q 403 50 395 50 q 439 59 418 52 q 490 76 455 64 q 548 96 525 88 l 643 508 z "},"":{"ha":848,"x_min":108,"x_max":968,"o":"m 311 64 l 600 64 q 718 112 663 64 q 802 188 773 161 q 824 203 817 203 q 836 193 836 203 q 835 189 836 191 q 830 174 833 180 l 741 0 l 117 0 q 108 9 108 0 q 109 14 108 11 q 149 43 113 31 q 196 99 186 55 l 370 852 q 372 872 372 863 q 349 909 372 899 q 321 934 321 919 q 321 938 321 936 q 339 952 325 952 l 968 952 l 928 778 q 911 764 925 764 q 892 791 904 764 q 850 863 869 838 q 791 889 831 889 l 501 889 l 416 521 l 571 521 q 636 556 614 521 q 675 591 658 591 q 686 582 686 591 q 686 576 686 579 l 646 404 q 629 390 643 390 q 604 425 612 390 q 553 459 596 459 l 401 459 l 311 64 m 511 1156 l 918 1156 q 924 1150 924 1156 l 924 1148 l 910 1090 q 902 1083 909 1083 l 495 1083 q 490 1088 490 1083 l 490 1090 l 503 1148 q 511 1156 505 1156 z "},"":{"ha":678,"x_min":94,"x_max":751,"o":"m 347 -17 q 116 102 163 -17 q 94 214 94 155 q 104 300 94 256 q 127 374 113 336 q 273 576 178 504 q 500 648 368 648 q 730 466 730 648 q 718 374 730 425 q 707 335 711 347 q 677 324 703 324 l 248 324 q 237 235 237 276 q 262 125 237 172 q 414 47 304 47 q 475 54 441 47 q 562 85 510 61 q 619 106 606 106 q 625 105 623 106 q 625 102 625 104 l 625 99 q 610 74 623 90 q 592 52 599 58 q 581 43 586 47 q 465 -6 527 4 q 347 -17 403 -17 m 259 374 l 614 374 q 626 466 626 427 q 609 540 626 512 q 487 590 578 590 q 338 528 395 590 q 259 374 281 467 m 338 913 l 745 913 q 751 909 751 913 l 751 907 l 737 848 q 728 841 735 841 l 321 841 q 315 846 315 841 q 316 848 315 847 l 330 907 q 338 913 331 913 z "},"":{"ha":848,"x_min":108,"x_max":968,"o":"m 311 64 l 600 64 q 718 112 663 64 q 802 188 773 161 q 824 203 817 203 q 836 193 836 203 q 835 189 836 191 q 830 174 833 180 l 741 0 l 117 0 q 108 9 108 0 q 109 14 108 11 q 149 43 113 31 q 196 99 186 55 l 370 852 q 372 872 372 863 q 349 909 372 899 q 321 934 321 919 q 321 938 321 936 q 339 952 325 952 l 968 952 l 928 778 q 911 764 925 764 q 892 791 904 764 q 850 863 869 838 q 791 889 831 889 l 501 889 l 416 521 l 571 521 q 636 556 614 521 q 675 591 658 591 q 686 582 686 591 q 686 576 686 579 l 646 404 q 629 390 643 390 q 604 425 612 390 q 553 459 596 459 l 401 459 l 311 64 m 687 1033 q 541 1109 579 1033 q 523 1188 523 1143 q 527 1234 523 1210 l 528 1236 q 549 1253 531 1253 q 564 1234 562 1253 q 707 1121 566 1123 l 710 1121 q 903 1234 848 1121 q 925 1253 911 1253 q 941 1240 941 1253 q 940 1236 941 1238 l 939 1234 q 867 1109 918 1160 q 687 1033 794 1033 z "},"":{"ha":678,"x_min":94,"x_max":759,"o":"m 347 -17 q 116 102 163 -17 q 94 214 94 155 q 104 300 94 256 q 127 374 113 336 q 273 576 178 504 q 500 648 368 648 q 730 466 730 648 q 718 374 730 425 q 707 335 711 347 q 677 324 703 324 l 248 324 q 237 235 237 276 q 262 125 237 172 q 414 47 304 47 q 475 54 441 47 q 562 85 510 61 q 619 106 606 106 q 625 105 623 106 q 625 102 625 104 l 625 99 q 610 74 623 90 q 592 52 599 58 q 581 43 586 47 q 465 -6 527 4 q 347 -17 403 -17 m 259 374 l 614 374 q 626 466 626 427 q 609 540 626 512 q 487 590 578 590 q 338 528 395 590 q 259 374 281 467 m 505 756 q 359 832 397 756 q 341 911 341 867 q 346 958 341 933 l 347 960 q 368 976 350 976 q 382 958 382 976 q 525 845 385 846 l 528 845 q 722 958 667 845 q 744 976 730 976 q 759 964 759 976 q 758 958 759 961 q 686 832 736 885 q 505 756 612 756 z "},"":{"ha":848,"x_min":108,"x_max":968,"o":"m 311 64 l 600 64 q 718 112 663 64 q 802 188 773 161 q 824 203 817 203 q 836 193 836 203 q 835 189 836 191 q 830 174 833 180 l 741 0 l 117 0 q 108 9 108 0 q 109 14 108 11 q 149 43 113 31 q 196 99 186 55 l 370 852 q 372 872 372 863 q 349 909 372 899 q 321 934 321 919 q 321 938 321 936 q 339 952 325 952 l 968 952 l 928 778 q 911 764 925 764 q 892 791 904 764 q 850 863 869 838 q 791 889 831 889 l 501 889 l 416 521 l 571 521 q 636 556 614 521 q 675 591 658 591 q 686 582 686 591 q 686 576 686 579 l 646 404 q 629 390 643 390 q 604 425 612 390 q 553 459 596 459 l 401 459 l 311 64 m 693 1059 q 662 1065 675 1059 q 640 1083 648 1072 q 627 1109 631 1093 q 626 1122 626 1115 q 629 1141 626 1131 q 642 1175 633 1159 q 667 1201 653 1191 q 697 1219 680 1212 q 731 1226 713 1226 q 763 1219 749 1226 q 785 1201 777 1212 q 797 1175 794 1189 q 798 1162 798 1168 q 795 1141 798 1152 q 782 1109 791 1124 q 758 1083 772 1095 q 728 1065 743 1072 q 693 1059 711 1059 z "},"":{"ha":678,"x_min":94,"x_max":730,"o":"m 347 -17 q 116 102 163 -17 q 94 214 94 155 q 104 300 94 256 q 127 374 113 336 q 273 576 178 504 q 500 648 368 648 q 730 466 730 648 q 718 374 730 425 q 707 335 711 347 q 677 324 703 324 l 248 324 q 237 235 237 276 q 262 125 237 172 q 414 47 304 47 q 475 54 441 47 q 562 85 510 61 q 619 106 606 106 q 625 105 623 106 q 625 102 625 104 l 625 99 q 610 74 623 90 q 592 52 599 58 q 581 43 586 47 q 465 -6 527 4 q 347 -17 403 -17 m 259 374 l 614 374 q 626 466 626 427 q 609 540 626 512 q 487 590 578 590 q 338 528 395 590 q 259 374 281 467 m 549 944 q 609 895 609 944 q 606 869 609 883 q 514 793 588 793 q 454 843 454 793 q 457 869 454 854 q 549 944 474 944 z "},"":{"ha":848,"x_min":108,"x_max":968,"o":"m 447 -15 q 452 -41 452 -28 q 451 -53 452 -47 q 437 -79 448 -67 q 388 -127 414 -107 q 338 -187 345 -162 q 338 -195 338 -191 q 351 -220 338 -209 q 392 -234 369 -234 q 461 -211 422 -234 l 441 -257 q 342 -275 381 -275 l 332 -275 q 261 -225 261 -270 q 262 -214 261 -220 l 264 -208 q 322 -124 276 -157 q 383 -79 355 -101 q 408 -41 402 -64 q 410 -24 410 -33 q 409 -15 410 -20 l 447 -15 m 311 64 l 600 64 q 718 112 663 64 q 802 188 773 161 q 824 203 817 203 q 836 193 836 203 q 835 189 836 191 q 830 174 833 180 l 741 0 l 117 0 q 108 9 108 0 q 109 14 108 11 q 149 43 113 31 q 196 99 186 55 l 370 852 q 372 872 372 863 q 349 909 372 899 q 321 934 321 919 q 321 938 321 936 q 339 952 325 952 l 968 952 l 928 778 q 911 764 925 764 q 892 791 904 764 q 850 863 869 838 q 791 889 831 889 l 501 889 l 416 521 l 571 521 q 636 556 614 521 q 675 591 658 591 q 686 582 686 591 q 686 576 686 579 l 646 404 q 629 390 643 390 q 604 425 612 390 q 553 459 596 459 l 401 459 l 311 64 z "},"":{"ha":678,"x_min":94,"x_max":730,"o":"m 334 -24 q 339 -50 339 -37 q 338 -62 339 -56 q 324 -87 334 -76 q 275 -136 300 -116 q 225 -196 231 -171 q 224 -203 224 -199 q 238 -229 224 -218 q 279 -243 256 -243 q 348 -220 309 -243 l 327 -266 q 229 -284 268 -284 l 219 -284 q 148 -234 148 -279 q 149 -222 148 -229 l 151 -216 q 209 -133 163 -165 q 270 -87 241 -110 q 294 -50 289 -73 q 296 -33 296 -42 q 296 -24 296 -28 l 334 -24 m 347 -17 q 116 102 163 -17 q 94 214 94 155 q 104 300 94 256 q 127 374 113 336 q 273 576 178 504 q 500 648 368 648 q 730 466 730 648 q 718 374 730 425 q 707 335 711 347 q 677 324 703 324 l 248 324 q 237 235 237 276 q 262 125 237 172 q 414 47 304 47 q 475 54 441 47 q 562 85 510 61 q 619 106 606 106 q 625 105 623 106 q 625 102 625 104 l 625 99 q 610 74 623 90 q 592 52 599 58 q 581 43 586 47 q 465 -6 527 4 q 347 -17 403 -17 m 259 374 l 614 374 q 626 466 626 427 q 609 540 626 512 q 487 590 578 590 q 338 528 395 590 q 259 374 281 467 z "},"":{"ha":848,"x_min":108,"x_max":968,"o":"m 311 64 l 600 64 q 718 112 663 64 q 802 188 773 161 q 824 203 817 203 q 836 193 836 203 q 835 189 836 191 q 830 174 833 180 l 741 0 l 117 0 q 108 9 108 0 q 109 14 108 11 q 149 43 113 31 q 196 99 186 55 l 370 852 q 372 872 372 863 q 349 909 372 899 q 321 934 321 919 q 321 938 321 936 q 339 952 325 952 l 968 952 l 928 778 q 911 764 925 764 q 892 791 904 764 q 850 863 869 838 q 791 889 831 889 l 501 889 l 416 521 l 571 521 q 636 556 614 521 q 675 591 658 591 q 686 582 686 591 q 686 576 686 579 l 646 404 q 629 390 643 390 q 604 425 612 390 q 553 459 596 459 l 401 459 l 311 64 m 551 1291 l 590 1291 l 713 1149 l 902 1291 l 941 1291 l 731 1055 l 652 1055 l 551 1291 z "},"":{"ha":678,"x_min":94,"x_max":751,"o":"m 347 -17 q 116 102 163 -17 q 94 214 94 155 q 104 300 94 256 q 127 374 113 336 q 273 576 178 504 q 500 648 368 648 q 730 466 730 648 q 718 374 730 425 q 707 335 711 347 q 677 324 703 324 l 248 324 q 237 235 237 276 q 262 125 237 172 q 414 47 304 47 q 475 54 441 47 q 562 85 510 61 q 619 106 606 106 q 625 105 623 106 q 625 102 625 104 l 625 99 q 610 74 623 90 q 592 52 599 58 q 581 43 586 47 q 465 -6 527 4 q 347 -17 403 -17 m 259 374 l 614 374 q 626 466 626 427 q 609 540 626 512 q 487 590 578 590 q 338 528 395 590 q 259 374 281 467 m 361 979 l 400 979 l 524 837 l 713 979 l 751 979 l 542 743 l 463 743 l 361 979 z "},"":{"ha":1060,"x_min":139,"x_max":1120,"o":"m 569 -25 q 231 108 361 -25 q 139 346 139 201 q 155 475 139 406 q 396 842 208 704 q 802 980 585 980 q 963 963 880 980 q 1115 895 1047 945 l 1065 752 q 1049 740 1060 740 l 1047 740 q 1034 759 1039 741 q 953 884 1011 853 q 787 916 895 916 q 493 810 635 916 q 298 475 351 705 q 288 387 288 431 q 342 190 288 286 q 585 44 420 52 q 616 43 602 43 q 751 64 694 43 q 880 163 820 88 l 909 290 q 910 297 910 294 q 895 323 910 313 q 847 347 879 332 q 819 373 819 360 l 819 376 q 836 390 822 390 l 1108 390 q 1120 380 1120 390 q 1119 376 1120 378 q 1078 346 1115 358 q 1031 290 1042 334 l 970 26 q 762 -3 865 22 q 662 -20 711 -16 q 569 -25 613 -25 m 587 1055 l 798 1291 l 876 1291 l 977 1055 l 939 1055 l 815 1196 l 627 1055 l 587 1055 z "},"":{"ha":748,"x_min":16,"x_max":807,"o":"m 572 135 l 661 522 q 598 569 639 547 q 524 593 558 591 l 521 593 q 492 587 507 593 q 440 569 466 578 q 387 551 414 560 q 356 534 368 545 q 275 425 303 489 q 241 330 252 377 q 235 299 237 315 q 231 240 231 267 q 252 140 231 182 q 347 58 282 77 q 397 51 370 51 q 414 52 405 51 q 452 60 429 53 q 504 78 468 66 q 562 98 540 90 l 571 135 l 572 135 m 553 59 l 352 -9 q 314 -17 328 -17 l 286 -17 q 138 62 191 -12 q 98 196 98 119 q 101 243 98 219 q 111 298 105 272 q 132 367 119 334 q 203 482 153 425 q 277 545 227 512 q 315 563 295 555 q 433 604 374 583 q 552 644 492 624 q 575 648 565 648 l 578 648 q 678 627 621 646 q 684 624 684 625 q 718 610 698 618 q 734 608 726 608 q 754 614 745 608 q 779 634 771 626 q 789 639 783 639 q 795 637 792 639 q 807 626 807 633 l 807 624 l 635 -122 q 571 -262 609 -234 q 469 -311 532 -290 l 266 -381 q 229 -389 243 -389 q 201 -388 211 -389 q 53 -309 106 -385 q 16 -214 25 -269 q 148 -168 81 -191 q 166 -231 152 -203 q 261 -313 197 -293 q 310 -319 285 -319 q 328 -319 319 -319 q 366 -311 344 -317 q 389 -302 374 -307 q 418 -292 403 -298 q 477 -227 455 -276 q 503 -161 500 -177 l 553 59 m 329 743 l 538 979 l 617 979 l 719 743 l 680 743 l 556 885 l 368 743 l 329 743 z "},"":{"ha":1060,"x_min":139,"x_max":1120,"o":"m 569 -25 q 231 108 361 -25 q 139 346 139 201 q 155 475 139 406 q 396 842 208 704 q 802 980 585 980 q 963 963 880 980 q 1115 895 1047 945 l 1065 752 q 1049 740 1060 740 l 1047 740 q 1034 759 1039 741 q 953 884 1011 853 q 787 916 895 916 q 493 810 635 916 q 298 475 351 705 q 288 387 288 431 q 342 190 288 286 q 585 44 420 52 q 616 43 602 43 q 751 64 694 43 q 880 163 820 88 l 909 290 q 910 297 910 294 q 895 323 910 313 q 847 347 879 332 q 819 373 819 360 l 819 376 q 836 390 822 390 l 1108 390 q 1120 380 1120 390 q 1119 376 1120 378 q 1078 346 1115 358 q 1031 290 1042 334 l 970 26 q 762 -3 865 22 q 662 -20 711 -16 q 569 -25 613 -25 m 778 1033 q 631 1109 670 1033 q 614 1188 614 1143 q 618 1234 614 1210 l 618 1236 q 640 1253 622 1253 q 654 1234 654 1253 q 798 1121 657 1123 l 801 1121 q 994 1234 939 1121 q 1016 1253 1002 1253 q 1031 1240 1031 1253 q 1031 1236 1031 1238 l 1030 1234 q 958 1109 1008 1162 q 778 1033 885 1033 z "},"":{"ha":748,"x_min":16,"x_max":807,"o":"m 572 135 l 661 522 q 598 569 639 547 q 524 593 558 591 l 521 593 q 492 587 507 593 q 440 569 466 578 q 387 551 414 560 q 356 534 368 545 q 275 425 303 489 q 241 330 252 377 q 235 299 237 315 q 231 240 231 267 q 252 140 231 182 q 347 58 282 77 q 397 51 370 51 q 414 52 405 51 q 452 60 429 53 q 504 78 468 66 q 562 98 540 90 l 571 135 l 572 135 m 553 59 l 352 -9 q 314 -17 328 -17 l 286 -17 q 138 62 191 -12 q 98 196 98 119 q 101 243 98 219 q 111 298 105 272 q 132 367 119 334 q 203 482 153 425 q 277 545 227 512 q 315 563 295 555 q 433 604 374 583 q 552 644 492 624 q 575 648 565 648 l 578 648 q 678 627 621 646 q 684 624 684 625 q 718 610 698 618 q 734 608 726 608 q 754 614 745 608 q 779 634 771 626 q 789 639 783 639 q 795 637 792 639 q 807 626 807 633 l 807 624 l 635 -122 q 571 -262 609 -234 q 469 -311 532 -290 l 266 -381 q 229 -389 243 -389 q 201 -388 211 -389 q 53 -309 106 -385 q 16 -214 25 -269 q 148 -168 81 -191 q 166 -231 152 -203 q 261 -313 197 -293 q 310 -319 285 -319 q 328 -319 319 -319 q 366 -311 344 -317 q 389 -302 374 -307 q 418 -292 403 -298 q 477 -227 455 -276 q 503 -161 500 -177 l 553 59 m 526 756 q 380 832 418 756 q 363 911 363 867 q 367 958 363 933 l 368 960 q 389 976 371 976 q 404 958 402 976 q 547 845 407 846 l 550 845 q 743 958 687 845 q 765 976 751 976 q 780 964 780 976 q 779 959 780 962 l 779 958 q 707 832 758 884 q 526 756 633 756 z "},"":{"ha":1060,"x_min":139,"x_max":1120,"o":"m 569 -25 q 231 108 361 -25 q 139 346 139 201 q 155 475 139 406 q 396 842 208 704 q 802 980 585 980 q 963 963 880 980 q 1115 895 1047 945 l 1065 752 q 1049 740 1060 740 l 1047 740 q 1034 759 1039 741 q 953 884 1011 853 q 787 916 895 916 q 493 810 635 916 q 298 475 351 705 q 288 387 288 431 q 342 190 288 286 q 585 44 420 52 q 616 43 602 43 q 751 64 694 43 q 880 163 820 88 l 909 290 q 910 297 910 294 q 895 323 910 313 q 847 347 879 332 q 819 373 819 360 l 819 376 q 836 390 822 390 l 1108 390 q 1120 380 1120 390 q 1119 376 1120 378 q 1078 346 1115 358 q 1031 290 1042 334 l 970 26 q 762 -3 865 22 q 662 -20 711 -16 q 569 -25 613 -25 m 796 1137 q 766 1143 779 1137 q 743 1161 749 1152 q 731 1187 733 1173 q 730 1202 730 1194 q 732 1219 730 1211 q 746 1252 735 1235 q 770 1279 755 1267 q 802 1297 783 1289 q 835 1304 820 1304 q 867 1297 851 1304 q 888 1279 880 1290 q 900 1252 897 1268 q 901 1239 901 1246 q 899 1219 901 1230 q 885 1187 895 1202 q 861 1161 875 1171 q 831 1143 849 1151 q 796 1137 814 1137 z "},"":{"ha":748,"x_min":16,"x_max":807,"o":"m 572 135 l 661 522 q 598 569 639 547 q 524 593 558 591 l 521 593 q 492 587 507 593 q 440 569 466 578 q 387 551 414 560 q 356 534 368 545 q 275 425 303 489 q 241 330 252 377 q 235 299 237 315 q 231 240 231 267 q 252 140 231 182 q 347 58 282 77 q 397 51 370 51 q 414 52 405 51 q 452 60 429 53 q 504 78 468 66 q 562 98 540 90 l 571 135 l 572 135 m 553 59 l 352 -9 q 314 -17 328 -17 l 286 -17 q 138 62 191 -12 q 98 196 98 119 q 101 243 98 219 q 111 298 105 272 q 132 367 119 334 q 203 482 153 425 q 277 545 227 512 q 315 563 295 555 q 433 604 374 583 q 552 644 492 624 q 575 648 565 648 l 578 648 q 678 627 621 646 q 684 624 684 625 q 718 610 698 618 q 734 608 726 608 q 754 614 745 608 q 779 634 771 626 q 789 639 783 639 q 795 637 792 639 q 807 626 807 633 l 807 624 l 635 -122 q 571 -262 609 -234 q 469 -311 532 -290 l 266 -381 q 229 -389 243 -389 q 201 -388 211 -389 q 53 -309 106 -385 q 16 -214 25 -269 q 148 -168 81 -191 q 166 -231 152 -203 q 261 -313 197 -293 q 310 -319 285 -319 q 328 -319 319 -319 q 366 -311 344 -317 q 389 -302 374 -307 q 418 -292 403 -298 q 477 -227 455 -276 q 503 -161 500 -177 l 553 59 m 533 785 q 503 792 518 785 q 479 809 489 797 q 468 836 470 823 q 467 850 467 842 q 469 867 467 859 q 484 901 473 884 q 507 927 492 915 q 538 945 519 937 q 572 952 557 952 q 604 945 588 952 q 626 927 618 937 q 637 901 634 916 q 638 890 638 895 q 635 867 638 879 q 622 836 631 850 q 598 809 612 821 q 568 792 583 798 q 533 785 549 785 z "},"":{"ha":1060,"x_min":139,"x_max":1120,"o":"m 474 -35 l 513 -35 q 502 -62 505 -50 q 500 -75 500 -69 q 509 -98 500 -88 q 549 -144 527 -121 q 572 -201 572 -168 q 568 -227 572 -214 l 567 -233 q 469 -295 551 -289 l 459 -295 q 370 -277 420 -295 l 370 -231 q 428 -254 398 -254 q 475 -239 451 -254 q 503 -206 498 -226 q 504 -197 504 -202 q 482 -147 504 -175 q 454 -98 465 -127 q 451 -83 451 -92 q 452 -73 451 -78 q 474 -35 456 -55 m 569 -25 q 231 108 361 -25 q 139 346 139 201 q 155 475 139 406 q 396 842 208 704 q 802 980 585 980 q 963 963 880 980 q 1115 895 1047 945 l 1065 752 q 1049 740 1060 740 l 1047 740 q 1034 759 1039 741 q 953 884 1011 853 q 787 916 895 916 q 493 810 635 916 q 298 475 351 705 q 288 387 288 431 q 342 190 288 286 q 585 44 420 52 q 616 43 602 43 q 751 64 694 43 q 880 163 820 88 l 909 290 q 910 297 910 294 q 895 323 910 313 q 847 347 879 332 q 819 373 819 360 l 819 376 q 836 390 822 390 l 1108 390 q 1120 380 1120 390 q 1119 376 1120 378 q 1078 346 1115 358 q 1031 290 1042 334 l 970 26 q 762 -3 865 22 q 662 -20 711 -16 q 569 -25 613 -25 z "},"":{"ha":748,"x_min":16,"x_max":807,"o":"m 572 135 l 661 522 q 598 569 639 547 q 524 593 558 591 l 521 593 q 492 587 507 593 q 440 569 466 578 q 387 551 414 560 q 356 534 368 545 q 275 425 303 489 q 241 330 252 377 q 235 299 237 315 q 231 240 231 267 q 252 140 231 182 q 347 58 282 77 q 397 51 370 51 q 414 52 405 51 q 452 60 429 53 q 504 78 468 66 q 562 98 540 90 l 571 135 l 572 135 m 553 59 l 352 -9 q 314 -17 328 -17 l 286 -17 q 138 62 191 -12 q 98 196 98 119 q 101 243 98 219 q 111 298 105 272 q 132 367 119 334 q 203 482 153 425 q 277 545 227 512 q 315 563 295 555 q 433 604 374 583 q 552 644 492 624 q 575 648 565 648 l 578 648 q 678 627 621 646 q 684 624 684 625 q 718 610 698 618 q 734 608 726 608 q 754 614 745 608 q 779 634 771 626 q 789 639 783 639 q 795 637 792 639 q 807 626 807 633 l 807 624 l 635 -122 q 571 -262 609 -234 q 469 -311 532 -290 l 266 -381 q 229 -389 243 -389 q 201 -388 211 -389 q 53 -309 106 -385 q 16 -214 25 -269 q 148 -168 81 -191 q 166 -231 152 -203 q 261 -313 197 -293 q 310 -319 285 -319 q 328 -319 319 -319 q 366 -311 344 -317 q 389 -302 374 -307 q 418 -292 403 -298 q 477 -227 455 -276 q 503 -161 500 -177 l 553 59 m 516 789 q 468 833 468 801 q 469 845 468 839 q 476 864 471 854 l 502 918 q 524 948 509 931 q 549 977 538 965 q 703 1076 610 1044 q 739 1084 725 1084 q 760 1072 756 1084 q 761 1067 761 1069 q 760 1063 761 1065 q 748 1050 758 1056 q 714 1036 732 1040 q 597 956 637 1015 l 598 956 q 646 909 646 943 q 644 898 646 904 q 638 881 642 890 l 612 827 q 572 792 600 803 q 539 785 555 785 q 516 789 528 785 z "},"":{"ha":1111,"x_min":108,"x_max":1276,"o":"m 492 852 l 418 535 l 991 535 l 1065 852 q 1067 872 1067 863 q 1044 908 1067 899 q 1016 934 1016 919 q 1017 938 1016 936 q 1034 952 1020 952 l 1264 952 q 1276 943 1276 952 q 1275 938 1276 941 q 1234 908 1271 920 q 1187 852 1197 896 l 1013 99 q 1010 79 1010 88 q 1035 43 1010 52 q 1063 18 1063 33 q 1062 14 1063 16 q 1044 0 1059 0 l 814 0 q 803 9 803 0 q 804 14 803 12 q 844 43 808 31 q 891 99 881 55 l 977 473 l 404 473 l 318 99 q 315 79 315 88 q 339 43 315 52 q 367 18 367 33 q 366 14 367 16 q 349 0 363 0 l 119 0 q 108 9 108 0 q 109 14 108 12 q 149 43 113 31 q 196 99 186 55 l 370 852 q 372 872 372 863 q 349 908 372 899 q 321 934 321 919 q 321 938 321 936 q 339 952 325 952 l 569 952 q 580 943 580 952 q 579 938 580 941 q 538 908 575 920 q 492 852 502 896 m 630 1055 l 840 1291 l 919 1291 l 1020 1055 l 981 1055 l 858 1196 l 669 1055 l 630 1055 z "},"":{"ha":819,"x_min":58,"x_max":833,"o":"m 269 99 q 266 79 266 88 q 290 43 266 52 q 317 18 317 33 q 317 14 317 16 q 300 0 313 0 l 70 0 q 58 9 58 0 q 59 14 58 12 q 100 43 63 31 q 146 99 136 55 l 320 852 q 323 872 323 863 q 299 908 323 899 q 271 934 271 919 q 272 938 271 936 q 290 952 275 952 q 381 966 335 954 q 475 992 428 977 l 379 578 q 451 604 420 593 q 509 623 481 614 q 646 652 577 645 q 663 652 654 652 q 762 614 720 652 q 802 490 802 577 q 782 343 802 429 l 726 99 q 723 79 723 88 q 747 43 723 52 q 774 18 774 33 q 774 14 774 16 q 757 0 770 0 l 592 0 q 583 6 583 0 l 583 9 l 660 343 q 674 452 674 405 q 646 552 674 517 q 559 591 616 591 q 485 578 526 591 q 444 564 469 572 q 401 549 419 555 q 370 538 384 543 l 269 99 m 443 743 l 653 979 l 732 979 l 833 743 l 794 743 l 671 885 l 482 743 l 443 743 z "},"":{"ha":1111,"x_min":108,"x_max":1276,"o":"m 492 852 l 477 791 l 1050 791 l 1065 852 q 1067 872 1067 863 q 1044 908 1067 899 q 1016 934 1016 919 q 1017 938 1016 936 q 1034 952 1020 952 l 1264 952 q 1276 943 1276 952 q 1275 938 1276 941 q 1234 908 1271 920 q 1187 852 1197 896 l 1173 791 l 1217 791 q 1233 784 1233 791 l 1233 782 l 1223 739 q 1202 729 1221 729 l 1158 729 l 1013 99 q 1010 79 1010 88 q 1035 43 1010 52 q 1063 18 1063 33 q 1062 14 1063 16 q 1044 0 1059 0 l 814 0 q 803 9 803 0 q 804 14 803 12 q 844 43 808 31 q 891 99 881 55 l 977 473 l 404 473 l 318 99 q 315 79 315 88 q 339 43 315 52 q 367 18 367 33 q 366 14 367 16 q 349 0 363 0 l 119 0 q 108 9 108 0 q 109 14 108 12 q 149 43 113 31 q 196 99 186 55 l 341 729 l 297 729 q 281 736 281 729 l 281 739 l 292 782 q 311 791 294 791 l 355 791 l 370 852 q 372 872 372 863 q 349 908 372 899 q 321 934 321 919 q 321 938 321 936 q 339 952 325 952 l 569 952 q 580 943 580 952 q 579 938 580 941 q 538 908 575 920 q 492 852 502 896 m 1036 729 l 463 729 l 418 535 l 991 535 l 1036 729 z "},"":{"ha":808,"x_min":51,"x_max":790,"o":"m 467 992 l 420 791 l 624 791 q 631 785 631 791 q 630 782 631 784 l 620 739 q 610 729 618 729 l 406 729 l 372 583 l 526 636 q 610 652 570 652 q 631 650 621 652 q 714 624 681 645 q 787 521 776 584 q 790 486 790 506 q 760 290 790 418 l 715 98 q 713 80 713 88 q 739 42 713 52 q 768 16 768 31 q 768 13 768 15 q 751 0 765 0 l 587 0 q 581 7 581 0 q 581 13 581 9 l 660 353 q 671 443 671 402 q 638 553 671 511 q 547 594 605 594 q 471 580 513 594 l 363 543 l 261 99 q 258 79 258 88 q 282 43 258 52 q 310 18 310 33 q 309 14 310 16 q 292 0 306 0 l 62 0 q 51 9 51 0 q 52 14 51 12 q 92 43 56 31 q 139 99 129 55 l 284 729 l 177 729 q 170 735 170 729 q 170 739 170 736 l 180 782 q 191 791 182 791 l 298 791 l 313 852 q 315 872 315 863 q 292 908 315 899 q 264 934 264 919 q 264 938 264 936 q 282 952 268 952 q 374 966 328 954 q 467 992 420 977 z "},"":{"ha":468,"x_min":108,"x_max":736,"o":"m 492 852 l 318 100 q 315 79 315 89 q 339 43 315 52 q 367 18 367 33 q 366 14 367 16 q 349 0 363 0 l 119 0 q 108 9 108 0 q 109 14 108 12 q 149 43 113 31 q 196 99 186 55 l 370 852 q 372 872 372 863 q 349 909 372 899 q 321 934 321 919 q 321 938 321 936 q 339 952 325 952 l 568 952 q 580 943 580 952 q 579 938 580 941 q 538 908 575 920 q 492 852 502 897 m 730 1227 q 650 1116 684 1150 q 582 1079 612 1079 q 478 1136 528 1079 q 418 1167 449 1167 q 367 1147 393 1167 q 350 1135 359 1142 q 328 1116 340 1128 q 287 1066 306 1094 q 277 1059 282 1059 q 270 1063 274 1059 q 266 1073 266 1067 l 266 1076 q 274 1092 268 1083 q 342 1192 307 1141 q 426 1244 377 1244 q 533 1185 486 1244 q 590 1153 558 1153 q 652 1177 618 1153 q 714 1249 682 1198 q 726 1257 719 1257 q 728 1257 727 1257 q 736 1244 736 1255 l 736 1242 l 735 1239 q 730 1227 734 1233 z "},"":{"ha":402,"x_min":79,"x_max":636,"o":"m 289 99 q 286 79 286 88 q 310 43 286 52 q 338 18 338 33 q 337 14 338 16 q 320 0 334 0 l 90 0 q 79 9 79 0 q 79 14 79 12 q 120 43 83 31 q 167 99 157 55 l 267 533 q 269 552 269 543 q 245 588 269 578 q 218 614 218 599 q 218 618 218 616 q 236 632 222 632 q 328 646 281 634 q 421 673 374 658 l 289 99 m 631 920 q 550 808 587 846 q 482 771 513 771 q 378 828 429 771 q 319 859 350 859 q 267 840 294 859 q 250 827 260 834 q 229 808 240 820 q 188 758 205 785 q 178 751 183 751 q 171 755 174 751 q 168 764 168 759 q 168 768 168 766 q 176 784 170 775 q 243 884 209 833 q 327 936 278 936 q 434 877 387 936 q 491 845 459 845 q 552 869 519 845 q 614 941 582 890 q 626 949 619 949 l 629 949 q 636 937 636 947 l 636 935 l 635 931 q 631 920 634 925 z "},"":{"ha":468,"x_min":108,"x_max":709,"o":"m 492 852 l 318 100 q 315 79 315 89 q 339 43 315 52 q 367 18 367 33 q 366 14 367 16 q 349 0 363 0 l 119 0 q 108 9 108 0 q 109 14 108 12 q 149 43 113 31 q 196 99 186 55 l 370 852 q 372 872 372 863 q 349 909 372 899 q 321 934 321 919 q 321 938 321 936 q 339 952 325 952 l 568 952 q 580 943 580 952 q 579 938 580 941 q 538 908 575 920 q 492 852 502 897 m 297 1156 l 704 1156 q 709 1150 709 1156 l 709 1148 l 696 1090 q 688 1083 694 1083 l 281 1083 q 275 1088 275 1083 l 275 1090 l 289 1148 q 297 1156 290 1156 z "},"":{"ha":402,"x_min":79,"x_max":625,"o":"m 289 99 q 286 79 286 88 q 310 43 286 52 q 338 18 338 33 q 337 14 338 16 q 320 0 334 0 l 90 0 q 79 9 79 0 q 79 14 79 12 q 120 43 83 31 q 167 99 157 55 l 267 533 q 269 552 269 543 q 245 588 269 578 q 218 614 218 599 q 218 618 218 616 q 236 632 222 632 q 328 646 281 634 q 421 673 374 658 l 289 99 m 213 913 l 620 913 q 625 909 625 913 l 625 907 l 612 848 q 603 841 610 841 l 196 841 q 191 845 191 841 q 192 848 191 846 l 205 907 q 213 913 207 913 z "},"":{"ha":468,"x_min":108,"x_max":726,"o":"m 492 852 l 318 100 q 315 79 315 89 q 339 43 315 52 q 367 18 367 33 q 366 14 367 16 q 349 0 363 0 l 119 0 q 108 9 108 0 q 109 14 108 12 q 149 43 113 31 q 196 99 186 55 l 370 852 q 372 872 372 863 q 349 909 372 899 q 321 934 321 919 q 321 938 321 936 q 339 952 325 952 l 568 952 q 580 943 580 952 q 579 938 580 941 q 538 908 575 920 q 492 852 502 897 m 473 1033 q 326 1109 365 1033 q 309 1188 309 1143 q 313 1234 309 1210 l 313 1236 q 335 1253 317 1253 q 349 1234 348 1253 q 492 1121 352 1123 l 496 1121 q 688 1234 633 1121 q 711 1253 697 1253 q 726 1240 726 1253 q 726 1236 726 1238 l 725 1234 q 653 1109 703 1160 q 473 1033 580 1033 z "},"":{"ha":402,"x_min":79,"x_max":633,"o":"m 289 99 q 286 79 286 88 q 310 43 286 52 q 338 18 338 33 q 337 14 338 16 q 320 0 334 0 l 90 0 q 79 9 79 0 q 79 14 79 12 q 120 43 83 31 q 167 99 157 55 l 267 533 q 269 552 269 543 q 245 588 269 578 q 218 614 218 599 q 218 618 218 616 q 236 632 222 632 q 328 646 281 634 q 421 673 374 658 l 289 99 m 380 756 q 234 832 272 756 q 216 909 216 866 q 221 958 216 932 l 221 959 q 243 976 225 976 q 257 958 256 976 q 400 845 260 846 l 404 845 q 596 958 541 845 q 618 976 605 976 q 633 964 633 976 q 633 959 633 962 l 633 958 q 561 832 611 884 q 380 756 487 756 z "},"":{"ha":468,"x_min":62,"x_max":580,"o":"m 248 -14 q 253 -40 253 -28 q 252 -52 253 -46 q 238 -78 248 -66 q 189 -127 214 -106 q 140 -186 145 -161 q 138 -195 138 -191 q 152 -219 138 -208 q 193 -233 170 -233 q 262 -210 223 -233 l 241 -256 q 143 -275 182 -275 l 133 -275 q 62 -225 62 -269 q 64 -213 62 -219 l 65 -207 q 123 -123 77 -156 q 184 -78 155 -100 q 208 -41 203 -64 q 210 -24 210 -33 q 210 -14 210 -19 l 248 -14 m 492 852 l 318 100 q 315 79 315 89 q 339 43 315 52 q 367 18 367 33 q 366 14 367 16 q 349 0 363 0 l 119 0 q 108 9 108 0 q 109 14 108 12 q 149 43 113 31 q 196 99 186 55 l 370 852 q 372 872 372 863 q 349 909 372 899 q 321 934 321 919 q 321 938 321 936 q 339 952 325 952 l 568 952 q 580 943 580 952 q 579 938 580 941 q 538 908 575 920 q 492 852 502 897 z "},"":{"ha":402,"x_min":33,"x_max":421,"o":"m 218 -8 q 223 -34 223 -22 q 222 -46 223 -40 q 209 -72 218 -60 q 159 -121 184 -100 q 110 -180 115 -155 q 109 -188 109 -184 q 123 -213 109 -202 q 163 -227 140 -227 q 233 -204 193 -227 l 212 -250 q 114 -269 153 -269 l 104 -269 q 33 -218 33 -263 q 34 -207 33 -213 l 35 -201 q 93 -117 47 -150 q 155 -72 125 -94 q 178 -35 173 -58 q 180 -18 180 -26 q 180 -8 180 -13 l 218 -8 m 289 99 q 286 79 286 88 q 310 43 286 52 q 338 18 338 33 q 337 14 338 16 q 320 0 334 0 l 90 0 q 79 9 79 0 q 79 14 79 12 q 120 43 83 31 q 167 99 157 55 l 267 533 q 269 552 269 543 q 245 588 269 578 q 218 614 218 599 q 218 618 218 616 q 236 632 222 632 q 328 646 281 634 q 421 673 374 658 l 289 99 z "},"":{"ha":468,"x_min":108,"x_max":602,"o":"m 492 852 l 318 100 q 315 79 315 89 q 339 43 315 52 q 367 18 367 33 q 366 14 367 16 q 349 0 363 0 l 119 0 q 108 9 108 0 q 109 14 108 12 q 149 43 113 31 q 196 99 186 55 l 370 852 q 372 872 372 863 q 349 909 372 899 q 321 934 321 919 q 321 938 321 936 q 339 952 325 952 l 568 952 q 580 943 580 952 q 579 938 580 941 q 538 908 575 920 q 492 852 502 897 m 496 1137 q 465 1144 478 1137 q 443 1161 452 1149 q 431 1187 434 1171 q 429 1200 429 1193 q 432 1219 429 1208 q 446 1253 436 1237 q 470 1279 457 1269 q 501 1297 484 1290 q 535 1304 517 1304 q 567 1297 553 1304 q 589 1279 580 1290 q 600 1253 597 1267 q 602 1240 602 1246 q 599 1219 602 1230 q 585 1187 595 1202 q 562 1161 576 1173 q 531 1144 546 1149 q 496 1137 515 1137 z "},"":{"ha":402,"x_min":79,"x_max":421,"o":"m 289 99 q 286 79 286 88 q 310 43 286 52 q 338 18 338 33 q 337 14 338 16 q 320 0 334 0 l 90 0 q 79 9 79 0 q 79 14 79 12 q 120 43 83 31 q 167 99 157 55 l 267 533 q 269 552 269 543 q 245 588 269 578 q 218 614 218 599 q 218 618 218 616 q 236 632 222 632 q 328 646 281 634 q 421 673 374 658 l 289 99 z "},"":{"ha":930,"x_min":108,"x_max":1037,"o":"m 492 852 l 318 100 q 315 79 315 89 q 339 43 315 52 q 367 18 367 33 q 366 14 367 16 q 349 0 363 0 l 119 0 q 108 9 108 0 q 109 14 108 12 q 149 43 113 31 q 196 99 186 55 l 370 852 q 372 872 372 863 q 349 909 372 899 q 321 934 321 919 q 321 938 321 936 q 339 952 325 952 l 568 952 q 580 943 580 952 q 579 938 580 941 q 538 908 575 920 q 492 852 502 897 m 949 852 l 729 -100 q 681 -200 711 -161 q 590 -260 647 -241 q 500 -273 551 -271 q 465 -273 483 -273 q 385 -271 428 -273 q 374 -262 374 -271 q 374 -257 374 -260 q 410 -234 378 -237 q 481 -220 441 -231 q 558 -176 520 -209 q 615 -64 597 -144 l 827 852 q 829 872 829 863 q 806 908 829 899 q 778 934 778 919 q 779 938 778 936 q 796 952 782 952 l 1026 952 q 1037 943 1037 952 q 1036 938 1037 941 q 996 908 1032 920 q 949 852 959 896 z "},"":{"ha":703,"x_min":79,"x_max":878,"o":"m 289 99 q 286 79 286 88 q 310 43 286 52 q 338 18 338 33 q 337 14 338 16 q 320 0 334 0 l 90 0 q 79 9 79 0 q 79 14 79 12 q 120 43 83 31 q 167 99 157 55 l 267 533 q 269 552 269 543 q 245 588 269 578 q 218 614 218 599 q 218 618 218 616 q 236 632 222 632 q 328 646 281 634 q 421 673 374 658 l 289 99 m 817 949 q 878 900 878 949 q 874 875 878 889 q 783 800 857 800 q 722 849 722 800 q 726 875 722 861 q 817 949 743 949 m 417 949 q 477 900 477 949 q 474 875 477 889 q 382 800 456 800 q 323 848 323 800 q 326 875 323 861 q 417 949 343 949 m 671 7 q 609 -185 641 -122 q 524 -294 577 -249 q 372 -374 448 -356 l 380 -341 q 437 -300 409 -325 q 488 -235 465 -276 q 513 -160 502 -209 q 551 4 525 -111 l 670 518 q 673 537 673 529 q 650 572 673 563 q 623 597 623 583 q 623 601 623 599 q 640 614 626 614 q 729 628 684 616 q 821 654 774 640 l 671 7 z "},"":{"ha":463,"x_min":12,"x_max":672,"o":"m 283 1055 l 492 1291 l 571 1291 l 672 1055 l 633 1055 l 510 1196 l 321 1055 l 283 1055 m 320 122 q 256 -77 289 -12 q 168 -188 223 -142 q 12 -271 93 -250 l 20 -237 q 79 -195 50 -220 q 130 -128 108 -170 q 157 -50 145 -100 q 196 118 169 0 l 366 853 q 368 873 368 864 q 345 909 368 899 q 317 935 317 920 q 318 939 317 937 q 335 952 321 952 l 565 952 q 577 943 577 952 q 576 939 577 941 q 535 909 572 921 q 488 853 498 897 l 320 122 z "},"":{"ha":325,"x_min":-41,"x_max":519,"o":"m 130 743 l 339 979 l 418 979 l 519 743 l 480 743 l 357 885 l 169 743 l 130 743 m 258 7 q 195 -185 227 -122 q 111 -294 163 -249 q -41 -374 35 -356 l -34 -341 q 23 -300 -5 -325 q 74 -235 52 -276 q 100 -160 88 -209 q 138 4 111 -111 l 256 518 q 259 537 259 529 q 236 572 259 563 q 209 597 209 583 q 210 601 209 599 q 227 614 212 614 q 316 628 271 616 q 407 654 361 640 l 258 7 z "},"":{"ha":1008,"x_min":108,"x_max":1103,"o":"m 445 -11 l 484 -11 q 473 -39 475 -26 q 471 -52 471 -45 q 479 -75 471 -64 q 519 -120 498 -97 q 543 -178 543 -144 q 539 -203 543 -190 l 538 -210 q 440 -271 522 -265 l 430 -271 q 340 -253 391 -271 l 341 -207 q 399 -230 369 -230 q 446 -216 422 -230 q 474 -182 469 -202 q 475 -174 475 -178 q 453 -123 475 -151 q 425 -75 436 -103 q 422 -59 422 -67 q 423 -49 422 -54 q 445 -11 427 -31 m 412 506 l 844 842 q 954 927 908 891 q 1008 951 983 951 q 1031 945 1020 951 l 1095 910 q 1103 898 1103 905 q 1102 894 1103 896 q 1098 885 1101 890 l 1040 786 l 998 806 q 951 817 974 817 q 884 790 916 817 l 549 524 l 950 53 q 975 32 961 39 q 987 17 987 25 l 987 14 q 970 0 984 0 l 741 0 q 729 9 729 0 q 730 14 729 12 q 740 26 731 20 q 758 45 754 37 l 758 47 q 741 75 758 56 l 404 470 l 318 99 q 315 79 315 88 q 339 43 315 52 q 367 18 367 33 q 366 14 367 16 q 349 0 363 0 l 119 0 q 108 9 108 0 q 109 14 108 12 q 149 43 113 31 q 196 99 186 55 l 370 852 q 372 872 372 863 q 349 908 372 899 q 321 934 321 919 q 321 938 321 936 q 339 952 325 952 l 569 952 q 580 943 580 952 q 579 938 580 941 q 538 908 575 920 q 492 852 502 896 l 412 506 z "},"":{"ha":789,"x_min":72,"x_max":823,"o":"m 381 -5 l 420 -5 q 409 -33 412 -20 q 407 -46 407 -40 q 415 -69 407 -60 q 456 -115 434 -92 q 479 -172 479 -138 q 475 -198 479 -184 l 474 -204 q 376 -266 458 -260 l 366 -266 q 277 -248 326 -266 l 277 -201 q 335 -224 305 -224 q 382 -210 358 -224 q 410 -177 406 -197 q 411 -168 411 -173 q 389 -118 411 -146 q 361 -69 372 -98 q 358 -55 358 -62 q 359 -43 358 -50 q 381 -5 363 -26 m 328 300 l 282 99 q 279 79 279 88 q 303 43 279 52 q 331 18 331 33 q 330 14 331 16 q 313 0 327 0 l 83 0 q 72 9 72 0 q 73 14 72 12 q 113 43 77 31 q 160 99 150 55 l 334 852 q 336 872 336 863 q 313 908 336 899 q 285 934 285 919 q 286 938 285 936 q 303 952 289 952 q 395 966 349 954 q 488 992 441 977 l 345 374 l 630 566 q 715 619 679 600 q 752 630 736 630 q 774 624 764 630 l 818 593 q 823 583 823 588 l 823 581 q 819 574 822 577 l 771 503 l 741 520 q 705 530 724 530 q 657 515 682 530 q 453 383 542 441 l 636 153 q 712 72 693 81 q 743 64 726 64 q 757 66 749 64 q 768 67 763 67 q 783 57 781 67 q 784 54 784 55 q 783 50 784 52 q 774 41 782 43 l 726 20 q 656 4 687 4 q 621 12 637 4 q 553 65 581 29 l 353 317 q 328 300 346 311 z "},"":{"ha":780,"x_min":79,"x_max":827,"o":"m 425 686 l 353 376 l 633 566 q 719 619 687 602 q 755 630 739 630 q 778 624 768 630 l 822 593 q 827 583 827 588 q 827 580 827 581 q 823 574 827 578 l 774 503 l 745 520 q 709 530 729 530 q 661 515 686 530 q 456 383 553 448 l 640 153 q 716 72 696 81 q 747 64 730 64 q 761 66 751 64 q 771 66 766 66 q 787 57 786 66 q 788 54 788 56 q 787 51 788 52 q 778 41 786 44 l 730 20 q 661 4 690 4 q 625 12 640 4 q 557 65 586 28 l 357 317 q 336 303 352 313 l 290 99 q 287 79 287 88 q 311 43 287 52 q 338 18 338 33 q 338 14 338 16 q 321 0 334 0 l 91 0 q 79 9 79 0 q 80 14 79 12 q 121 43 84 31 q 168 99 157 55 l 269 542 q 272 562 272 553 q 249 600 272 589 q 222 627 222 612 q 222 631 222 629 q 240 645 226 645 q 331 659 285 647 q 425 686 378 670 z "},"":{"ha":848,"x_min":108,"x_max":836,"o":"m 311 64 l 600 64 q 718 112 663 64 q 802 188 773 161 q 824 203 817 203 q 836 193 836 203 q 835 189 836 191 q 830 174 833 180 l 741 0 l 119 0 q 108 9 108 0 q 109 14 108 12 q 149 43 113 31 q 196 99 186 55 l 370 852 q 372 872 372 863 q 349 908 372 899 q 321 934 321 919 q 321 938 321 936 q 339 952 325 952 l 569 952 q 580 943 580 952 q 579 938 580 941 q 538 908 575 920 q 492 852 502 896 l 311 64 m 404 1058 q 353 1040 371 1040 q 350 1040 351 1040 q 345 1044 345 1041 l 345 1046 q 377 1080 347 1055 l 477 1164 q 552 1226 498 1181 q 625 1282 606 1272 q 654 1290 640 1290 q 677 1285 666 1290 q 695 1256 695 1276 q 693 1241 695 1249 q 672 1208 689 1222 q 638 1185 654 1194 l 404 1058 z "},"":{"ha":404,"x_min":79,"x_max":695,"o":"m 496 992 l 290 99 q 287 79 287 88 q 311 43 287 52 q 338 18 338 33 q 338 14 338 16 q 321 0 334 0 l 91 0 q 79 9 79 0 q 80 14 79 12 q 121 43 84 31 q 168 99 157 55 l 341 852 q 344 872 344 863 q 320 908 344 899 q 292 934 292 919 q 293 938 292 936 q 311 952 296 952 q 402 966 356 954 q 496 992 449 977 m 404 1058 q 353 1040 371 1040 q 350 1040 351 1040 q 345 1044 345 1041 l 345 1046 q 377 1080 347 1055 l 477 1164 q 552 1226 498 1181 q 625 1282 606 1272 q 654 1290 640 1290 q 677 1285 666 1290 q 695 1256 695 1276 q 693 1241 695 1249 q 672 1208 689 1222 q 638 1185 654 1194 l 404 1058 z "},"":{"ha":848,"x_min":108,"x_max":836,"o":"m 379 -14 l 418 -14 q 407 -41 410 -28 q 406 -54 406 -47 q 414 -77 406 -67 q 454 -123 432 -100 q 477 -180 477 -146 q 473 -206 477 -193 l 472 -212 q 374 -274 456 -268 l 364 -274 q 275 -256 325 -274 l 275 -210 q 333 -233 303 -233 q 380 -218 356 -233 q 408 -185 404 -205 q 410 -176 410 -180 q 387 -126 410 -154 q 359 -77 370 -106 q 357 -62 357 -70 q 357 -52 357 -57 q 379 -14 361 -34 m 311 64 l 600 64 q 718 112 663 64 q 802 188 773 161 q 824 203 817 203 q 836 193 836 203 q 835 189 836 191 q 830 174 833 180 l 741 0 l 119 0 q 108 9 108 0 q 109 14 108 12 q 149 43 113 31 q 196 99 186 55 l 370 852 q 372 872 372 863 q 349 908 372 899 q 321 934 321 919 q 321 938 321 936 q 339 952 325 952 l 569 952 q 580 943 580 952 q 579 938 580 941 q 538 908 575 920 q 492 852 502 896 l 311 64 z "},"":{"ha":404,"x_min":71,"x_max":496,"o":"m 176 -14 l 214 -14 q 203 -42 206 -29 q 201 -55 201 -49 q 210 -78 201 -68 q 250 -123 229 -100 q 273 -181 273 -147 q 270 -207 273 -193 l 269 -213 q 170 -275 253 -269 l 160 -275 q 71 -256 121 -275 l 71 -210 q 130 -233 100 -233 q 176 -219 153 -233 q 205 -186 200 -205 q 205 -177 205 -182 q 184 -127 205 -155 q 155 -78 167 -106 q 153 -64 153 -71 q 154 -52 153 -58 q 176 -14 158 -35 m 496 992 l 290 99 q 287 79 287 88 q 311 43 287 52 q 338 18 338 33 q 338 14 338 16 q 321 0 334 0 l 91 0 q 79 9 79 0 q 80 14 79 12 q 121 43 84 31 q 168 99 157 55 l 341 852 q 344 872 344 863 q 320 908 344 899 q 292 934 292 919 q 293 938 292 936 q 311 952 296 952 q 402 966 356 954 q 496 992 449 977 z "},"":{"ha":848,"x_min":108,"x_max":836,"o":"m 311 64 l 600 64 q 718 112 663 64 q 802 188 773 161 q 824 203 817 203 q 836 193 836 203 q 835 189 836 191 q 830 174 833 180 l 741 0 l 119 0 q 108 9 108 0 q 109 14 108 12 q 149 43 113 31 q 196 99 186 55 l 370 852 q 372 872 372 863 q 349 908 372 899 q 321 934 321 919 q 321 938 321 936 q 339 952 325 952 l 569 952 q 580 943 580 952 q 579 938 580 941 q 538 908 575 920 q 492 852 502 896 l 311 64 m 712 1092 l 717 1092 q 776 1049 776 1092 q 774 1035 776 1042 l 762 979 q 749 945 760 965 q 732 913 739 926 q 601 782 689 836 q 557 764 572 764 q 542 771 547 764 q 539 779 539 774 q 540 781 539 780 q 548 793 541 787 q 580 816 561 806 q 676 919 651 854 l 669 919 q 611 960 611 919 q 613 976 611 967 l 625 1031 l 625 1034 q 712 1092 638 1090 z "},"":{"ha":451,"x_min":127,"x_max":823,"o":"m 543 992 l 481 726 q 668 851 625 814 q 724 919 711 888 l 717 919 q 659 960 659 919 q 661 976 659 967 l 672 1031 l 673 1034 q 760 1092 686 1090 l 764 1092 q 823 1049 823 1092 q 822 1035 823 1042 l 810 979 q 797 945 807 965 q 779 913 786 926 q 704 824 757 873 q 481 675 651 775 q 474 671 477 673 q 468 667 471 669 l 337 99 q 334 79 334 88 q 358 43 334 52 q 386 18 386 33 q 385 14 386 16 q 368 0 382 0 l 138 0 q 127 9 127 0 q 127 14 127 12 q 168 43 132 31 q 215 99 205 55 l 326 578 q 230 500 234 516 l 230 500 q 235 495 230 496 q 265 481 251 491 q 275 458 275 473 q 275 450 275 455 l 265 406 l 265 404 q 195 357 254 359 l 192 357 q 144 390 144 357 q 146 403 144 396 l 155 447 l 156 450 q 165 474 159 460 q 180 500 174 490 q 224 553 194 525 q 339 637 254 581 l 389 852 q 391 872 391 863 q 368 908 391 899 q 340 934 340 919 q 340 938 340 936 q 358 952 344 952 q 450 966 404 954 q 543 992 496 977 z "},"":{"ha":848,"x_min":108,"x_max":836,"o":"m 311 64 l 600 64 q 718 112 663 64 q 802 188 773 161 q 824 203 817 203 q 836 193 836 203 q 835 189 836 191 q 830 174 833 180 l 741 0 l 119 0 q 108 9 108 0 q 109 14 108 12 q 149 43 113 31 q 196 99 186 55 l 370 852 q 372 872 372 863 q 349 908 372 899 q 321 934 321 919 q 321 938 321 936 q 339 952 325 952 l 569 952 q 580 943 580 952 q 579 938 580 941 q 538 908 575 920 q 492 852 502 896 l 311 64 m 543 393 q 512 399 526 393 q 490 416 496 406 q 477 442 481 425 q 476 454 476 448 q 479 475 476 464 q 492 507 482 492 q 517 534 505 525 q 547 553 530 545 q 581 559 566 559 q 612 553 597 559 q 635 534 627 545 q 647 507 644 523 q 648 495 648 501 q 646 475 648 486 q 632 442 642 457 q 608 416 623 428 q 577 399 595 406 q 543 393 560 393 z "},"":{"ha":510,"x_min":79,"x_max":648,"o":"m 496 992 l 290 99 q 287 79 287 88 q 311 43 287 52 q 338 18 338 33 q 338 14 338 16 q 321 0 334 0 l 91 0 q 79 9 79 0 q 80 14 79 12 q 121 43 84 31 q 168 99 157 55 l 341 852 q 344 872 344 863 q 320 908 344 899 q 292 934 292 919 q 293 938 292 936 q 311 952 296 952 q 402 966 356 954 q 496 992 449 977 m 543 393 q 512 399 526 393 q 490 416 496 406 q 477 442 481 425 q 476 454 476 448 q 479 475 476 464 q 492 507 482 492 q 517 534 505 525 q 547 553 530 545 q 581 559 566 559 q 612 553 597 559 q 635 534 627 545 q 647 507 644 523 q 648 495 648 501 q 646 475 648 486 q 632 442 642 457 q 608 416 623 428 q 577 399 595 406 q 543 393 560 393 z "},"":{"ha":848,"x_min":108,"x_max":836,"o":"m 311 64 l 600 64 q 718 112 663 64 q 802 188 773 161 q 824 203 817 203 q 836 193 836 203 q 835 189 836 191 q 830 174 833 180 l 741 0 l 119 0 q 108 9 108 0 q 109 14 108 12 q 149 43 113 31 q 196 99 186 55 l 304 568 l 154 530 q 147 530 150 530 q 139 539 139 530 l 138 565 q 138 570 138 568 q 152 581 140 578 l 317 623 l 370 852 q 372 872 372 863 q 349 908 372 899 q 321 934 321 919 q 321 938 321 936 q 339 952 325 952 l 569 952 q 580 943 580 952 q 579 938 580 941 q 538 908 575 920 q 492 852 502 896 l 446 656 l 618 699 l 621 699 q 633 690 631 699 l 633 664 q 633 659 633 661 q 619 648 631 650 l 434 601 l 311 64 z "},"":{"ha":510,"x_min":79,"x_max":633,"o":"m 496 992 l 416 648 l 618 699 l 621 699 q 633 690 631 699 l 633 664 q 633 659 633 661 q 619 648 631 650 l 404 593 l 290 99 q 287 79 287 88 q 311 43 287 52 q 338 18 338 33 q 338 14 338 16 q 321 0 334 0 l 91 0 q 79 9 79 0 q 80 14 79 12 q 121 43 84 31 q 168 99 157 55 l 274 560 l 154 530 q 147 530 150 530 q 139 539 139 530 l 138 565 q 138 570 138 568 q 152 581 140 578 l 286 615 l 341 852 q 344 872 344 863 q 320 908 344 899 q 292 934 292 919 q 293 938 292 936 q 311 952 296 952 q 402 966 356 954 q 496 992 449 977 z "},"":{"ha":1115,"x_min":94,"x_max":1279,"o":"m 960 138 l 1125 852 q 1128 872 1128 863 q 1105 908 1128 899 q 1077 934 1077 919 q 1078 938 1077 936 q 1095 952 1081 952 l 1267 952 q 1279 943 1279 952 q 1278 938 1279 941 q 1238 908 1274 920 q 1191 852 1201 896 l 987 -29 l 873 0 l 410 806 l 247 99 q 244 79 244 88 q 268 43 244 52 q 296 18 296 33 q 295 14 296 16 q 277 0 292 0 l 105 0 q 94 9 94 0 q 94 14 94 12 q 135 43 98 31 q 182 99 172 55 l 355 852 q 358 872 358 863 q 334 908 358 899 q 307 934 307 919 q 307 938 307 936 q 325 952 311 952 l 499 952 l 960 138 m 724 1058 q 673 1040 691 1040 q 670 1040 671 1040 q 665 1044 665 1041 l 665 1046 q 697 1080 667 1055 l 798 1164 q 872 1226 818 1181 q 945 1282 926 1272 q 975 1290 960 1290 q 997 1285 986 1290 q 1015 1256 1015 1276 q 1013 1241 1015 1249 q 992 1208 1009 1222 q 958 1185 975 1194 l 724 1058 z "},"":{"ha":808,"x_min":51,"x_max":790,"o":"m 388 650 l 372 583 l 526 636 q 610 652 570 652 q 631 650 621 652 q 714 624 681 645 q 787 521 776 584 q 790 486 790 506 q 760 290 790 418 l 715 98 q 713 80 713 88 q 739 42 713 52 q 768 16 768 31 q 768 13 768 15 q 751 0 765 0 l 587 0 q 581 7 581 0 q 581 13 581 9 l 660 353 q 671 443 671 402 q 638 553 671 511 q 547 594 605 594 q 471 580 513 594 l 363 543 l 261 99 q 258 79 258 88 q 282 43 258 52 q 310 18 310 33 q 309 14 310 16 q 292 0 306 0 l 62 0 q 51 9 51 0 q 52 14 51 12 q 92 43 56 31 q 139 99 129 55 l 234 510 q 236 528 236 520 q 212 566 236 556 q 184 591 184 576 q 185 595 184 593 q 203 609 189 609 q 295 623 248 611 q 388 650 341 635 m 486 762 q 435 744 452 744 q 431 745 433 744 q 427 749 427 745 l 427 749 q 459 784 429 759 l 560 868 q 634 930 580 885 q 707 986 688 976 q 736 994 722 994 q 760 989 748 994 q 778 959 778 980 q 776 945 778 952 q 754 912 771 926 q 721 889 737 898 l 486 762 z "},"":{"ha":1115,"x_min":94,"x_max":1279,"o":"m 487 -5 l 526 -5 q 515 -33 517 -20 q 513 -45 513 -39 q 522 -68 513 -58 q 562 -114 540 -91 q 585 -172 585 -138 q 581 -197 585 -184 l 580 -203 q 482 -265 564 -259 l 472 -265 q 382 -247 433 -265 l 383 -201 q 441 -224 411 -224 q 488 -210 464 -224 q 516 -176 511 -196 q 517 -167 517 -172 q 495 -117 517 -145 q 467 -68 478 -97 q 465 -53 465 -61 q 465 -43 465 -48 q 487 -5 469 -25 m 960 138 l 1125 852 q 1128 872 1128 863 q 1105 908 1128 899 q 1077 934 1077 919 q 1078 938 1077 936 q 1095 952 1081 952 l 1267 952 q 1279 943 1279 952 q 1278 938 1279 941 q 1238 908 1274 920 q 1191 852 1201 896 l 987 -29 l 873 0 l 410 806 l 247 99 q 244 79 244 88 q 268 43 244 52 q 296 18 296 33 q 295 14 296 16 q 277 0 292 0 l 105 0 q 94 9 94 0 q 94 14 94 12 q 135 43 98 31 q 182 99 172 55 l 355 852 q 358 872 358 863 q 334 908 358 899 q 307 934 307 919 q 307 938 307 936 q 325 952 311 952 l 499 952 l 960 138 z "},"":{"ha":808,"x_min":51,"x_max":790,"o":"m 369 -5 l 408 -5 q 397 -33 399 -20 q 395 -45 395 -39 q 404 -68 395 -58 q 444 -114 422 -91 q 467 -172 467 -138 q 463 -197 467 -184 l 462 -203 q 364 -265 446 -259 l 354 -265 q 264 -247 315 -265 l 265 -201 q 323 -224 293 -224 q 370 -210 346 -224 q 398 -176 393 -196 q 399 -167 399 -172 q 377 -117 399 -145 q 349 -68 360 -97 q 347 -53 347 -61 q 347 -43 347 -48 q 369 -5 351 -25 m 388 650 l 372 583 l 526 636 q 610 652 570 652 q 631 650 621 652 q 714 624 681 645 q 787 521 776 584 q 790 486 790 506 q 760 290 790 418 l 715 98 q 713 80 713 88 q 739 42 713 52 q 768 16 768 31 q 768 13 768 15 q 751 0 765 0 l 587 0 q 581 7 581 0 q 581 13 581 9 l 660 353 q 671 443 671 402 q 638 553 671 511 q 547 594 605 594 q 471 580 513 594 l 363 543 l 261 99 q 258 79 258 88 q 282 43 258 52 q 310 18 310 33 q 309 14 310 16 q 292 0 306 0 l 62 0 q 51 9 51 0 q 52 14 51 12 q 92 43 56 31 q 139 99 129 55 l 234 510 q 236 528 236 520 q 212 566 236 556 q 184 591 184 576 q 185 595 184 593 q 203 609 189 609 q 295 623 248 611 q 388 650 341 635 z "}}}
